<svg width="20" height="20" viewBox="0 0 20 20" fill="none" xmlns="http://www.w3.org/2000/svg">
<g id="teenyicons:id-outline">
<path id="Vector" d="M3.36364 16.4091V17H4.54545V16.4091H3.36364ZM9.27273 16.4091V17H10.4545V16.4091H9.27273ZM4.54545 16.4091V15.8182H3.36364V16.4091H4.54545ZM9.27273 15.8182V16.4091H10.4545V15.8182H9.27273ZM6.90909 13.4545C7.53597 13.4545 8.13717 13.7036 8.58043 14.1468C9.0237 14.5901 9.27273 15.1913 9.27273 15.8182H10.4545C10.4545 14.8779 10.081 13.9761 9.41611 13.3112C8.7512 12.6463 7.8494 12.2727 6.90909 12.2727V13.4545ZM4.54545 15.8182C4.54545 15.1913 4.79448 14.5901 5.23775 14.1468C5.68102 13.7036 6.28222 13.4545 6.90909 13.4545V12.2727C5.96878 12.2727 5.06698 12.6463 4.40208 13.3112C3.73717 13.9761 3.36364 14.8779 3.36364 15.8182H4.54545ZM6.90909 6.36364C6.28222 6.36364 5.68102 6.61266 5.23775 7.05593C4.79448 7.4992 4.54545 8.1004 4.54545 8.72727H5.72727C5.72727 8.41384 5.85179 8.11323 6.07342 7.8916C6.29505 7.66997 6.59565 7.54545 6.90909 7.54545V6.36364ZM9.27273 8.72727C9.27273 8.1004 9.0237 7.4992 8.58043 7.05593C8.13717 6.61266 7.53597 6.36364 6.90909 6.36364V7.54545C7.22253 7.54545 7.52313 7.66997 7.74476 7.8916C7.9664 8.11323 8.09091 8.41384 8.09091 8.72727H9.27273ZM6.90909 11.0909C7.53597 11.0909 8.13717 10.8419 8.58043 10.3986C9.0237 9.95535 9.27273 9.35415 9.27273 8.72727H8.09091C8.09091 9.04071 7.9664 9.34131 7.74476 9.56294C7.52313 9.78458 7.22253 9.90909 6.90909 9.90909V11.0909ZM6.90909 9.90909C6.59565 9.90909 6.29505 9.78458 6.07342 9.56294C5.85179 9.34131 5.72727 9.04071 5.72727 8.72727H4.54545C4.54545 9.35415 4.79448 9.95535 5.23775 10.3986C5.68102 10.8419 6.28222 11.0909 6.90909 11.0909V9.90909ZM2.77273 5.18182H16.9545V4H2.77273V5.18182ZM17.5455 5.77273V15.2273H18.7273V5.77273H17.5455ZM16.9545 15.8182H2.77273V17H16.9545V15.8182ZM2.18182 15.2273V5.77273H1V15.2273H2.18182ZM2.77273 15.8182C2.61601 15.8182 2.46571 15.7559 2.35489 15.6451C2.24407 15.5343 2.18182 15.384 2.18182 15.2273H1C1 15.6974 1.18677 16.1483 1.51922 16.4808C1.85167 16.8132 2.30257 17 2.77273 17V15.8182ZM17.5455 15.2273C17.5455 15.384 17.4832 15.5343 17.3724 15.6451C17.2616 15.7559 17.1113 15.8182 16.9545 15.8182V17C17.4247 17 17.8756 16.8132 18.2081 16.4808C18.5405 16.1483 18.7273 15.6974 18.7273 15.2273H17.5455ZM16.9545 5.18182C17.1113 5.18182 17.2616 5.24407 17.3724 5.35489C17.4832 5.46571 17.5455 5.61601 17.5455 5.77273H18.7273C18.7273 5.30257 18.5405 4.85167 18.2081 4.51922C17.8756 4.18677 17.4247 4 16.9545 4V5.18182ZM2.77273 4C2.30257 4 1.85167 4.18677 1.51922 4.51922C1.18677 4.85167 1 5.30257 1 5.77273H2.18182C2.18182 5.61601 2.24407 5.46571 2.35489 5.35489C2.46571 5.24407 2.61601 5.18182 2.77273 5.18182V4ZM11.6364 8.72727H15.1818V7.54545H11.6364V8.72727ZM11.6364 12.2727H15.1818V11.0909H11.6364V12.2727Z" fill="#D0E8FF"/>
</g>
</svg>
