<svg width="20" height="20" viewBox="0 0 20 20" fill="none" xmlns="http://www.w3.org/2000/svg">
<g id="iconamoon:lock-light">
<g id="Group">
<path id="Vector" d="M7.3335 8.44444V6.11111C7.3335 5.28599 7.66127 4.49467 8.24472 3.91122C8.82817 3.32778 9.61949 3 10.4446 3C11.2697 3 12.061 3.32778 12.6445 3.91122C13.2279 4.49467 13.5557 5.28599 13.5557 6.11111V8.44444" stroke="#D0E8FF" stroke-width="1.25" stroke-linecap="round"/>
<path id="Vector_2" d="M5 8.44531H15.8889V15.4453C15.8889 15.8579 15.725 16.2535 15.4333 16.5453C15.1416 16.837 14.7459 17.0009 14.3333 17.0009H6.55556C6.143 17.0009 5.74733 16.837 5.45561 16.5453C5.16389 16.2535 5 15.8579 5 15.4453V8.44531Z" stroke="#D0E8FF" stroke-width="1.25" stroke-linejoin="round"/>
<path id="Vector_3" d="M12.3887 12.7217H12.397V12.73H12.3887V12.7217Z" stroke="#D0E8FF" stroke-width="1.875" stroke-linejoin="round"/>
</g>
</g>
</svg>
