<svg width="20" height="20" viewBox="0 0 20 20" fill="none" xmlns="http://www.w3.org/2000/svg">
<g id="mdi:password-check-outline">
<path id="Vector" d="M11.6663 12.4999C11.6663 13.4249 10.9247 14.1666 9.99967 14.1666C9.55765 14.1666 9.13372 13.991 8.82116 13.6784C8.5086 13.3659 8.33301 12.9419 8.33301 12.4999C8.33301 11.5749 9.07467 10.8333 9.99967 10.8333C10.4417 10.8333 10.8656 11.0088 11.1782 11.3214C11.4907 11.634 11.6663 12.0579 11.6663 12.4999ZM10.908 16.6666C11.008 17.2666 11.2163 17.8249 11.508 18.3333H4.99967C4.55765 18.3333 4.13372 18.1577 3.82116 17.8451C3.5086 17.5325 3.33301 17.1086 3.33301 16.6666V8.33325C3.33301 7.40825 4.07467 6.66658 4.99967 6.66658H5.83301V4.99992C5.83301 2.69992 7.69967 0.833252 9.99967 0.833252C12.2997 0.833252 14.1663 2.69992 14.1663 4.99992V6.66658H14.9997C15.4417 6.66658 15.8656 6.84218 16.1782 7.15474C16.4907 7.4673 16.6663 7.89122 16.6663 8.33325V10.9083C16.3913 10.8666 16.1163 10.8333 15.833 10.8333C15.5497 10.8333 15.2747 10.8666 14.9997 10.9083V8.33325H4.99967V16.6666H10.908ZM7.49967 6.66658H12.4997V4.99992C12.4997 3.61659 11.383 2.49992 9.99967 2.49992C8.61634 2.49992 7.49967 3.61659 7.49967 4.99992V6.66658ZM17.783 13.1999L14.7913 16.1916L13.4663 14.8666L12.4997 15.8333L14.7913 18.3333L18.7497 14.3749L17.783 13.1999Z" fill="#4289F0"/>
</g>
</svg>
