<svg width="16" height="16" viewBox="0 0 16 16" fill="none" xmlns="http://www.w3.org/2000/svg">
<g id="ph:phone-light">
<path id="Vector" d="M13.8494 10.0188L10.8969 8.69566C10.7631 8.63834 10.6171 8.61529 10.4722 8.62861C10.3273 8.64192 10.188 8.69118 10.0669 8.77191C10.0546 8.77983 10.0429 8.7886 10.0319 8.79816L8.48876 10.1107C8.47275 10.1194 8.45492 10.1243 8.4367 10.1249C8.41847 10.1256 8.40035 10.122 8.38376 10.1144C7.39188 9.63566 6.36438 8.61441 5.88376 7.63629C5.87575 7.61994 5.87159 7.60198 5.87159 7.58379C5.87159 7.56559 5.87575 7.54763 5.88376 7.53129L7.20063 5.96879C7.2101 5.95724 7.21886 5.94513 7.22688 5.93254C7.3065 5.81098 7.35459 5.6715 7.36681 5.5267C7.37903 5.38191 7.355 5.23635 7.29688 5.10316L5.98313 2.15566C5.90853 1.98167 5.7795 1.83656 5.61542 1.74213C5.45134 1.64769 5.26106 1.60902 5.07313 1.63191C4.2564 1.73928 3.5067 2.14037 2.96415 2.76022C2.42159 3.38008 2.1233 4.17628 2.12501 5.00004C2.12501 9.89379 6.10626 13.875 11 13.875C11.8237 13.8766 12.6199 13.5783 13.2397 13.0357C13.8595 12.4932 14.2606 11.7436 14.3681 10.9269C14.391 10.7399 14.3528 10.5504 14.2594 10.3868C14.1659 10.2232 14.0221 10.0941 13.8494 10.0188ZM11 13.125C6.52001 13.125 2.87501 9.48004 2.87501 5.00004C2.87292 4.35874 3.10438 3.73862 3.52616 3.25554C3.94794 2.77246 4.53117 2.45947 5.16688 2.37504H5.18126C5.20644 2.37551 5.2309 2.38358 5.25142 2.39819C5.27194 2.4128 5.28757 2.43327 5.29626 2.45691L6.61501 5.40129C6.62253 5.41766 6.62642 5.43546 6.62642 5.45347C6.62642 5.47149 6.62253 5.48929 6.61501 5.50566L5.29563 7.07191C5.28584 7.08313 5.27686 7.09504 5.26876 7.10754C5.1862 7.23357 5.13758 7.37879 5.12762 7.52913C5.11765 7.67947 5.14668 7.82983 5.21188 7.96566C5.76626 9.10066 6.91001 10.2357 8.05751 10.79C8.19413 10.8549 8.34523 10.8832 8.49606 10.8722C8.64689 10.8613 8.79231 10.8114 8.91813 10.7275C8.93001 10.7194 8.94188 10.7107 8.95313 10.7013L10.4956 9.38879C10.5109 9.3806 10.5277 9.3758 10.5449 9.37472C10.5622 9.37365 10.5795 9.37631 10.5956 9.38253L13.5488 10.7057C13.5729 10.7159 13.5932 10.7335 13.6067 10.756C13.6203 10.7784 13.6265 10.8045 13.6244 10.8307C13.5404 11.4667 13.2277 12.0503 12.7447 12.4726C12.2617 12.8948 11.6415 13.1268 11 13.125Z" fill="#D0E8FF" stroke="#D0E8FF" stroke-width="0.32"/>
</g>
</svg>
