<svg width="238" height="87" viewBox="0 0 238 87" fill="none" xmlns="http://www.w3.org/2000/svg">
<path d="M9.64438 25.9556L7.02216 32.6222H-6.20782e-05L13.1999 1.51111H19.9555L33.1555 32.6222H25.9999L23.3777 25.9556H9.64438ZM16.5333 8.57778L11.8222 20.4889H21.1999L16.5333 8.57778ZM46.5267 1.51111C49.1341 1.51111 51.4007 1.97037 53.3267 2.88889C55.2526 3.80741 56.7341 5.11111 57.7711 6.8C58.8378 8.48889 59.3711 10.4889 59.3711 12.8C59.3711 15.0815 58.8378 17.0815 57.7711 18.8C56.7341 20.4889 55.2526 21.7926 53.3267 22.7111C51.4007 23.6 49.1341 24.0444 46.5267 24.0444H40.5711V32.6222H33.7267V1.51111H46.5267ZM46.1267 18.1778C48.2007 18.1778 49.7711 17.7185 50.8378 16.8C51.9045 15.8519 52.4378 14.5185 52.4378 12.8C52.4378 11.0815 51.9045 9.74815 50.8378 8.8C49.7711 7.85185 48.2007 7.37778 46.1267 7.37778H40.5711V18.1778H46.1267ZM74.897 1.51111C77.5044 1.51111 79.7711 1.97037 81.697 2.88889C83.6229 3.80741 85.1044 5.11111 86.1414 6.8C87.2081 8.48889 87.7414 10.4889 87.7414 12.8C87.7414 15.0815 87.2081 17.0815 86.1414 18.8C85.1044 20.4889 83.6229 21.7926 81.697 22.7111C79.7711 23.6 77.5044 24.0444 74.897 24.0444H68.9414V32.6222H62.097V1.51111H74.897ZM74.497 18.1778C76.5711 18.1778 78.1414 17.7185 79.2081 16.8C80.2748 15.8519 80.8081 14.5185 80.8081 12.8C80.8081 11.0815 80.2748 9.74815 79.2081 8.8C78.1414 7.85185 76.5711 7.37778 74.497 7.37778H68.9414V18.1778H74.497ZM129.212 32.9333H96.3675V26.6222H109.567V21.8222C107.167 21.5259 105.064 20.8889 103.256 19.9111C101.479 18.9037 100.101 17.6444 99.123 16.1333C98.1452 14.5926 97.6564 12.8889 97.6564 11.0222C97.6564 8.88889 98.2934 6.99259 99.5675 5.33333C100.842 3.64444 102.619 2.34074 104.901 1.42222C107.212 0.503703 109.849 0.0444436 112.812 0.0444436C115.775 0.0444436 118.397 0.503703 120.679 1.42222C122.99 2.34074 124.782 3.64444 126.056 5.33333C127.33 6.99259 127.967 8.88889 127.967 11.0222C127.967 12.8889 127.479 14.5926 126.501 16.1333C125.523 17.6444 124.13 18.9037 122.323 19.9111C120.516 20.8889 118.427 21.5259 116.056 21.8222V26.6222H129.212V32.9333ZM104.456 11.0222C104.456 12.4741 105.227 13.6593 106.767 14.5778C108.338 15.4963 110.353 15.9556 112.812 15.9556C115.271 15.9556 117.271 15.4963 118.812 14.5778C120.382 13.6593 121.167 12.4741 121.167 11.0222C121.167 9.57037 120.382 8.38519 118.812 7.46667C117.271 6.54815 115.271 6.08889 112.812 6.08889C110.353 6.08889 108.338 6.54815 106.767 7.46667C105.227 8.38519 104.456 9.57037 104.456 11.0222ZM132.052 15.3333V10.0444H136.985V5.28889H132.407V0H161.207V5.28889H156.585V10.0444H161.518V15.3333H132.052ZM150.185 10.0444V5.28889H143.429V10.0444H150.185ZM163.207 22.9333H130.363V17.3778H163.207V22.9333ZM161.696 28.5778V34.1333H132.274V24.4889H138.807V28.5778H161.696ZM196.925 34.1333V0H203.369V34.1333H196.925ZM191.947 10.0444C191.947 14.6074 191.177 18.5926 189.636 22C188.095 25.3778 185.918 27.9852 183.103 29.8222C180.288 31.6296 176.999 32.5333 173.236 32.5333V26.1333C177.118 26.1037 180.095 24.6667 182.169 21.8222C184.273 18.9778 185.325 15.0519 185.325 10.0444V6.93333H173.236V0.799999H191.947V10.0444ZM237.498 20.1778H231.187V13.0222H221.409V8.08889H231.187V6.53333H221.409V1.64444H231.187V0H237.498V20.1778ZM228.031 18.8889C227.202 19.1852 226.091 19.4074 224.698 19.5556C223.305 19.7037 221.824 19.7778 220.254 19.7778H206.876V0.177777H213.365V14.7556H220.565C223.854 14.7556 226.342 14.4889 228.031 13.9556V18.8889ZM237.498 21.3778V34.1333H208.476V21.3778H237.498ZM231.142 29.0667V26.4889H214.876V29.0667H231.142Z" fill="#333333"/>
<path d="M9.64438 25.9556L7.02216 32.6222H-6.20782e-05L13.1999 1.51111H19.9555L33.1555 32.6222H25.9999L23.3777 25.9556H9.64438ZM16.5333 8.57778L11.8222 20.4889H21.1999L16.5333 8.57778ZM46.5267 1.51111C49.1341 1.51111 51.4007 1.97037 53.3267 2.88889C55.2526 3.80741 56.7341 5.11111 57.7711 6.8C58.8378 8.48889 59.3711 10.4889 59.3711 12.8C59.3711 15.0815 58.8378 17.0815 57.7711 18.8C56.7341 20.4889 55.2526 21.7926 53.3267 22.7111C51.4007 23.6 49.1341 24.0444 46.5267 24.0444H40.5711V32.6222H33.7267V1.51111H46.5267ZM46.1267 18.1778C48.2007 18.1778 49.7711 17.7185 50.8378 16.8C51.9045 15.8519 52.4378 14.5185 52.4378 12.8C52.4378 11.0815 51.9045 9.74815 50.8378 8.8C49.7711 7.85185 48.2007 7.37778 46.1267 7.37778H40.5711V18.1778H46.1267ZM74.897 1.51111C77.5044 1.51111 79.7711 1.97037 81.697 2.88889C83.6229 3.80741 85.1044 5.11111 86.1414 6.8C87.2081 8.48889 87.7414 10.4889 87.7414 12.8C87.7414 15.0815 87.2081 17.0815 86.1414 18.8C85.1044 20.4889 83.6229 21.7926 81.697 22.7111C79.7711 23.6 77.5044 24.0444 74.897 24.0444H68.9414V32.6222H62.097V1.51111H74.897ZM74.497 18.1778C76.5711 18.1778 78.1414 17.7185 79.2081 16.8C80.2748 15.8519 80.8081 14.5185 80.8081 12.8C80.8081 11.0815 80.2748 9.74815 79.2081 8.8C78.1414 7.85185 76.5711 7.37778 74.497 7.37778H68.9414V18.1778H74.497ZM129.212 32.9333H96.3675V26.6222H109.567V21.8222C107.167 21.5259 105.064 20.8889 103.256 19.9111C101.479 18.9037 100.101 17.6444 99.123 16.1333C98.1452 14.5926 97.6564 12.8889 97.6564 11.0222C97.6564 8.88889 98.2934 6.99259 99.5675 5.33333C100.842 3.64444 102.619 2.34074 104.901 1.42222C107.212 0.503703 109.849 0.0444436 112.812 0.0444436C115.775 0.0444436 118.397 0.503703 120.679 1.42222C122.99 2.34074 124.782 3.64444 126.056 5.33333C127.33 6.99259 127.967 8.88889 127.967 11.0222C127.967 12.8889 127.479 14.5926 126.501 16.1333C125.523 17.6444 124.13 18.9037 122.323 19.9111C120.516 20.8889 118.427 21.5259 116.056 21.8222V26.6222H129.212V32.9333ZM104.456 11.0222C104.456 12.4741 105.227 13.6593 106.767 14.5778C108.338 15.4963 110.353 15.9556 112.812 15.9556C115.271 15.9556 117.271 15.4963 118.812 14.5778C120.382 13.6593 121.167 12.4741 121.167 11.0222C121.167 9.57037 120.382 8.38519 118.812 7.46667C117.271 6.54815 115.271 6.08889 112.812 6.08889C110.353 6.08889 108.338 6.54815 106.767 7.46667C105.227 8.38519 104.456 9.57037 104.456 11.0222ZM132.052 15.3333V10.0444H136.985V5.28889H132.407V0H161.207V5.28889H156.585V10.0444H161.518V15.3333H132.052ZM150.185 10.0444V5.28889H143.429V10.0444H150.185ZM163.207 22.9333H130.363V17.3778H163.207V22.9333ZM161.696 28.5778V34.1333H132.274V24.4889H138.807V28.5778H161.696ZM196.925 34.1333V0H203.369V34.1333H196.925ZM191.947 10.0444C191.947 14.6074 191.177 18.5926 189.636 22C188.095 25.3778 185.918 27.9852 183.103 29.8222C180.288 31.6296 176.999 32.5333 173.236 32.5333V26.1333C177.118 26.1037 180.095 24.6667 182.169 21.8222C184.273 18.9778 185.325 15.0519 185.325 10.0444V6.93333H173.236V0.799999H191.947V10.0444ZM237.498 20.1778H231.187V13.0222H221.409V8.08889H231.187V6.53333H221.409V1.64444H231.187V0H237.498V20.1778ZM228.031 18.8889C227.202 19.1852 226.091 19.4074 224.698 19.5556C223.305 19.7037 221.824 19.7778 220.254 19.7778H206.876V0.177777H213.365V14.7556H220.565C223.854 14.7556 226.342 14.4889 228.031 13.9556V18.8889ZM237.498 21.3778V34.1333H208.476V21.3778H237.498ZM231.142 29.0667V26.4889H214.876V29.0667H231.142Z" fill="url(#paint0_linear_2_2137)"/>
<path d="M34.2527 55.9111V52H63.186V60.5778H40.5638V61.7778H63.4972V65.6889H34.3416V57.1111H56.9638V55.9111H34.2527ZM51.8972 72.5778H63.2749V81.0667H40.4749V82.2667H63.586V86.1333H34.2527V77.6444H57.0527V76.4444H34.1638V72.5778H45.586V71.2444H32.2972V66.7556H65.1416V71.2444H51.8972V72.5778ZM92.6036 76.0444V52H98.6036V76.0444H92.6036ZM82.2036 64.2222V58.0889H84.4258V52.1333H90.3814V72.8889H84.4258V64.2222H82.2036ZM82.9147 71.6889C82.0851 72.0741 80.9591 72.3704 79.5369 72.5778C78.1443 72.7852 76.6628 72.8889 75.0925 72.8889H66.9147V60.1333H74.9591V57.6889H66.9147V52.4H80.8258V65.0667H72.7814V67.5556H75.448C76.9295 67.5556 78.3369 67.4667 79.6703 67.2889C81.0036 67.0815 82.0851 66.8 82.9147 66.4444V71.6889ZM83.4036 81.9556C81.5369 83.3481 79.2999 84.3852 76.6925 85.0667C74.1147 85.7778 71.374 86.1333 68.4703 86.1333V80.0889C70.6036 80.0889 72.6184 79.8222 74.5147 79.2889C76.4406 78.7556 78.0554 78 79.3591 77.0222C80.6628 76.0148 81.4925 74.8889 81.848 73.6444L88.2036 75.0222C88.1147 75.5259 87.8628 76.2519 87.448 77.2L100.115 80.7556L98.0258 86.5778L83.4036 81.9556ZM132.855 86.1333V52H139.299V86.1333H132.855ZM119.077 52.4C122.247 52.4 124.736 53.7481 126.544 56.4444C128.351 59.1407 129.255 63.2148 129.255 68.6667C129.255 74.1185 128.351 78.1926 126.544 80.8889C124.736 83.5852 122.247 84.9333 119.077 84.9333C115.877 84.9333 113.373 83.5852 111.566 80.8889C109.758 78.1926 108.855 74.1185 108.855 68.6667C108.855 63.2148 109.758 59.1407 111.566 56.4444C113.373 53.7481 115.877 52.4 119.077 52.4ZM119.077 58.5778C116.499 58.5778 115.21 61.9407 115.21 68.6667C115.21 75.3926 116.499 78.7556 119.077 78.7556C121.655 78.7556 122.944 75.3926 122.944 68.6667C122.944 65.0815 122.588 62.5037 121.877 60.9333C121.195 59.363 120.262 58.5778 119.077 58.5778ZM168.183 77.2889V52H174.183V77.2889H168.183ZM142.494 72.8889V52.4H148.228V57.2889H151.605V52.4H157.339V59.2889H160.005V52.1333H165.961V76.7111H160.005V65.6444H157.339V72.8889H142.494ZM151.605 62.5333H148.228V67.5111H151.605V62.5333ZM174.583 86.1333H144.317V75.2H150.894V80.0889H174.583V86.1333ZM177.69 75.6V52.8H206.934V58.7111H184.09V61.3778H206.401V66.9778H184.09V69.6889H207.29V75.6H177.69ZM208.712 84.9333H175.867V78.7556H208.712V84.9333Z" fill="#26C48C"/>
<defs>
<linearGradient id="paint0_linear_2_2137" x1="120.524" y1="-9.37778" x2="120.524" y2="94.6222" gradientUnits="userSpaceOnUse">
<stop stop-opacity="0"/>
<stop offset="0.456731" stop-color="#26C48C"/>
</linearGradient>
</defs>
</svg>
