<svg width="60" height="50" viewBox="0 0 60 50" fill="none" xmlns="http://www.w3.org/2000/svg">
<g id="_?&#235;&#141;&#137;&#236;&#148;&#160;??1" clip-path="url(#clip0_196_694)">
<g id="Group">
<path id="Vector" d="M37.533 14.5669H18.7084C9.79949 14.5669 2.57739 21.7883 2.57739 30.6964C2.57739 39.6044 9.79949 46.8258 18.7084 46.8258H37.533C46.4419 46.8258 53.664 39.6044 53.664 30.6964C53.664 21.7883 46.4419 14.5669 37.533 14.5669Z" fill="#26C48C"/>
<path id="Vector_2" d="M36.7585 40.8755H22.3293V42.4059H36.7585V40.8755Z" fill="white"/>
<path id="Vector_3" d="M4.15764 26.1096H1C0.447715 26.1096 0 26.5573 0 27.1096V36.8605C0 37.4127 0.447715 37.8605 1 37.8605H4.15764C4.70992 37.8605 5.15764 37.4127 5.15764 36.8605V27.1096C5.15764 26.5573 4.70992 26.1096 4.15764 26.1096Z" fill="#26C48C"/>
<path id="Vector_4" d="M12.0847 18.418C11.4311 18.6623 10.7346 18.179 10.7346 17.4813V12.8886C10.7346 12.0718 11.6608 11.5995 12.3219 12.0792L16.4996 15.1105C17.1452 15.5789 17.0095 16.5774 16.2625 16.8566L12.0847 18.418Z" fill="#26C48C"/>
<g id="Group_2">
<path id="Vector_5" d="M18.8408 42.5865H14.7129C14.1606 42.5865 13.7129 43.0343 13.7129 43.5865V48.8593C13.7129 49.4116 14.1606 49.8593 14.7129 49.8593H18.8408C19.3931 49.8593 19.8408 49.4116 19.8408 48.8593V43.5865C19.8408 43.0343 19.3931 42.5865 18.8408 42.5865Z" fill="#26C48C"/>
<path id="Vector_6" d="M41.5313 42.5865H37.4033C36.851 42.5865 36.4033 43.0343 36.4033 43.5865V48.8593C36.4033 49.4116 36.851 49.8593 37.4033 49.8593H41.5313C42.0835 49.8593 42.5313 49.4116 42.5313 48.8593V43.5865C42.5313 43.0343 42.0835 42.5865 41.5313 42.5865Z" fill="#26C48C"/>
</g>
<path id="Vector_7" d="M58.875 22.8424L51.8479 24.6441C51.4386 24.749 51.1918 25.166 51.2967 25.5754C51.4017 25.9847 51.8187 26.2315 52.228 26.1266L59.2551 24.3249C59.6645 24.22 59.9113 23.803 59.8063 23.3936C59.7014 22.9843 59.2844 22.7375 58.875 22.8424Z" fill="#26C48C"/>
<path id="Vector_8" d="M14.2209 25.274C14.2209 26.2382 13.4404 27.0187 12.4762 27.0187C11.512 27.0187 10.7314 26.2382 10.7314 25.274C10.7314 24.3098 11.512 23.5293 12.4762 23.5293C13.4404 23.5293 14.2209 24.3098 14.2209 25.274Z" fill="white"/>
</g>
<g id="Group_3">
<path id="Vector_9" d="M39.7918 14.726C40.2296 13.5415 40.4714 12.2651 40.4714 10.9275C40.4714 4.89134 35.577 0 29.5439 0C23.5109 0 18.6165 4.89134 18.6165 10.9275C18.6165 12.2039 18.8368 13.4282 19.2378 14.5638H37.536C38.3012 14.5638 39.0542 14.622 39.7918 14.723V14.726Z" fill="#333333"/>
<g id="Group_4">
<path id="Vector_10" d="M39.7918 14.726C40.2296 13.5415 40.4714 12.2651 40.4714 10.9275C40.4714 4.89134 35.577 0 29.5439 0C23.5109 0 18.6165 4.89134 18.6165 10.9275C18.6165 12.2039 18.8368 13.4282 19.2378 14.5638H37.536C38.3012 14.5638 39.0542 14.622 39.7918 14.723V14.726Z" fill="#4289F0"/>
</g>
<path id="Vector_11" d="M29.5439 21.8549C34.2424 21.8549 38.2491 18.8889 39.7918 14.7261C39.0541 14.622 38.3012 14.5669 37.5359 14.5669H19.2378C20.7376 18.8124 24.7842 21.858 29.5439 21.858V21.8549Z" fill="white"/>
</g>
</g>
<defs>
<clipPath id="clip0_196_694">
<rect width="60" height="49.8592" fill="white"/>
</clipPath>
</defs>
</svg>
