<svg width="50" height="39" viewBox="0 0 50 39" fill="none" xmlns="http://www.w3.org/2000/svg">
<g id="_?&#235;&#141;&#137;&#236;&#148;&#160;??1" clip-path="url(#clip0_196_682)">
<g id="Group">
<path id="Vector" d="M43.6551 5.23755C43.1028 5.23755 42.6551 5.68526 42.6551 6.23755V9.81783C42.6551 10.3701 42.2074 10.8178 41.6551 10.8178H4.64176C4.08947 10.8178 3.64176 10.3701 3.64176 9.81783V6.23755C3.64176 5.68526 3.19404 5.23755 2.64176 5.23755H1C0.447716 5.23755 0 5.68526 0 6.23755V37.6757C0 38.228 0.447715 38.6757 1 38.6757H45.2969C45.8492 38.6757 46.2969 38.228 46.2969 37.6757V6.23755C46.2969 5.68526 45.8492 5.23755 45.2969 5.23755H43.6551Z" fill="#26C48C"/>
<path id="Vector_2" d="M42.6552 5.23755H3.64185V10.8178H42.6552V5.23755Z" fill="#26C48C"/>
<g id="Group_2">
<g id="Vector_3">
<path d="M42.6552 1C42.6552 0.447715 42.2075 0 41.6552 0H4.64185C4.08956 0 3.64185 0.447716 3.64185 1V5.23758H42.6552V1Z" fill="#4289F0"/>
<path d="M42.6552 5.23758H3.64185V9.81786C3.64185 10.3701 4.08956 10.8179 4.64185 10.8179H41.6552C42.2075 10.8179 42.6552 10.3701 42.6552 9.81786V5.23758Z" fill="#4289F0"/>
</g>
</g>
</g>
<path id="Vector_4" d="M49 17.26H40.425C39.8728 17.26 39.425 17.7077 39.425 18.26V23.188C39.425 23.7403 39.8728 24.188 40.425 24.188H49C49.5522 24.188 50 23.7403 50 23.188V18.26C50 17.7077 49.5522 17.26 49 17.26Z" fill="#4289F0"/>
<path id="Vector_5" d="M36.4175 33.2848H9.88179C9.52868 33.2848 9.24243 33.571 9.24243 33.9241C9.24243 34.2772 9.52868 34.5635 9.88178 34.5635H36.4175C36.7706 34.5635 37.0569 34.2772 37.0569 33.9241C37.0569 33.571 36.7706 33.2848 36.4175 33.2848Z" fill="white"/>
</g>
<defs>
<clipPath id="clip0_196_682">
<rect width="50" height="38.6758" fill="white"/>
</clipPath>
</defs>
</svg>
