<svg width="24" height="24" viewBox="0 0 24 24" fill="none" xmlns="http://www.w3.org/2000/svg">
<g id="jam:crown-f">
<path id="Vector" d="M4.04889 5.802L7.85389 9.15L11.2439 4.976C11.3388 4.85931 11.4588 4.76554 11.595 4.70167C11.7312 4.6378 11.8801 4.60548 12.0305 4.60711C12.1809 4.60875 12.329 4.6443 12.4638 4.71111C12.5986 4.77792 12.7165 4.87428 12.8089 4.993L16.0439 9.149L19.9719 5.753C20.1261 5.61991 20.3174 5.53711 20.52 5.51568C20.7226 5.49425 20.9269 5.53522 21.1056 5.6331C21.2843 5.73098 21.4288 5.8811 21.5198 6.06336C21.6108 6.24563 21.644 6.45136 21.6149 6.653L20.1149 17H3.92189L2.39889 6.7C2.36864 6.49724 2.40143 6.29007 2.49284 6.10657C2.58424 5.92307 2.72984 5.77209 2.90991 5.67409C3.08998 5.57609 3.29581 5.5358 3.49954 5.55868C3.70327 5.58156 3.89504 5.6665 4.04889 5.802ZM3.99989 18H19.9999V19C19.9999 19.2652 19.8945 19.5196 19.707 19.7071C19.5195 19.8946 19.2651 20 18.9999 20H4.99989C4.73467 20 4.48032 19.8946 4.29278 19.7071C4.10525 19.5196 3.99989 19.2652 3.99989 19V18Z" fill="#26C48C"/>
</g>
</svg>
