<svg width="40" height="32" viewBox="0 0 40 32" fill="none" xmlns="http://www.w3.org/2000/svg">
<g clip-path="url(#clip0_1_716)">
<path d="M35.1241 4.69812C34.5718 4.69812 34.1241 5.14584 34.1241 5.69812V8.17091C34.1241 8.72319 33.6764 9.17091 33.1241 9.17091H3.91341C3.36112 9.17091 2.91341 8.72319 2.91341 8.17091V5.69812C2.91341 5.14584 2.46569 4.69812 1.91341 4.69812H1C0.447715 4.69812 0 5.14584 0 5.69812V30.5C0 31.0523 0.447715 31.5 1 31.5H36.0375C36.5898 31.5 37.0375 31.0523 37.0375 30.5V5.69812C37.0375 5.14584 36.5898 4.69812 36.0375 4.69812H35.1241Z" fill="#26C48C"/>
<path d="M34.124 4.69812H2.91333V9.17091H34.124V4.69812Z" fill="#26C48C"/>
<path d="M34.124 1.5C34.124 0.947715 33.6763 0.5 33.124 0.5H3.91333C3.36105 0.5 2.91333 0.947715 2.91333 1.5V4.69811H34.124V1.5Z" fill="#4289F0"/>
<path d="M34.124 4.69811H2.91333V8.1709C2.91333 8.72318 3.36104 9.1709 3.91333 9.1709H33.124C33.6763 9.1709 34.124 8.72318 34.124 8.1709V4.69811Z" fill="#4289F0"/>
<path d="M39 14.3345H32.54C31.9878 14.3345 31.54 14.7822 31.54 15.3345V18.8875C31.54 19.4398 31.9878 19.8875 32.54 19.8875H39C39.5522 19.8875 40 19.4398 40 18.8875V15.3345C40 14.7822 39.5522 14.3345 39 14.3345Z" fill="#4289F0"/>
<path d="M29.1331 27.179H7.90651C7.62348 27.179 7.39404 27.4084 7.39404 27.6914C7.39404 27.9744 7.62348 28.2039 7.90651 28.2039H29.1331C29.4161 28.2039 29.6456 27.9744 29.6456 27.6914C29.6456 27.4084 29.4161 27.179 29.1331 27.179Z" fill="white"/>
</g>
<defs>
<clipPath id="clip0_1_716">
<rect width="40" height="31" fill="white" transform="translate(0 0.5)"/>
</clipPath>
</defs>
</svg>
