<svg width="50" height="42" viewBox="0 0 50 42" fill="none" xmlns="http://www.w3.org/2000/svg">
<path d="M30.65 13.1431H16.5306C9.84855 13.1431 4.43164 18.6182 4.43164 25.3721C4.43164 32.1261 9.84855 37.6012 16.5306 37.6012H30.65C37.3321 37.6012 42.749 32.1261 42.749 25.3721C42.749 18.6182 37.3321 13.1431 30.65 13.1431Z" fill="#26C48C"/>
<path d="M30.0691 33.0902H19.2466V34.2506H30.0691V33.0902Z" fill="white"/>
<path d="M5.46694 21.8949H3.39859C2.9015 21.8949 2.49854 22.2979 2.49854 22.795V29.9041C2.49854 30.4012 2.9015 30.8042 3.39859 30.8042H5.46694C5.96403 30.8042 6.367 30.4012 6.367 29.9041V22.795C6.367 22.2979 5.96403 21.8949 5.46694 21.8949Z" fill="#26C48C"/>
<path d="M11.768 15.9856C11.1792 16.208 10.5498 15.773 10.5498 15.1436V12.1604C10.5498 11.4231 11.3877 10.9986 11.9822 11.4346L14.6667 13.4036C15.2427 13.8261 15.1207 14.7189 14.4525 14.9714L11.768 15.9856Z" fill="#26C48C"/>
<path d="M16.4799 34.3873H13.6837C13.1867 34.3873 12.7837 34.7903 12.7837 35.2874V39.0013C12.7837 39.4984 13.1867 39.9014 13.6837 39.9014H16.4799C16.977 39.9014 17.3799 39.4984 17.3799 39.0013V35.2874C17.3799 34.7903 16.977 34.3873 16.4799 34.3873Z" fill="#26C48C"/>
<path d="M33.4987 34.3873H30.7025C30.2055 34.3873 29.8025 34.7903 29.8025 35.2874V39.0013C29.8025 39.4984 30.2055 39.9014 30.7025 39.9014H33.4987C33.9958 39.9014 34.3987 39.4984 34.3987 39.0013V35.2874C34.3987 34.7903 33.9958 34.3873 33.4987 34.3873Z" fill="#26C48C"/>
<path d="M46.6521 19.4194L41.3921 20.7826C41.0821 20.863 40.8946 21.1797 40.9734 21.4901C41.0521 21.8005 41.3672 21.987 41.6772 21.9067L46.9372 20.5434C47.2472 20.4631 47.4347 20.1463 47.3559 19.836C47.2772 19.5256 46.9621 19.3391 46.6521 19.4194Z" fill="#26C48C"/>
<path d="M13.1648 21.2612C13.1648 21.9922 12.5794 22.584 11.8562 22.584C11.133 22.584 10.5476 21.9922 10.5476 21.2612C10.5476 20.5301 11.133 19.9384 11.8562 19.9384C12.5794 19.9384 13.1648 20.5301 13.1648 21.2612Z" fill="white"/>
<path d="M32.3442 13.2639C32.6725 12.3658 32.8539 11.398 32.8539 10.3839C32.8539 5.8074 29.1828 2.09888 24.6578 2.09888C20.1327 2.09888 16.4617 5.8074 16.4617 10.3839C16.4617 11.3516 16.627 12.2799 16.9277 13.1409H30.6522C31.2261 13.1409 31.7909 13.185 32.3442 13.2616V13.2639Z" fill="#333333"/>
<path d="M32.3442 13.2639C32.6725 12.3658 32.8539 11.398 32.8539 10.3839C32.8539 5.8074 29.1828 2.09888 24.6578 2.09888C20.1327 2.09888 16.4617 5.8074 16.4617 10.3839C16.4617 11.3516 16.627 12.2799 16.9277 13.1409H30.6522C31.2261 13.1409 31.7909 13.185 32.3442 13.2616V13.2639Z" fill="#4289F0"/>
<path d="M24.6578 18.6688C28.1819 18.6688 31.1871 16.4201 32.3442 13.2639C31.7909 13.185 31.2261 13.1432 30.6522 13.1432H16.9277C18.0527 16.362 21.0878 18.6712 24.6578 18.6712V18.6688Z" fill="white"/>
</svg>
