<svg width="40" height="42" viewBox="0 0 40 42" fill="none" xmlns="http://www.w3.org/2000/svg">
<g clip-path="url(#clip0_1_760)">
<path d="M2.18555 21.6414C2.18555 13.1768 2.18555 8.94455 4.77326 6.31397C7.36451 3.68518 11.5289 3.68518 19.8612 3.68518C28.1935 3.68518 32.3596 3.68518 34.9473 6.31397C37.5368 8.94635 37.5368 13.1768 37.5368 21.6414C37.5368 30.1059 37.5368 34.3382 34.9473 36.967C32.3614 39.5976 28.1935 39.5976 19.8612 39.5976C11.5289 39.5976 7.36274 39.5976 4.77326 36.967C2.18555 34.34 2.18555 30.1059 2.18555 21.6414Z" fill="#4289F0"/>
<path fill-rule="evenodd" clip-rule="evenodd" d="M10.8714 20.2947H2.18555V22.9881H16.6142C16.3157 24.2664 15.6014 25.4051 14.5868 26.2197C13.5722 27.0344 12.3166 27.4774 11.0234 27.4771C10.6718 27.4771 10.3346 27.619 10.086 27.8716C9.83736 28.1242 9.69769 28.4667 9.69769 28.8239C9.69769 29.181 9.83736 29.5236 10.086 29.7761C10.3346 30.0287 10.6718 30.1706 11.0234 30.1706C12.5831 30.171 14.1121 29.7301 15.4389 28.8972C16.7658 28.0644 17.8381 26.8725 18.5355 25.4553V39.5976H21.1869V25.4553C21.8843 26.8725 22.9566 28.0644 24.2834 28.8972C25.6103 29.7301 27.1393 30.171 28.699 30.1706C29.0506 30.1706 29.3878 30.0287 29.6364 29.7761C29.885 29.5236 30.0247 29.181 30.0247 28.8239C30.0247 28.4667 29.885 28.1242 29.6364 27.8716C29.3878 27.619 29.0506 27.4771 28.699 27.4771C27.4057 27.4774 26.1502 27.0344 25.1356 26.2197C24.121 25.4051 23.4066 24.2664 23.1082 22.9881H37.5368V20.2947H28.8528C29.4714 19.5082 29.9363 18.5798 30.1891 17.5528C31.14 13.6868 27.6915 10.1853 23.8877 11.1514C22.9018 11.4015 21.9807 11.8645 21.1869 12.5089V3.68518H18.5355V12.5089C17.7422 11.8647 16.8217 11.4017 15.8364 11.1514C12.0309 10.1853 8.58413 13.6868 9.53508 17.5528C9.78784 18.5798 10.2509 19.5082 10.8714 20.2947ZM18.5355 20.2947H16.3208C15.3485 20.2786 14.4086 19.9371 13.6467 19.3232C12.8849 18.7093 12.3436 17.8573 12.1069 16.8991C12.0003 16.4659 12.006 16.0119 12.1234 15.5815C12.2408 15.1511 12.466 14.759 12.7769 14.4433C13.0879 14.1276 13.474 13.8991 13.8978 13.78C14.3215 13.661 14.7684 13.6555 15.1948 13.764C16.138 14.0045 16.9767 14.5543 17.581 15.3283C18.1853 16.1022 18.5214 17.057 18.5373 18.0448L18.5355 20.2947ZM23.4016 20.2947H21.1869V18.0591C21.1996 17.0689 21.5343 16.1108 22.1389 15.334C22.7434 14.5571 23.5839 14.0051 24.5293 13.764C24.9557 13.6558 25.4023 13.6616 25.8258 13.7809C26.2492 13.9001 26.6351 14.1286 26.9458 14.4443C27.2566 14.7599 27.4815 15.1519 27.5989 15.5821C27.7162 16.0123 27.722 16.466 27.6155 16.8991C27.3787 17.8573 26.8375 18.7093 26.0756 19.3232C25.3138 19.9371 24.3739 20.2786 23.4016 20.2947Z" fill="#26C48C"/>
</g>
<defs>
<clipPath id="clip0_1_760">
<rect width="35.6296" height="37" fill="white" transform="translate(2.1853 3)"/>
</clipPath>
</defs>
</svg>
