<svg width="46" height="38" viewBox="0 0 46 38" fill="none" xmlns="http://www.w3.org/2000/svg">
<g clip-path="url(#clip0_1_748)">
<g clip-path="url(#clip1_1_748)">
<path d="M31.961 5.2862C34.3479 7.45115 34.3479 10.9338 34.3479 17.8971V20.9357C34.3479 27.901 34.3479 31.3837 31.961 33.5466C29.574 35.7095 25.735 35.7095 18.0548 35.7095C10.3747 35.7095 6.53356 35.7095 4.14866 33.5466C1.76376 31.3837 1.76172 27.901 1.76172 20.9357V17.8971C1.76172 10.9318 1.76172 7.44911 4.14866 5.2862C6.5356 3.12329 10.3747 3.12329 18.0548 3.12329C25.735 3.12329 29.5761 3.12329 31.961 5.2862Z" fill="#26C48C" stroke="#26C48C" stroke-width="2.57825" stroke-linecap="round" stroke-linejoin="round"/>
<path d="M17.2034 11.6017C16.8478 11.7917 16.5963 12.423 16.0934 13.6832L15.6663 14.7601C15.5167 15.1289 15.443 15.3145 15.3238 15.457C15.2183 15.5808 15.088 15.6789 14.9422 15.7443C14.7775 15.8213 14.5867 15.8348 14.203 15.8688L13.0886 15.9615C11.7857 16.0701 11.1332 16.1244 10.8513 16.4208C10.7311 16.5467 10.6409 16.7004 10.5882 16.8694C10.5354 17.0384 10.5216 17.218 10.5478 17.3937C10.6085 17.8077 11.105 18.2534 12.1001 19.1403L12.9477 19.8983C13.2404 20.1607 13.3856 20.2897 13.4767 20.4526C13.5582 20.5955 13.6086 20.7554 13.6241 20.9209C13.6415 21.1064 13.5959 21.3033 13.507 21.6924L13.2469 22.8259C12.9434 24.1563 12.7916 24.8192 12.9737 25.1903C13.0513 25.3493 13.1638 25.4869 13.3021 25.5919C13.4404 25.6969 13.6005 25.7663 13.7694 25.7943C14.1639 25.86 14.7233 25.5025 15.8376 24.7921L16.7915 24.1834C17.121 23.9753 17.2836 23.869 17.4592 23.8282C17.6148 23.792 17.7762 23.792 17.9318 23.8282C18.1052 23.869 18.2722 23.9753 18.5995 24.1834L19.5534 24.7921C20.6699 25.5025 21.227 25.86 21.6216 25.7943C21.7905 25.7663 21.9506 25.6969 22.0889 25.5919C22.2272 25.4869 22.3397 25.3493 22.4172 25.1903C22.5993 24.8192 22.4476 24.1563 22.1441 22.8259L21.8839 21.6947C21.7972 21.3033 21.7495 21.1064 21.7669 20.9209C21.7824 20.7554 21.8327 20.5955 21.9143 20.4526C22.0053 20.2897 22.1527 20.1585 22.4433 19.8983L23.2909 19.1403C24.286 18.2512 24.7824 17.8055 24.8453 17.396C24.8719 17.22 24.8582 17.0399 24.8055 16.8704C24.7528 16.701 24.6624 16.5469 24.5418 16.4208C24.26 16.1267 23.6074 16.0701 22.3023 15.9615L21.188 15.8688C20.8043 15.8371 20.6135 15.819 20.4488 15.7443C20.3029 15.6789 20.1727 15.5808 20.0672 15.457C19.948 15.3145 19.8721 15.1289 19.7268 14.7601L19.2976 13.6832C18.7946 12.423 18.5431 11.7917 18.1876 11.6017C18.0352 11.5206 17.8666 11.4784 17.6955 11.4784C17.5244 11.4784 17.3558 11.5206 17.2034 11.6017Z" fill="#4289F0"/>
</g>
<path d="M34.1689 22.9368L41.034 13.2693" stroke="#26C48C" stroke-width="2.57825"/>
<circle cx="41.3305" cy="13.2091" r="3.10345" fill="#26C48C" stroke="#26C48C" stroke-width="1.55172"/>
</g>
<defs>
<clipPath id="clip0_1_748">
<rect width="46" height="38" fill="white"/>
</clipPath>
<clipPath id="clip1_1_748">
<rect width="37.2414" height="37.2414" fill="white" transform="translate(0.209961 0.0187988)"/>
</clipPath>
</defs>
</svg>
