<svg width="25" height="24" viewBox="0 0 25 24" fill="none" xmlns="http://www.w3.org/2000/svg">
<path d="M22.5834 4.5V8.25C22.5834 8.44891 22.5044 8.63968 22.3637 8.78033C22.2231 8.92098 22.0323 9 21.8334 9C21.6345 9 21.4437 8.92098 21.303 8.78033C21.1624 8.63968 21.0834 8.44891 21.0834 8.25V5.25H18.0834C17.8845 5.25 17.6937 5.17098 17.553 5.03033C17.4124 4.88968 17.3334 4.69891 17.3334 4.5C17.3334 4.30109 17.4124 4.11032 17.553 3.96967C17.6937 3.82902 17.8845 3.75 18.0834 3.75H21.8334C22.0323 3.75 22.2231 3.82902 22.3637 3.96967C22.5044 4.11032 22.5834 4.30109 22.5834 4.5ZM7.58337 18.75H4.58337V15.75C4.58337 15.5511 4.50436 15.3603 4.3637 15.2197C4.22305 15.079 4.03229 15 3.83337 15C3.63446 15 3.4437 15.079 3.30304 15.2197C3.16239 15.3603 3.08337 15.5511 3.08337 15.75V19.5C3.08337 19.6989 3.16239 19.8897 3.30304 20.0303C3.4437 20.171 3.63446 20.25 3.83337 20.25H7.58337C7.78229 20.25 7.97305 20.171 8.1137 20.0303C8.25436 19.8897 8.33337 19.6989 8.33337 19.5C8.33337 19.3011 8.25436 19.1103 8.1137 18.9697C7.97305 18.829 7.78229 18.75 7.58337 18.75ZM21.8334 15C21.6345 15 21.4437 15.079 21.303 15.2197C21.1624 15.3603 21.0834 15.5511 21.0834 15.75V18.75H18.0834C17.8845 18.75 17.6937 18.829 17.553 18.9697C17.4124 19.1103 17.3334 19.3011 17.3334 19.5C17.3334 19.6989 17.4124 19.8897 17.553 20.0303C17.6937 20.171 17.8845 20.25 18.0834 20.25H21.8334C22.0323 20.25 22.2231 20.171 22.3637 20.0303C22.5044 19.8897 22.5834 19.6989 22.5834 19.5V15.75C22.5834 15.5511 22.5044 15.3603 22.3637 15.2197C22.2231 15.079 22.0323 15 21.8334 15ZM3.83337 9C4.03229 9 4.22305 8.92098 4.3637 8.78033C4.50436 8.63968 4.58337 8.44891 4.58337 8.25V5.25H7.58337C7.78229 5.25 7.97305 5.17098 8.1137 5.03033C8.25436 4.88968 8.33337 4.69891 8.33337 4.5C8.33337 4.30109 8.25436 4.11032 8.1137 3.96967C7.97305 3.82902 7.78229 3.75 7.58337 3.75H3.83337C3.63446 3.75 3.4437 3.82902 3.30304 3.96967C3.16239 4.11032 3.08337 4.30109 3.08337 4.5V8.25C3.08337 8.44891 3.16239 8.63968 3.30304 8.78033C3.4437 8.92098 3.63446 9 3.83337 9ZM8.33337 7.5C8.13446 7.5 7.9437 7.57902 7.80304 7.71967C7.66239 7.86032 7.58337 8.05109 7.58337 8.25V15.75C7.58337 15.9489 7.66239 16.1397 7.80304 16.2803C7.9437 16.421 8.13446 16.5 8.33337 16.5C8.53229 16.5 8.72305 16.421 8.8637 16.2803C9.00436 16.1397 9.08337 15.9489 9.08337 15.75V8.25C9.08337 8.05109 9.00436 7.86032 8.8637 7.71967C8.72305 7.57902 8.53229 7.5 8.33337 7.5ZM18.0834 15.75V8.25C18.0834 8.05109 18.0044 7.86032 17.8637 7.71967C17.7231 7.57902 17.5323 7.5 17.3334 7.5C17.1345 7.5 16.9437 7.57902 16.803 7.71967C16.6624 7.86032 16.5834 8.05109 16.5834 8.25V15.75C16.5834 15.9489 16.6624 16.1397 16.803 16.2803C16.9437 16.421 17.1345 16.5 17.3334 16.5C17.5323 16.5 17.7231 16.421 17.8637 16.2803C18.0044 16.1397 18.0834 15.9489 18.0834 15.75ZM14.3334 7.5C14.1345 7.5 13.9437 7.57902 13.803 7.71967C13.6624 7.86032 13.5834 8.05109 13.5834 8.25V15.75C13.5834 15.9489 13.6624 16.1397 13.803 16.2803C13.9437 16.421 14.1345 16.5 14.3334 16.5C14.5323 16.5 14.7231 16.421 14.8637 16.2803C15.0044 16.1397 15.0834 15.9489 15.0834 15.75V8.25C15.0834 8.05109 15.0044 7.86032 14.8637 7.71967C14.7231 7.57902 14.5323 7.5 14.3334 7.5ZM11.3334 7.5C11.1345 7.5 10.9437 7.57902 10.803 7.71967C10.6624 7.86032 10.5834 8.05109 10.5834 8.25V15.75C10.5834 15.9489 10.6624 16.1397 10.803 16.2803C10.9437 16.421 11.1345 16.5 11.3334 16.5C11.5323 16.5 11.7231 16.421 11.8637 16.2803C12.0044 16.1397 12.0834 15.9489 12.0834 15.75V8.25C12.0834 8.05109 12.0044 7.86032 11.8637 7.71967C11.7231 7.57902 11.5323 7.5 11.3334 7.5Z" fill="#4289F0"/>
</svg>
