<svg width="22" height="22" viewBox="0 0 22 22" fill="none" xmlns="http://www.w3.org/2000/svg">
<g id="eva:arrow-up-fill">
<path id="Vector" d="M7.14084 7.33313L14.8592 7.33313C15.1639 7.33269 15.4625 7.41855 15.7204 7.58077C15.9784 7.743 16.1851 7.97495 16.3167 8.24979C16.4707 8.57589 16.53 8.9387 16.4879 9.29687C16.4457 9.65505 16.3038 9.99418 16.0783 10.2756L12.2192 14.9506C12.0677 15.1254 11.8805 15.2655 11.6701 15.3616C11.4598 15.4576 11.2312 15.5073 11 15.5073C10.7688 15.5073 10.5402 15.4576 10.3299 15.3616C10.1195 15.2655 9.93228 15.1254 9.78083 14.9506L5.92167 10.2756C5.69616 9.99418 5.55425 9.65505 5.51212 9.29687C5.46998 8.9387 5.52931 8.57589 5.68334 8.24979C5.81492 7.97495 6.02164 7.743 6.27958 7.58077C6.53752 7.41855 6.83612 7.33268 7.14084 7.33313Z" fill="#4289F0"/>
</g>
</svg>
