<svg width="25" height="24" viewBox="0 0 25 24" fill="none" xmlns="http://www.w3.org/2000/svg">
<path fill-rule="evenodd" clip-rule="evenodd" d="M7.371 19.499C8.301 20 9.415 20 11.642 20H14.279C18.154 20 20.092 20 21.296 18.828C22.5 17.656 22.5 15.771 22.5 12C22.5 8.229 22.5 6.343 21.296 5.172C20.092 4.001 18.154 4 14.28 4H11.643C9.416 4 8.302 4 7.373 4.501C6.443 5.003 5.853 5.921 4.672 7.76L3.99 8.82C2.997 10.366 2.5 11.14 2.5 12C2.5 12.86 2.997 13.634 3.99 15.18L4.67 16.24C5.851 18.078 6.441 18.997 7.371 19.499ZM11.531 8.969C11.3903 8.8283 11.1995 8.74926 11.0005 8.74926C10.8015 8.74926 10.6107 8.8283 10.47 8.969C10.3293 9.1097 10.2503 9.30052 10.2503 9.4995C10.2503 9.69848 10.3293 9.8893 10.47 10.03L12.44 12L10.47 13.97C10.3963 14.0387 10.3372 14.1215 10.2962 14.2135C10.2552 14.3055 10.2332 14.4048 10.2314 14.5055C10.2296 14.6062 10.2482 14.7062 10.2859 14.7996C10.3236 14.893 10.3797 14.9778 10.451 15.049C10.5222 15.1203 10.607 15.1764 10.7004 15.2141C10.7938 15.2518 10.8938 15.2704 10.9945 15.2686C11.0952 15.2668 11.1945 15.2448 11.2865 15.2038C11.3785 15.1628 11.4613 15.1037 11.53 15.03L13.5 13.06L15.47 15.03C15.6122 15.1625 15.8002 15.2346 15.9945 15.2312C16.1888 15.2277 16.3742 15.149 16.5116 15.0116C16.649 14.8742 16.7277 14.6888 16.7312 14.4945C16.7346 14.3002 16.6625 14.1122 16.53 13.97L14.56 12L16.53 10.03C16.6625 9.88783 16.7346 9.69978 16.7312 9.50548C16.7277 9.31118 16.649 9.12579 16.5116 8.98838C16.3742 8.85097 16.1888 8.77225 15.9945 8.76882C15.8002 8.7654 15.6122 8.83752 15.47 8.97L13.5 10.94L11.531 8.969Z" fill="#72767A"/>
</svg>
