<svg width="28" height="28" viewBox="0 0 28 28" fill="none" xmlns="http://www.w3.org/2000/svg">
<g id="top_bar:icon">
<path id="Vector" d="M7.4313 21.3946L7.46666 21.43L7.50201 21.3946L14 14.8967L20.498 21.3946L20.5333 21.43L20.5687 21.3946L21.3947 20.5686L21.43 20.5333L21.3947 20.4979L14.8967 14L21.3947 7.50198L21.43 7.46663L21.3947 7.43127L20.5687 6.60527L20.5333 6.56991L20.498 6.60527L14 13.1032L7.50201 6.60527L7.46666 6.56991L7.4313 6.60527L6.6053 7.43127L6.56994 7.46663L6.6053 7.50198L13.1033 14L6.6053 20.4979L6.56994 20.5333L6.6053 20.5686L7.4313 21.3946Z" fill="#333333" stroke="#333333" stroke-width="0.1"/>
</g>
</svg>
