<svg width="14" height="15" viewBox="0 0 14 15" fill="none" xmlns="http://www.w3.org/2000/svg">
<path d="M12.3517 6.12297C12.1455 5.9075 11.9323 5.68547 11.8519 5.49023C11.7775 5.31141 11.7731 5.015 11.7688 4.72789C11.7605 4.19414 11.7518 3.5893 11.3313 3.16875C10.9107 2.7482 10.3059 2.73945 9.77211 2.73125C9.485 2.72687 9.18859 2.7225 9.00977 2.64812C8.81508 2.56773 8.5925 2.35445 8.37703 2.14828C7.99969 1.7857 7.57094 1.375 7 1.375C6.42906 1.375 6.00086 1.7857 5.62297 2.14828C5.4075 2.35445 5.18547 2.56773 4.99023 2.64812C4.8125 2.7225 4.515 2.72687 4.22789 2.73125C3.69414 2.73945 3.0893 2.7482 2.66875 3.16875C2.2482 3.5893 2.24219 4.19414 2.23125 4.72789C2.22687 5.015 2.2225 5.31141 2.14812 5.49023C2.06773 5.68492 1.85445 5.9075 1.64828 6.12297C1.2857 6.50031 0.875 6.92906 0.875 7.5C0.875 8.07094 1.2857 8.49914 1.64828 8.87703C1.85445 9.0925 2.06773 9.31453 2.14812 9.50977C2.2225 9.68859 2.22687 9.985 2.23125 10.2721C2.23945 10.8059 2.2482 11.4107 2.66875 11.8313C3.0893 12.2518 3.69414 12.2605 4.22789 12.2688C4.515 12.2731 4.81141 12.2775 4.99023 12.3519C5.18492 12.4323 5.4075 12.6455 5.62297 12.8517C6.00031 13.2143 6.42906 13.625 7 13.625C7.57094 13.625 7.99914 13.2143 8.37703 12.8517C8.5925 12.6455 8.81453 12.4323 9.00977 12.3519C9.18859 12.2775 9.485 12.2731 9.77211 12.2688C10.3059 12.2605 10.9107 12.2518 11.3313 11.8313C11.7518 11.4107 11.7605 10.8059 11.7688 10.2721C11.7731 9.985 11.7775 9.68859 11.8519 9.50977C11.9323 9.31508 12.1455 9.0925 12.3517 8.87703C12.7143 8.49969 13.125 8.07094 13.125 7.5C13.125 6.92906 12.7143 6.50086 12.3517 6.12297ZM9.49703 6.49703L6.43453 9.55953C6.3939 9.60021 6.34565 9.63248 6.29254 9.6545C6.23942 9.67651 6.18249 9.68784 6.125 9.68784C6.06751 9.68784 6.01058 9.67651 5.95746 9.6545C5.90435 9.63248 5.8561 9.60021 5.81547 9.55953L4.50297 8.24703C4.46232 8.20638 4.43008 8.15813 4.40808 8.10502C4.38608 8.05191 4.37476 7.99499 4.37476 7.9375C4.37476 7.88001 4.38608 7.82309 4.40808 7.76998C4.43008 7.71687 4.46232 7.66862 4.50297 7.62797C4.58506 7.54588 4.6964 7.49976 4.8125 7.49976C4.86999 7.49976 4.92691 7.51108 4.98002 7.53308C5.03313 7.55508 5.08138 7.58732 5.12203 7.62797L6.125 8.63148L8.87797 5.87797C8.91862 5.83732 8.96687 5.80508 9.01998 5.78308C9.07309 5.76108 9.13001 5.74976 9.1875 5.74976C9.24499 5.74976 9.30191 5.76108 9.35502 5.78308C9.40813 5.80508 9.45638 5.83732 9.49703 5.87797C9.53768 5.91862 9.56992 5.96687 9.59192 6.01998C9.61392 6.07309 9.62524 6.13001 9.62524 6.1875C9.62524 6.24499 9.61392 6.30191 9.59192 6.35502C9.56992 6.40813 9.53768 6.45638 9.49703 6.49703Z" fill="#FC4852"/>
</svg>
