<svg width="20" height="20" viewBox="0 0 20 20" fill="none" xmlns="http://www.w3.org/2000/svg">
<g id="mingcute:checkbox-line" clip-path="url(#clip0_34_12226)">
<g id="Group">
<path id="Vector" fill-rule="evenodd" clip-rule="evenodd" d="M2.28301 0.0681152C1.69565 0.0681152 1.13234 0.301444 0.717016 0.716772C0.301688 1.1321 0.0683594 1.69541 0.0683594 2.28277V17.7853C0.0683594 18.3727 0.301688 18.936 0.717016 19.3513C1.13234 19.7667 1.69565 20 2.28301 20H17.7856C18.3729 20 18.9362 19.7667 19.3516 19.3513C19.7669 18.936 20.0002 18.3727 20.0002 17.7853V2.28277C20.0002 1.69541 19.7669 1.1321 19.3516 0.716772C18.9362 0.301444 18.3729 0.0681152 17.7856 0.0681152H2.28301Z" fill="#26C48C"/>
<path id="Vector_2" fill-rule="evenodd" clip-rule="evenodd" d="M15.5157 7.59241C15.6214 7.49026 15.7058 7.36808 15.7638 7.23298C15.8218 7.09788 15.8524 6.95258 15.8537 6.80555C15.8549 6.65852 15.8269 6.5127 15.7712 6.37662C15.7156 6.24053 15.6333 6.1169 15.5294 6.01293C15.4254 5.90896 15.3018 5.82673 15.1657 5.77106C15.0296 5.71538 14.8838 5.68736 14.7368 5.68864C14.5897 5.68992 14.4444 5.72046 14.3093 5.7785C14.1742 5.83653 14.052 5.92089 13.9499 6.02665L8.46863 11.5079L6.11999 9.15928C6.01718 9.0564 5.89511 8.97477 5.76076 8.91906C5.6264 8.86336 5.48239 8.83466 5.33695 8.83461C5.04321 8.8345 4.76145 8.95109 4.55367 9.15872C4.3459 9.36636 4.22911 9.64803 4.229 9.94177C4.2289 10.2355 4.34549 10.5173 4.55312 10.725L7.60713 13.779C7.72024 13.8922 7.85455 13.982 8.00236 14.0432C8.15018 14.1045 8.30862 14.136 8.46863 14.136C8.62863 14.136 8.78707 14.1045 8.93489 14.0432C9.08271 13.982 9.21701 13.8922 9.33013 13.779L15.5157 7.59241Z" fill="white"/>
</g>
</g>
<defs>
<clipPath id="clip0_34_12226">
<rect width="20" height="20" fill="white"/>
</clipPath>
</defs>
</svg>
