<svg width="20" height="20" viewBox="0 0 20 20" fill="none" xmlns="http://www.w3.org/2000/svg">
<g id="mingcute:checkbox-line">
<g id="Group">
<path id="Vector" fill-rule="evenodd" clip-rule="evenodd" d="M15.5152 7.59241C15.6209 7.49026 15.7053 7.36808 15.7633 7.23298C15.8214 7.09788 15.8519 6.95258 15.8532 6.80555C15.8545 6.65852 15.8264 6.5127 15.7708 6.37662C15.7151 6.24053 15.6329 6.1169 15.5289 6.01293C15.4249 5.90896 15.3013 5.82673 15.1652 5.77106C15.0291 5.71538 14.8833 5.68736 14.7363 5.68864C14.5892 5.68992 14.4439 5.72046 14.3088 5.7785C14.1737 5.83653 14.0516 5.92089 13.9494 6.02665L8.46814 11.5079L6.1195 9.15928C6.01669 9.0564 5.89462 8.97477 5.76027 8.91906C5.62591 8.86336 5.4819 8.83466 5.33646 8.83461C5.04272 8.8345 4.76097 8.95109 4.55319 9.15872C4.34541 9.36636 4.22862 9.64803 4.22852 9.94177C4.22841 10.2355 4.345 10.5173 4.55263 10.725L7.60664 13.779C7.71975 13.8922 7.85406 13.982 8.00188 14.0432C8.1497 14.1045 8.30813 14.136 8.46814 14.136C8.62815 14.136 8.78658 14.1045 8.9344 14.0432C9.08222 13.982 9.21652 13.8922 9.32964 13.779L15.5152 7.59241Z" fill="#BBBBBB"/>
</g>
</g>
</svg>
