<svg width="16" height="16" viewBox="0 0 16 16" fill="none" xmlns="http://www.w3.org/2000/svg">
<g id="mingcute:time-duration-line">
<g id="Group">
<path id="Vector" fill-rule="evenodd" clip-rule="evenodd" d="M7.31662 2.0012C7.35564 2.17358 7.32461 2.35441 7.23035 2.50393C7.13609 2.65345 6.98631 2.75941 6.81395 2.79853C6.68313 2.8283 6.55348 2.86299 6.42528 2.90253C6.34163 2.92836 6.25371 2.93746 6.16654 2.9293C6.07937 2.92115 5.99467 2.89591 5.91725 2.85502C5.83984 2.81413 5.77124 2.7584 5.71536 2.691C5.65949 2.6236 5.61744 2.54585 5.59161 2.4622C5.56579 2.37855 5.55669 2.29063 5.56484 2.20346C5.57299 2.11629 5.59824 2.03158 5.63912 1.95417C5.68001 1.87676 5.73575 1.80815 5.80315 1.75228C5.87055 1.69641 5.9483 1.65436 6.03195 1.62853C6.19195 1.57875 6.35417 1.53542 6.51861 1.49853C6.60402 1.47911 6.69241 1.47671 6.77875 1.49146C6.86508 1.50621 6.94766 1.53783 7.02177 1.58452C7.09588 1.6312 7.16006 1.69202 7.21065 1.76352C7.26124 1.83502 7.29725 1.91578 7.31662 2.0012ZM8.68328 2.0012C8.7224 1.82883 8.82837 1.67905 8.97788 1.58479C9.1274 1.49053 9.30823 1.45951 9.48061 1.49853C12.4499 2.17186 14.6673 4.82653 14.6673 7.99986C14.6673 11.6819 11.6819 14.6665 8.00062 14.6665C4.82662 14.6665 2.17195 12.4499 1.49862 9.48053C1.46405 9.30985 1.49765 9.13243 1.59222 8.9862C1.68678 8.83997 1.83481 8.73655 2.00465 8.69805C2.17448 8.65955 2.35264 8.68904 2.50101 8.7802C2.64939 8.87136 2.7562 9.01696 2.79862 9.18586C3.01076 10.115 3.46802 10.9704 4.12281 11.6629C4.77761 12.3554 5.60603 12.8599 6.52187 13.1237C7.43771 13.3875 8.40751 13.4011 9.33038 13.163C10.2532 12.9249 11.0955 12.4439 11.7694 11.77C12.4433 11.096 12.9243 10.2538 13.1624 9.33096C13.4005 8.40809 13.3869 7.43829 13.1231 6.52245C12.8593 5.60661 12.3549 4.7782 11.6623 4.1234C10.9698 3.4686 10.1145 3.01134 9.18528 2.7992C9.01289 2.75994 8.86316 2.65381 8.76902 2.50416C8.67488 2.35451 8.64404 2.17359 8.68328 2.0012ZM4.40928 3.14653C4.4689 3.21072 4.51529 3.28604 4.54578 3.36817C4.57627 3.4503 4.59028 3.53764 4.587 3.62519C4.58372 3.71274 4.56321 3.79878 4.52666 3.8784C4.4901 3.95802 4.43821 4.02965 4.37395 4.0892C4.27528 4.18031 4.18039 4.27498 4.08928 4.3732C3.96818 4.49921 3.80243 4.57263 3.62772 4.57764C3.45302 4.58265 3.28334 4.51885 3.15521 4.39999C3.02708 4.28112 2.95075 4.11669 2.94266 3.94211C2.93457 3.76752 2.99536 3.59674 3.11195 3.46653C3.22528 3.34386 3.3435 3.22542 3.46661 3.1112C3.53081 3.05158 3.60612 3.00519 3.68826 2.9747C3.77039 2.9442 3.85772 2.9302 3.94527 2.93348C4.03282 2.93676 4.11886 2.95727 4.19848 2.99382C4.2781 3.03038 4.34973 3.08227 4.40928 3.14653ZM7.99995 3.99986C8.17676 3.99986 8.34633 4.0701 8.47135 4.19513C8.59638 4.32015 8.66661 4.48972 8.66661 4.66653V7.72387L10.4713 9.52853C10.5927 9.65427 10.6599 9.82267 10.6584 9.99747C10.6569 10.1723 10.5868 10.3395 10.4632 10.4631C10.3396 10.5867 10.1723 10.6568 9.99755 10.6583C9.82275 10.6598 9.65435 10.5926 9.52861 10.4712L7.52861 8.4712C7.40358 8.3462 7.33332 8.17666 7.33328 7.99986V4.66653C7.33328 4.48972 7.40352 4.32015 7.52854 4.19513C7.65357 4.0701 7.82314 3.99986 7.99995 3.99986ZM2.46195 5.59186C2.63088 5.64396 2.7722 5.76101 2.85484 5.91728C2.93747 6.07356 2.95466 6.25625 2.90262 6.4252C2.86307 6.5534 2.82838 6.68305 2.79862 6.81386C2.7562 6.98276 2.64939 7.12837 2.50101 7.21953C2.35264 7.31069 2.17448 7.34018 2.00465 7.30168C1.83481 7.26318 1.68678 7.15976 1.59222 7.01353C1.49765 6.8673 1.46405 6.68988 1.49862 6.5192C1.53595 6.35475 1.57928 6.19253 1.62862 6.03253C1.68071 5.8636 1.79776 5.72228 1.95404 5.63964C2.11031 5.55701 2.29301 5.53982 2.46195 5.59186Z" fill="#FC4852"/>
</g>
</g>
</svg>
