<svg width="12" height="12" viewBox="0 0 12 12" fill="none" xmlns="http://www.w3.org/2000/svg">
<g id="uil:calendar" clip-path="url(#clip0_34_15654)">
<path id="Vector" d="M10.0834 1.33317H8.91669V0.749837C8.91669 0.595128 8.85523 0.446754 8.74583 0.337358C8.63644 0.227962 8.48806 0.166504 8.33335 0.166504C8.17864 0.166504 8.03027 0.227962 7.92087 0.337358C7.81148 0.446754 7.75002 0.595128 7.75002 0.749837V1.33317H4.25002V0.749837C4.25002 0.595128 4.18856 0.446754 4.07917 0.337358C3.96977 0.227962 3.8214 0.166504 3.66669 0.166504C3.51198 0.166504 3.3636 0.227962 3.25421 0.337358C3.14481 0.446754 3.08335 0.595128 3.08335 0.749837V1.33317H1.91669C1.45256 1.33317 1.00744 1.51755 0.67925 1.84573C0.351062 2.17392 0.166687 2.61904 0.166687 3.08317V10.0832C0.166687 10.5473 0.351062 10.9924 0.67925 11.3206C1.00744 11.6488 1.45256 11.8332 1.91669 11.8332H10.0834C10.5475 11.8332 10.9926 11.6488 11.3208 11.3206C11.649 10.9924 11.8334 10.5473 11.8334 10.0832V3.08317C11.8334 2.61904 11.649 2.17392 11.3208 1.84573C10.9926 1.51755 10.5475 1.33317 10.0834 1.33317ZM10.6667 10.0832C10.6667 10.2379 10.6052 10.3863 10.4958 10.4956C10.3864 10.605 10.2381 10.6665 10.0834 10.6665H1.91669C1.76198 10.6665 1.6136 10.605 1.50421 10.4956C1.39481 10.3863 1.33335 10.2379 1.33335 10.0832V5.99984H10.6667V10.0832ZM10.6667 4.83317H1.33335V3.08317C1.33335 2.92846 1.39481 2.78009 1.50421 2.67069C1.6136 2.5613 1.76198 2.49984 1.91669 2.49984H3.08335V3.08317C3.08335 3.23788 3.14481 3.38625 3.25421 3.49565C3.3636 3.60505 3.51198 3.6665 3.66669 3.6665C3.8214 3.6665 3.96977 3.60505 4.07917 3.49565C4.18856 3.38625 4.25002 3.23788 4.25002 3.08317V2.49984H7.75002V3.08317C7.75002 3.23788 7.81148 3.38625 7.92087 3.49565C8.03027 3.60505 8.17864 3.6665 8.33335 3.6665C8.48806 3.6665 8.63644 3.60505 8.74583 3.49565C8.85523 3.38625 8.91669 3.23788 8.91669 3.08317V2.49984H10.0834C10.2381 2.49984 10.3864 2.5613 10.4958 2.67069C10.6052 2.78009 10.6667 2.92846 10.6667 3.08317V4.83317Z" fill="#4289F0"/>
</g>
<defs>
<clipPath id="clip0_34_15654">
<rect width="12" height="12" fill="white"/>
</clipPath>
</defs>
</svg>
