<svg width="16" height="16" viewBox="0 0 16 16" fill="none" xmlns="http://www.w3.org/2000/svg">
<path fill-rule="evenodd" clip-rule="evenodd" d="M7.31662 2.00144C7.35564 2.17383 7.32461 2.35466 7.23035 2.50417C7.13609 2.65369 6.98631 2.75966 6.81395 2.79878C6.68313 2.82854 6.55348 2.86323 6.42528 2.90278C6.34163 2.9286 6.25371 2.9377 6.16654 2.92955C6.07937 2.9214 5.99467 2.89616 5.91725 2.85527C5.83984 2.81438 5.77124 2.75864 5.71536 2.69124C5.65949 2.62384 5.61744 2.54609 5.59161 2.46244C5.56579 2.37879 5.55669 2.29087 5.56484 2.2037C5.57299 2.11653 5.59824 2.03183 5.63912 1.95441C5.68001 1.877 5.73575 1.8084 5.80315 1.75253C5.87055 1.69665 5.9483 1.6546 6.03195 1.62878C6.19195 1.579 6.35417 1.53566 6.51861 1.49878C6.60402 1.47935 6.69241 1.47695 6.77875 1.4917C6.86508 1.50646 6.94766 1.53808 7.02177 1.58476C7.09588 1.63144 7.16006 1.69227 7.21065 1.76376C7.26124 1.83526 7.29725 1.91602 7.31662 2.00144ZM8.68328 2.00144C8.7224 1.82908 8.82837 1.6793 8.97788 1.58504C9.1274 1.49078 9.30823 1.45975 9.48061 1.49878C12.4499 2.17211 14.6673 4.82678 14.6673 8.00011C14.6673 11.6821 11.6819 14.6668 8.00062 14.6668C4.82662 14.6668 2.17195 12.4501 1.49862 9.48078C1.46405 9.3101 1.49765 9.13267 1.59222 8.98644C1.68678 8.84021 1.83481 8.73679 2.00465 8.69829C2.17448 8.6598 2.35264 8.68928 2.50101 8.78045C2.64939 8.87161 2.7562 9.01721 2.79862 9.18611C3.01076 10.1153 3.46802 10.9706 4.12281 11.6632C4.77761 12.3557 5.60603 12.8601 6.52187 13.1239C7.43771 13.3877 8.40751 13.4013 9.33038 13.1632C10.2532 12.9252 11.0955 12.4441 11.7694 11.7702C12.4433 11.0963 12.9243 10.2541 13.1624 9.33121C13.4005 8.40834 13.3869 7.43854 13.1231 6.5227C12.8593 5.60685 12.3549 4.77844 11.6623 4.12364C10.9698 3.46884 10.1145 3.01159 9.18528 2.79944C9.01289 2.76018 8.86316 2.65405 8.76902 2.5044C8.67488 2.35475 8.64404 2.17383 8.68328 2.00144ZM4.40928 3.14678C4.4689 3.21097 4.51529 3.28628 4.54578 3.36842C4.57627 3.45055 4.59028 3.53788 4.587 3.62543C4.58372 3.71298 4.56321 3.79902 4.52666 3.87864C4.4901 3.95826 4.43821 4.02989 4.37395 4.08944C4.27528 4.18055 4.18039 4.27522 4.08928 4.37344C3.96818 4.49946 3.80243 4.57287 3.62772 4.57788C3.45302 4.58289 3.28334 4.5191 3.15521 4.40023C3.02708 4.28137 2.95075 4.11694 2.94266 3.94235C2.93457 3.76776 2.99536 3.59698 3.11195 3.46678C3.22528 3.34411 3.3435 3.22566 3.46661 3.11144C3.53081 3.05182 3.60612 3.00544 3.68826 2.97494C3.77039 2.94445 3.85772 2.93044 3.94527 2.93372C4.03282 2.93701 4.11886 2.95751 4.19848 2.99407C4.2781 3.03062 4.34973 3.08252 4.40928 3.14678ZM7.99995 4.00011C8.17676 4.00011 8.34633 4.07035 8.47135 4.19537C8.59638 4.3204 8.66661 4.48996 8.66661 4.66678V7.72411L10.4713 9.52878C10.5927 9.65451 10.6599 9.82291 10.6584 9.99771C10.6569 10.1725 10.5868 10.3397 10.4632 10.4633C10.3396 10.5869 10.1723 10.657 9.99755 10.6586C9.82275 10.6601 9.65435 10.5929 9.52861 10.4714L7.52861 8.47144C7.40358 8.34645 7.33332 8.17691 7.33328 8.00011V4.66678C7.33328 4.48996 7.40352 4.3204 7.52854 4.19537C7.65357 4.07035 7.82314 4.00011 7.99995 4.00011ZM2.46195 5.59211C2.63088 5.6442 2.7722 5.76126 2.85484 5.91753C2.93747 6.0738 2.95466 6.2565 2.90262 6.42544C2.86307 6.55364 2.82838 6.68329 2.79862 6.81411C2.7562 6.98301 2.64939 7.12861 2.50101 7.21977C2.35264 7.31093 2.17448 7.34042 2.00465 7.30192C1.83481 7.26343 1.68678 7.16001 1.59222 7.01378C1.49765 6.86755 1.46405 6.69012 1.49862 6.51944C1.53595 6.355 1.57928 6.19278 1.62862 6.03278C1.68071 5.86385 1.79776 5.72253 1.95404 5.63989C2.11031 5.55725 2.29301 5.54006 2.46195 5.59211Z" fill="#FC4852"/>
</svg>
