<svg width="60" height="60" viewBox="0 0 60 60" fill="none" xmlns="http://www.w3.org/2000/svg">
<g id="f7:exclamationmark-circle">
<path id="Vector" d="M30 55.6136C43.9875 55.6136 55.6136 44.0122 55.6136 30C55.6136 16.0125 43.9618 4.38647 29.9743 4.38647C15.9632 4.38647 4.38751 16.0125 4.38751 30C4.38751 44.0122 15.9879 55.6136 30 55.6136ZM30.0011 51.3451C18.1468 51.3451 8.67858 41.8522 8.67858 30C8.67858 18.1715 18.1211 8.65505 29.9743 8.65505C41.8018 8.65505 51.3182 18.1725 51.3439 30C51.3686 41.8533 41.8264 51.3451 29.9989 51.3451M29.9743 34.545C31.1786 34.545 31.8568 33.8668 31.8814 32.5618L32.2586 19.3029C32.2843 18.0215 31.2793 17.0679 29.9486 17.0679C28.5922 17.0679 27.6386 17.9968 27.6632 19.2772L27.99 32.5618C28.0147 33.8422 28.7186 34.545 29.9743 34.545ZM29.9743 42.7061C31.4047 42.7061 32.685 41.5511 32.685 40.0951C32.685 38.6133 31.4304 37.4829 29.9743 37.4829C28.4925 37.4829 27.2614 38.6379 27.2614 40.0951C27.2614 41.5265 28.5172 42.7061 29.9743 42.7061Z" fill="#26C48C"/>
</g>
</svg>
