<svg width="20" height="20" viewBox="0 0 20 20" fill="none" xmlns="http://www.w3.org/2000/svg">
<g id="Component 3">
<path id="Vector" d="M10.8332 10.0003H13.3332L9.1665 15.8337V11.667H6.6665L10.8332 5.83366V10.0003ZM9.1665 5.00033H5.83317V16.667H14.1665V5.00033H10.8332V3.33366H9.1665V5.00033ZM7.49984 3.33366V2.50033C7.49984 2.27931 7.58763 2.06735 7.74392 1.91107C7.9002 1.75479 8.11216 1.66699 8.33317 1.66699H11.6665C11.8875 1.66699 12.0995 1.75479 12.2558 1.91107C12.412 2.06735 12.4998 2.27931 12.4998 2.50033V3.33366H14.9998C15.2209 3.33366 15.4328 3.42146 15.5891 3.57774C15.7454 3.73402 15.8332 3.94598 15.8332 4.16699V17.5003C15.8332 17.7213 15.7454 17.9333 15.5891 18.0896C15.4328 18.2459 15.2209 18.3337 14.9998 18.3337H4.99984C4.77882 18.3337 4.56686 18.2459 4.41058 18.0896C4.2543 17.9333 4.1665 17.7213 4.1665 17.5003V4.16699C4.1665 3.94598 4.2543 3.73402 4.41058 3.57774C4.56686 3.42146 4.77882 3.33366 4.99984 3.33366H7.49984Z" fill="#26C48C"/>
</g>
</svg>
