<svg width="23" height="22" viewBox="0 0 23 22" fill="none" xmlns="http://www.w3.org/2000/svg">
<path d="M7.47436 7.33337L15.1927 7.33337C15.4974 7.33293 15.796 7.41879 16.0539 7.58102C16.3119 7.74324 16.5186 7.9752 16.6502 8.25004C16.8042 8.57613 16.8635 8.93894 16.8214 9.29712C16.7793 9.65529 16.6374 9.99442 16.4119 10.2759L12.5527 14.9509C12.4012 15.1256 12.214 15.2658 12.0037 15.3618C11.7933 15.4579 11.5648 15.5076 11.3335 15.5076C11.1023 15.5076 10.8737 15.4579 10.6634 15.3618C10.453 15.2658 10.2658 15.1256 10.1144 14.9509L6.25519 10.2759C6.02969 9.99442 5.88778 9.65529 5.84564 9.29712C5.8035 8.93894 5.86283 8.57613 6.01686 8.25004C6.14844 7.9752 6.35516 7.74324 6.6131 7.58102C6.87104 7.41879 7.16965 7.33293 7.47436 7.33337Z" fill="#26C48C"/>
</svg>
