<svg width="26" height="26" viewBox="0 0 26 26" fill="none" xmlns="http://www.w3.org/2000/svg">
<g id="Group">
<path id="Vector" d="M13 24.25V13M13 6.75H7.9375C4.475 6.75 4.2625 1.75 7.9375 1.75C11.875 1.75 13 6.75 13 6.75ZM13 6.75H18.0625C21.6825 6.75 21.6825 1.75 18.0625 1.75C14.125 1.75 13 6.75 13 6.75Z" stroke="#BBBBBB" stroke-width="1.8" stroke-linecap="round" stroke-linejoin="round"/>
<path id="Vector_2" d="M23 13V21.75C23 22.413 22.7366 23.0489 22.2678 23.5178C21.7989 23.9866 21.163 24.25 20.5 24.25H5.5C4.83696 24.25 4.20107 23.9866 3.73223 23.5178C3.26339 23.0489 3 22.413 3 21.75V13M24.25 13V9.25C24.25 8.58696 23.9866 7.95107 23.5178 7.48223C23.0489 7.01339 22.413 6.75 21.75 6.75H4.25C3.58696 6.75 2.95107 7.01339 2.48223 7.48223C2.01339 7.95107 1.75 8.58696 1.75 9.25V13H24.25Z" stroke="#BBBBBB" stroke-width="1.8" stroke-linecap="round" stroke-linejoin="round"/>
</g>
</svg>
