<svg width="30" height="30" viewBox="0 0 30 30" fill="none" xmlns="http://www.w3.org/2000/svg">
<g id="tab:home">
<g id="Vector">
<path d="M24.6875 12.5C24.6875 12.2514 24.5887 12.0129 24.4129 11.8371C24.2371 11.6613 23.9986 11.5625 23.75 11.5625C23.5014 11.5625 23.2629 11.6613 23.0871 11.8371C22.9113 12.0129 22.8125 12.2514 22.8125 12.5H24.6875ZM7.18751 12.5C7.18751 12.2514 7.08874 12.0129 6.91292 11.8371C6.73711 11.6613 6.49865 11.5625 6.25001 11.5625C6.00137 11.5625 5.76291 11.6613 5.5871 11.8371C5.41128 12.0129 5.31251 12.2514 5.31251 12.5H7.18751ZM25.5875 15.6625C25.6733 15.7546 25.7768 15.8285 25.8918 15.8797C26.0068 15.931 26.131 15.9585 26.2569 15.9607C26.3827 15.963 26.5078 15.9398 26.6245 15.8927C26.7412 15.8455 26.8473 15.7753 26.9363 15.6863C27.0253 15.5973 27.0955 15.4912 27.1427 15.3745C27.1898 15.2578 27.213 15.1327 27.2107 15.0068C27.2085 14.881 27.181 14.7568 27.1297 14.6418C27.0785 14.5268 27.0046 14.4233 26.9125 14.3375L25.5875 15.6625ZM15 3.75L15.6625 3.0875C15.4867 2.91194 15.2484 2.81332 15 2.81332C14.7516 2.81332 14.5133 2.91194 14.3375 3.0875L15 3.75ZM3.08751 14.3375C2.9954 14.4233 2.92152 14.5268 2.87028 14.6418C2.81904 14.7568 2.79149 14.881 2.78927 15.0068C2.78705 15.1327 2.8102 15.2578 2.85736 15.3745C2.90451 15.4912 2.97469 15.5973 3.06371 15.6863C3.15273 15.7753 3.25878 15.8455 3.37551 15.8927C3.49225 15.9398 3.61728 15.963 3.74316 15.9607C3.86904 15.9585 3.99318 15.931 4.10818 15.8797C4.22318 15.8285 4.32668 15.7546 4.41251 15.6625L3.08751 14.3375ZM8.75001 27.1875H21.25V25.3125H8.75001V27.1875ZM24.6875 23.75V12.5H22.8125V12.8875V23.75H24.6875ZM7.18751 23.75V12.8875V12.5H5.31251V23.75H7.18751ZM26.9125 14.3375L15.6625 3.0875L14.3375 4.4125L15 5.075L22.8125 12.8875L25.5875 15.6625L26.9125 14.3375ZM14.3375 3.0875L3.08751 14.3375L4.41251 15.6625L7.18751 12.8875L15 5.075L15.6625 4.4125L14.3375 3.0875ZM21.25 27.1875C22.1617 27.1875 23.036 26.8253 23.6807 26.1807C24.3253 25.536 24.6875 24.6617 24.6875 23.75H22.8125C22.8125 24.6125 22.1125 25.3125 21.25 25.3125V27.1875ZM8.75001 25.3125C7.88751 25.3125 7.18751 24.6125 7.18751 23.75H5.31251C5.31251 24.6617 5.67467 25.536 6.31933 26.1807C6.96399 26.8253 7.83833 27.1875 8.75001 27.1875V25.3125Z" fill="#333333"/>
<path d="M8.75001 25.3125H21.25C22.1125 25.3125 22.8125 24.6125 22.8125 23.75V12.8875L15 5.075L7.18751 12.8875V23.75C7.18751 24.6125 7.88751 25.3125 8.75001 25.3125Z" fill="#333333"/>
</g>
</g>
</svg>
