<svg width="14" height="12" viewBox="0 0 14 12" fill="none" xmlns="http://www.w3.org/2000/svg">
<path d="M12.4007 1.34299C12.0603 0.998889 11.6549 0.72595 11.208 0.540067C10.7611 0.354183 10.2817 0.259069 9.79768 0.260265C9.31368 0.259069 8.83428 0.354183 8.38739 0.540067C7.94051 0.72595 7.53507 0.998889 7.1947 1.34299L6.98705 1.55805L6.77941 1.3504C6.09099 0.662062 5.15735 0.275362 4.18384 0.275362C3.21032 0.275362 2.27668 0.662062 1.58827 1.3504C0.908869 2.04353 0.52832 2.97541 0.52832 3.94597C0.52832 4.91654 0.908869 5.84842 1.58827 6.54154L6.60884 11.5769C6.71313 11.6811 6.85449 11.7396 7.00188 11.7396C7.14927 11.7396 7.29064 11.6811 7.39493 11.5769L12.4155 6.54154C13.0952 5.84615 13.4744 4.9116 13.4717 3.93923C13.4689 2.96686 13.0843 2.0345 12.4007 1.34299Z" fill="#FC4852"/>
</svg>
