<svg width="14" height="12" viewBox="0 0 14 12" fill="none" xmlns="http://www.w3.org/2000/svg">
<path d="M12.0673 1.34299C11.7269 0.998889 11.3215 0.72595 10.8746 0.540067C10.4277 0.354183 9.94831 0.259069 9.46431 0.260265C8.98031 0.259069 8.5009 0.354183 8.05402 0.540067C7.60713 0.72595 7.2017 0.998889 6.86132 1.34299L6.65368 1.55805L6.44603 1.3504C5.75762 0.662062 4.82397 0.275362 3.85046 0.275362C2.87695 0.275362 1.9433 0.662062 1.25489 1.3504C0.575494 2.04353 0.194946 2.97541 0.194946 3.94597C0.194946 4.91654 0.575494 5.84842 1.25489 6.54154L6.27547 11.5769C6.37975 11.6811 6.52112 11.7396 6.66851 11.7396C6.8159 11.7396 6.95727 11.6811 7.06155 11.5769L12.0821 6.54154C12.7618 5.84615 13.1411 4.9116 13.1383 3.93923C13.1355 2.96686 12.7509 2.0345 12.0673 1.34299Z" fill="#D9D9D9"/>
</svg>
