<svg width="16" height="16" viewBox="0 0 16 16" fill="none" xmlns="http://www.w3.org/2000/svg">
<g id="Group">
<path id="Vector" d="M1 4.93027C1 4.36933 1 4.0884 1.08027 3.82427C1.16053 3.56013 1.31547 3.32587 1.6272 2.8592L1.75787 2.6632C2.30107 1.8484 2.57173 1.44147 2.9852 1.2212C3.39773 1 3.8868 1 4.86493 1H11.1351C12.1132 1 12.6023 1 13.0148 1.2212C13.4273 1.44147 13.6989 1.8484 14.2412 2.66227L14.3728 2.8592C14.6845 3.32587 14.8395 3.5592 14.9197 3.82427C15 4.0884 15 4.36933 15 4.93027V11.2667C15 13.0269 15 13.9061 14.4531 14.4531C13.9061 15 13.0269 15 11.2667 15H4.73333C2.97307 15 2.09387 15 1.54693 14.4531C1 13.9061 1 13.0269 1 11.2667V4.93027Z" stroke="#BBBBBB" stroke-width="1.6"/>
<path id="Vector_2" d="M1 5.66675H15" stroke="#BBBBBB" stroke-width="1.6" stroke-linecap="round"/>
<path id="Vector_3" d="M5.66675 5.80675C5.66675 5.76962 5.6815 5.73401 5.70775 5.70775C5.73401 5.6815 5.76962 5.66675 5.80675 5.66675H10.1934C10.2305 5.66675 10.2662 5.6815 10.2924 5.70775C10.3187 5.73401 10.3334 5.76962 10.3334 5.80675V9.59141C10.3334 9.66568 10.3137 9.7386 10.2763 9.80276C10.2389 9.86692 10.1851 9.92001 10.1205 9.95663C10.0559 9.99325 9.98276 10.0121 9.9085 10.0112C9.83424 10.0103 9.76154 9.9898 9.69781 9.95168L8.12048 9.00528C8.08414 8.98339 8.04251 8.97182 8.00008 8.97182C7.95765 8.97182 7.91603 8.98339 7.87968 9.00528L6.30235 9.95168C6.23862 9.9898 6.16592 10.0103 6.09166 10.0112C6.01741 10.0121 5.94425 9.99325 5.87964 9.95663C5.81504 9.92001 5.7613 9.86692 5.7239 9.80276C5.6865 9.7386 5.66678 9.66568 5.66675 9.59141V5.80675Z" stroke="#BBBBBB" stroke-width="1.6"/>
</g>
</svg>
