<svg width="20" height="20" viewBox="0 0 20 20" fill="none" xmlns="http://www.w3.org/2000/svg">
<path d="M15.8332 3.33301C16.4708 3.33297 17.0844 3.57661 17.5484 4.01408C18.0123 4.45154 18.2916 5.04976 18.329 5.68634L18.3332 5.83301V7.34717C18.3313 7.57224 18.2706 7.79292 18.1572 7.98732C18.0438 8.18173 17.8815 8.34312 17.6865 8.45551L17.5973 8.50384C17.3277 8.63618 17.0989 8.8389 16.935 9.09059C16.7711 9.34228 16.6783 9.63357 16.6664 9.93367C16.6544 10.2338 16.7238 10.5315 16.8671 10.7954C17.0104 11.0594 17.2224 11.2797 17.4807 11.433L17.5973 11.4955C17.9582 11.6738 18.2807 12.0422 18.3273 12.5288L18.3332 12.6522V14.1663C18.3332 14.804 18.0896 15.4176 17.6521 15.8816C17.2146 16.3455 16.6164 16.6248 15.9798 16.6622L15.8332 16.6663H4.1665C3.52883 16.6664 2.91524 16.4227 2.45129 15.9853C1.98733 15.5478 1.70808 14.9496 1.67067 14.313L1.6665 14.1663V12.6522C1.6665 12.1472 1.95984 11.7538 2.31317 11.5438L2.40234 11.4955C2.67195 11.3632 2.90079 11.1604 3.06467 10.9088C3.22854 10.6571 3.32136 10.3658 3.33332 10.0657C3.34527 9.76558 3.27591 9.46783 3.13257 9.20391C2.98923 8.93998 2.77723 8.7197 2.519 8.56634L2.40234 8.50384C2.0415 8.32551 1.719 7.95717 1.67234 7.47051L1.6665 7.34801V5.83301C1.66647 5.19533 1.91011 4.58175 2.34757 4.11779C2.78504 3.65384 3.38326 3.37458 4.01984 3.33717L4.1665 3.33301H15.8332ZM15.8332 4.99967H4.1665C3.96239 4.9997 3.76539 5.07464 3.61286 5.21027C3.46033 5.3459 3.36288 5.5328 3.339 5.73551L3.33317 5.83301V7.11217C3.82688 7.397 4.23931 7.80367 4.53105 8.29332C4.82279 8.78298 4.9841 9.33927 4.99957 9.90904C5.01503 10.4788 4.88413 11.043 4.61938 11.5478C4.35463 12.0525 3.96487 12.481 3.48734 12.7922L3.33317 12.8872V14.1663C3.3332 14.3705 3.40813 14.5675 3.54377 14.72C3.6794 14.8725 3.86629 14.97 4.069 14.9938L4.1665 14.9997H15.8332C16.0373 14.9996 16.2343 14.9247 16.3868 14.7891C16.5393 14.6534 16.6368 14.4666 16.6607 14.2638L16.6665 14.1663V12.8872C16.1728 12.6023 15.7604 12.1957 15.4686 11.706C15.1769 11.2164 15.0156 10.6601 15.0001 10.0903C14.9846 9.52054 15.1155 8.95632 15.3803 8.45156C15.645 7.9468 16.0348 7.51836 16.5123 7.20717L16.6665 7.11217V5.83301C16.6665 5.6289 16.5915 5.43189 16.4559 5.27936C16.3203 5.12684 16.1334 5.02939 15.9307 5.00551L15.8332 4.99967ZM8.33317 7.49967C8.53728 7.4997 8.73428 7.57464 8.88681 7.71027C9.03934 7.8459 9.13679 8.0328 9.16067 8.23551L9.1665 8.33301V11.6663C9.16627 11.8787 9.08494 12.083 8.93913 12.2375C8.79332 12.3919 8.59404 12.4849 8.38201 12.4973C8.16997 12.5098 7.96119 12.4408 7.79831 12.3045C7.63543 12.1681 7.53076 11.9748 7.50567 11.7638L7.49984 11.6663V8.33301C7.49984 8.11199 7.58763 7.90003 7.74392 7.74375C7.9002 7.58747 8.11216 7.49967 8.33317 7.49967Z" fill="#BBBBBB"/>
</svg>
