<svg width="60" height="55" viewBox="0 0 60 55" fill="none" xmlns="http://www.w3.org/2000/svg">
<circle cx="30" cy="25" r="25" fill="#26C48C"/>
<g clip-path="url(#clip0_31_290)">
<path d="M38.9587 15.6768C40.6251 17.1882 40.6251 19.6196 40.6251 24.481V26.6025C40.6251 31.4653 40.6251 33.8967 38.9587 35.4067C37.2922 36.9167 34.612 36.9167 29.2501 36.9167C23.8882 36.9167 21.2066 36.9167 19.5416 35.4067C17.8765 33.8967 17.8751 31.4653 17.8751 26.6025V24.481C17.8751 19.6182 17.8751 17.1868 19.5416 15.6768C21.208 14.1667 23.8882 14.1667 29.2501 14.1667C34.612 14.1667 37.2937 14.1667 38.9587 15.6768Z" stroke="white" stroke-width="1.8" stroke-linecap="round" stroke-linejoin="round"/>
<path d="M28.6557 20.0863C28.4075 20.219 28.2319 20.6597 27.8808 21.5395L27.5826 22.2914C27.4782 22.5489 27.4267 22.6784 27.3435 22.7779C27.2698 22.8643 27.1789 22.9328 27.0771 22.9785C26.962 23.0322 26.8289 23.0417 26.561 23.0654L25.783 23.1301C24.8734 23.206 24.4178 23.2439 24.221 23.4508C24.1371 23.5387 24.0741 23.646 24.0373 23.764C24.0005 23.882 23.9908 24.0074 24.0091 24.13C24.0515 24.4191 24.3981 24.7302 25.0928 25.3494L25.6846 25.8786C25.8889 26.0618 25.9904 26.1518 26.0539 26.2656C26.1108 26.3653 26.146 26.477 26.1568 26.5925C26.169 26.7221 26.1372 26.8595 26.0751 27.1312L25.8935 27.9225C25.6816 28.8513 25.5756 29.3141 25.7028 29.5732C25.7569 29.6842 25.8355 29.7803 25.932 29.8536C26.0286 29.9269 26.1403 29.9753 26.2582 29.9949C26.5337 30.0407 26.9242 29.7911 27.7022 29.2952L28.3681 28.8702C28.5982 28.7249 28.7117 28.6507 28.8343 28.6223C28.9429 28.5969 29.0556 28.5969 29.1642 28.6223C29.2853 28.6507 29.4019 28.7249 29.6304 28.8702L30.2964 29.2952C31.0758 29.7911 31.4648 30.0407 31.7403 29.9949C31.8582 29.9753 31.97 29.9269 32.0665 29.8536C32.163 29.7803 32.2416 29.6842 32.2957 29.5732C32.4229 29.3141 32.3169 28.8513 32.105 27.9225L31.9234 27.1327C31.8629 26.8595 31.8296 26.7221 31.8417 26.5925C31.8525 26.477 31.8877 26.3653 31.9446 26.2656C32.0082 26.1518 32.1111 26.0602 32.3139 25.8786L32.9057 25.3494C33.6004 24.7286 33.947 24.4175 33.9909 24.1316C34.0095 24.0087 33.9999 23.883 33.9631 23.7647C33.9263 23.6464 33.8632 23.5388 33.779 23.4508C33.5822 23.2454 33.1267 23.206 32.2155 23.1301L31.4376 23.0654C31.1697 23.0433 31.0365 23.0306 30.9215 22.9785C30.8197 22.9328 30.7287 22.8643 30.6551 22.7779C30.5718 22.6784 30.5189 22.5489 30.4174 22.2914L30.1178 21.5395C29.7666 20.6597 29.5911 20.219 29.3428 20.0863C29.2364 20.0297 29.1187 20.0002 28.9993 20.0002C28.8798 20.0002 28.7621 20.0297 28.6557 20.0863Z" fill="white"/>
</g>
<path d="M40.5001 28L45.2929 21.2507" stroke="white" stroke-width="1.8"/>
<circle cx="45.5001" cy="21.2083" r="2.70833" fill="white"/>
<defs>
<clipPath id="clip0_31_290">
<rect width="26" height="26" fill="white" transform="translate(16.7917 12)"/>
</clipPath>
</defs>
</svg>
