<svg width="20" height="20" viewBox="0 0 20 20" fill="none" xmlns="http://www.w3.org/2000/svg">
<g id="mynaui:gift">
<g id="Group">
<path id="Vector" d="M9.99998 17.5V10M9.99998 5.83333H6.62498C4.31665 5.83333 4.17498 2.5 6.62498 2.5C9.24998 2.5 9.99998 5.83333 9.99998 5.83333ZM9.99998 5.83333H13.375C15.7883 5.83333 15.7883 2.5 13.375 2.5C10.75 2.5 9.99998 5.83333 9.99998 5.83333Z" stroke="#BBBBBB" stroke-width="1.6" stroke-linecap="round" stroke-linejoin="round"/>
<path id="Vector_2" d="M16.6667 10V15.8334C16.6667 16.2754 16.4911 16.6993 16.1785 17.0119C15.866 17.3244 15.442 17.5 15 17.5H5C4.55797 17.5 4.13405 17.3244 3.82149 17.0119C3.50893 16.6993 3.33333 16.2754 3.33333 15.8334V10M17.5 10V7.50004C17.5 7.05801 17.3244 6.63409 17.0118 6.32153C16.6993 6.00897 16.2754 5.83337 15.8333 5.83337H4.16667C3.72464 5.83337 3.30072 6.00897 2.98816 6.32153C2.67559 6.63409 2.5 7.05801 2.5 7.50004V10H17.5Z" stroke="#BBBBBB" stroke-width="1.6" stroke-linecap="round" stroke-linejoin="round"/>
</g>
</g>
</svg>
