<svg width="20" height="20" viewBox="0 0 20 20" fill="none" xmlns="http://www.w3.org/2000/svg">
<g id="menu list icon">
<path id="Vector" d="M13.3333 10H15V13.3333H13.3333V10Z" fill="#BBBBBB"/>
<path id="Vector_2" d="M16.6667 5.83333V4.16667C16.6667 3.2475 15.9192 2.5 15 2.5H4.16669C2.78835 2.5 1.66669 3.62167 1.66669 5V15C1.66669 16.8342 3.16169 17.5 4.16669 17.5H16.6667C17.5859 17.5 18.3334 16.7525 18.3334 15.8333V7.5C18.3334 6.58083 17.5859 5.83333 16.6667 5.83333ZM4.16669 4.16667H15V5.83333H4.16669C3.95212 5.82374 3.74952 5.73174 3.60108 5.57651C3.45264 5.42129 3.3698 5.21478 3.3698 5C3.3698 4.78522 3.45264 4.57871 3.60108 4.42349C3.74952 4.26826 3.95212 4.17626 4.16669 4.16667ZM16.6667 15.8333H4.17669C3.79169 15.8233 3.33335 15.6708 3.33335 15V7.34583C3.59502 7.44 3.87252 7.5 4.16669 7.5H16.6667V15.8333Z" fill="#BBBBBB"/>
</g>
</svg>
