<svg width="20" height="20" viewBox="0 0 20 20" fill="none" xmlns="http://www.w3.org/2000/svg">
<path fill-rule="evenodd" clip-rule="evenodd" d="M7.01488 6.31675L7.09894 6.39019L14.6076 13.898C14.7061 13.9963 14.7799 14.1164 14.8232 14.2486C14.8665 14.3808 14.878 14.5214 14.8568 14.6589C14.8356 14.7963 14.7823 14.9269 14.7012 15.0399C14.62 15.1529 14.5134 15.2452 14.39 15.3093L14.2873 15.3536L5.09833 18.7398C3.37114 19.3769 1.68907 17.7532 2.21377 16.0287L2.25801 15.8995L5.64339 6.7105C5.68815 6.58877 5.75911 6.47838 5.85127 6.38712C5.94342 6.29587 6.05451 6.22599 6.17666 6.18243C6.29882 6.13886 6.42906 6.12269 6.55816 6.13504C6.68726 6.1474 6.81207 6.18798 6.92374 6.25392L7.01488 6.31675ZM6.82553 8.61908L3.91885 16.5118C3.89182 16.5852 3.88476 16.6645 3.89837 16.7416C3.91199 16.8186 3.9458 16.8907 3.99635 16.9504C4.0469 17.0101 4.11238 17.0554 4.18613 17.0816C4.25987 17.1077 4.33924 17.1138 4.41612 17.0993L4.48691 17.079L12.3779 14.1714L6.82553 8.61908ZM15.0058 10.1605C15.8119 10.2029 16.9171 10.3728 17.878 10.9497C18.0728 11.0652 18.2159 11.251 18.2778 11.4689C18.3398 11.6867 18.3158 11.92 18.211 12.1207C18.1061 12.3214 17.9282 12.4743 17.714 12.5478C17.4998 12.6213 17.2656 12.6099 17.0595 12.5159L16.9675 12.4672C16.364 12.1044 15.5925 11.9629 14.9129 11.9275C14.6329 11.912 14.3522 11.9132 14.0723 11.931L13.7927 11.9584C13.5619 11.9882 13.3286 11.9259 13.1435 11.7849C12.9583 11.6439 12.8361 11.4356 12.8034 11.2052C12.7707 10.9748 12.8301 10.7408 12.9687 10.5538C13.1074 10.3669 13.3141 10.2421 13.5441 10.2065C14.0287 10.1439 14.5182 10.1282 15.0058 10.1596M16.7976 7.69443C17.0231 7.6949 17.2398 7.78142 17.4036 7.93631C17.5675 8.0912 17.666 8.30278 17.6791 8.52785C17.6922 8.75292 17.6189 8.9745 17.4741 9.14735C17.3294 9.3202 17.1241 9.43128 16.9002 9.45791L16.7976 9.4641H16.1711C15.9457 9.46363 15.7289 9.37711 15.5651 9.22222C15.4013 9.06733 15.3028 8.85575 15.2897 8.63068C15.2766 8.40561 15.3499 8.18403 15.4946 8.01118C15.6394 7.83833 15.8446 7.72725 16.0685 7.70063L16.1711 7.69443H16.7976ZM13.9821 7.01576C14.1344 7.16813 14.2259 7.37084 14.2395 7.58588C14.253 7.80092 14.1876 8.0135 14.0555 8.18374L13.9821 8.26692L13.0441 9.20573C12.8853 9.36611 12.6711 9.4597 12.4455 9.46736C12.2199 9.47501 11.9999 9.39615 11.8305 9.2469C11.6611 9.09766 11.5552 8.88933 11.5344 8.66454C11.5136 8.43976 11.5795 8.21553 11.7187 8.03775L11.7921 7.95457L12.73 7.01665C12.8122 6.93438 12.9098 6.86912 13.0172 6.82459C13.1246 6.78006 13.2398 6.75714 13.356 6.75714C13.4723 6.75714 13.5875 6.78006 13.6949 6.82459C13.8023 6.86912 13.8999 6.9335 13.9821 7.01576ZM11.693 2.35711C12.0894 3.5481 11.877 4.85235 11.6293 5.76372C11.481 6.33211 11.2765 6.88432 11.0188 7.41217C10.914 7.6222 10.73 7.78201 10.5074 7.85643C10.2848 7.93085 10.0418 7.9138 9.83175 7.80902C9.62172 7.70424 9.46191 7.52031 9.38749 7.29771C9.31307 7.0751 9.33012 6.83205 9.4349 6.62201C9.64078 6.19808 9.80381 5.75464 9.92156 5.2983C10.1224 4.56212 10.2233 3.76312 10.0684 3.10834L10.0145 2.91721C9.97591 2.80656 9.95971 2.68934 9.96682 2.57237C9.97393 2.4554 10.0042 2.34101 10.0559 2.23584C10.1076 2.13066 10.1796 2.0368 10.2679 1.9597C10.3561 1.8826 10.4588 1.8238 10.5699 1.78671C10.6811 1.74961 10.7985 1.73497 10.9154 1.74363C11.0323 1.75229 11.1462 1.78407 11.2507 1.83714C11.3552 1.8902 11.4481 1.9635 11.524 2.05276C11.5999 2.14202 11.6574 2.24547 11.693 2.35711ZM16.4844 4.51434C16.6503 4.68027 16.7434 4.90529 16.7434 5.13992C16.7434 5.37454 16.6503 5.59956 16.4844 5.76549L15.8588 6.39107C15.7772 6.47558 15.6795 6.54299 15.5716 6.58936C15.4636 6.63574 15.3475 6.66015 15.23 6.66117C15.1125 6.66219 14.996 6.6398 14.8873 6.59531C14.7785 6.55082 14.6798 6.48512 14.5967 6.40204C14.5136 6.31896 14.4479 6.22017 14.4034 6.11142C14.3589 6.00268 14.3365 5.88617 14.3375 5.76868C14.3386 5.65119 14.363 5.53508 14.4093 5.42713C14.4557 5.31918 14.5231 5.22154 14.6076 5.13992L15.2332 4.51434C15.3991 4.34846 15.6242 4.25527 15.8588 4.25527C16.0934 4.25527 16.3184 4.34846 16.4844 4.51434Z" fill="#BBBBBB"/>
</svg>
