<svg width="20" height="20" viewBox="0 0 20 20" fill="none" xmlns="http://www.w3.org/2000/svg">
<g id="menu list icon">
<path id="Vector" d="M15.9292 6.10167C16.5123 10.2026 13.3696 13.64 10.9956 13.9704C8.62153 14.3009 4.64031 11.838 4.05834 7.75197C3.94879 6.9812 3.99383 6.19664 4.19087 5.44308C4.38791 4.68953 4.7331 3.98173 5.20673 3.36011C5.68036 2.73849 6.27316 2.21522 6.95127 1.82017C7.62938 1.42512 8.37953 1.16603 9.15888 1.05769C9.93824 0.949357 10.7315 0.993897 11.4935 1.18877C12.2554 1.38364 12.9711 1.72503 13.5997 2.19344C14.2282 2.66185 14.7573 3.24811 15.1568 3.91875C15.5562 4.58939 15.8182 5.33127 15.9277 6.10204L15.9292 6.10167Z" stroke="#BBBBBB" stroke-width="1.6" stroke-miterlimit="10"/>
<path id="Vector_2" d="M14 19C12.7722 18.5241 11.6323 17.5336 11.0642 15.9834" stroke="#BBBBBB" stroke-width="1.6" stroke-miterlimit="10" stroke-linecap="round"/>
<path id="Vector_3" d="M10.2897 14.1646L10 16L12 15.6707L11.2895 14L10.2897 14.1646Z" stroke="#BBBBBB" stroke-width="1.6" stroke-linecap="round" stroke-linejoin="round"/>
</g>
</svg>
