<svg width="16" height="19" viewBox="0 0 16 19" fill="none" xmlns="http://www.w3.org/2000/svg">
<g id="Group">
<path id="Vector" d="M8.05414 15C8.9253 15.0101 9.78968 14.8459 10.5965 14.5171C11.4033 14.1884 12.1362 13.7017 12.7523 13.0857C13.3683 12.4696 13.855 11.7367 14.1838 10.9299C14.5125 10.1231 14.6767 9.25867 14.6666 8.38752C14.6366 4.70502 11.6283 1.69585 7.94581 1.66669C7.07469 1.65675 6.21036 1.821 5.40361 2.14979C4.59685 2.47858 3.86394 2.96528 3.24792 3.58129C2.6319 4.19731 2.1452 4.93022 1.81641 5.73698C1.48762 6.54373 1.32337 7.40806 1.33331 8.27919C1.36331 11.9617 4.37164 14.9709 8.05414 15Z" stroke="#BBBBBB" stroke-width="1.6" stroke-linecap="round"/>
<path id="Vector_2" d="M7.375 18.3333C7.375 18.4991 7.44085 18.6581 7.55806 18.7753C7.67527 18.8925 7.83424 18.9583 8 18.9583C8.16576 18.9583 8.32473 18.8925 8.44194 18.7753C8.55915 18.6581 8.625 18.4991 8.625 18.3333H7.375ZM7.375 17.5V18.3333H8.625V17.5H7.375Z" fill="#BBBBBB"/>
<path id="Vector_3" d="M8.71415 5.83337L6.33331 8.33337H9.66665L7.28581 10.8334" stroke="#BBBBBB" stroke-width="1.6" stroke-linecap="round" stroke-linejoin="round"/>
<path id="Vector_4" d="M9.25 15V16.25C9.25 16.6383 9.25 16.8325 9.18667 16.9858C9.10191 17.1896 8.93977 17.3515 8.73583 17.4358C8.5825 17.5 8.38833 17.5 8 17.5C7.61167 17.5 7.4175 17.5 7.26417 17.4367C7.06038 17.3519 6.89855 17.1898 6.81417 16.9858C6.75 16.8325 6.75 16.6383 6.75 16.25V15" stroke="#BBBBBB" stroke-width="1.6"/>
</g>
</svg>
