<svg width="20" height="20" viewBox="0 0 20 20" fill="none" xmlns="http://www.w3.org/2000/svg">
<path d="M2.03125 13.125C2.4625 13.125 2.8125 13.475 2.8125 13.9062V15.1562C2.8125 15.5292 2.96066 15.8869 3.22438 16.1506C3.4881 16.4143 3.84579 16.5625 4.21875 16.5625H5.46875C5.67595 16.5625 5.87466 16.6448 6.02118 16.7913C6.16769 16.9378 6.25 17.1365 6.25 17.3438C6.25 17.551 6.16769 17.7497 6.02118 17.8962C5.87466 18.0427 5.67595 18.125 5.46875 18.125H4.21875C3.43139 18.125 2.67628 17.8122 2.11953 17.2555C1.56278 16.6987 1.25 15.9436 1.25 15.1562V13.9062C1.25 13.475 1.6 13.125 2.03125 13.125ZM17.9688 13.125C18.4 13.125 18.75 13.475 18.75 13.9062V15.1562C18.75 15.9436 18.4372 16.6987 17.8805 17.2555C17.3237 17.8122 16.5686 18.125 15.7812 18.125H14.5312C14.324 18.125 14.1253 18.0427 13.9788 17.8962C13.8323 17.7497 13.75 17.551 13.75 17.3438C13.75 17.1365 13.8323 16.9378 13.9788 16.7913C14.1253 16.6448 14.324 16.5625 14.5312 16.5625H15.7812C16.1542 16.5625 16.5119 16.4143 16.7756 16.1506C17.0393 15.8869 17.1875 15.5292 17.1875 15.1562V13.9062C17.1875 13.475 17.5375 13.125 17.9688 13.125ZM4.84375 5.625C5.275 5.625 5.625 5.975 5.625 6.40625V13.5938C5.625 13.801 5.54269 13.9997 5.39618 14.1462C5.24966 14.2927 5.05095 14.375 4.84375 14.375C4.63655 14.375 4.43784 14.2927 4.29132 14.1462C4.14481 13.9997 4.0625 13.801 4.0625 13.5938V6.40625C4.0625 5.975 4.4125 5.625 4.84375 5.625ZM8.28125 5.625C8.7125 5.625 9.0625 5.975 9.0625 6.40625V13.5938C9.0625 13.801 8.98019 13.9997 8.83368 14.1462C8.68716 14.2927 8.48845 14.375 8.28125 14.375C8.07405 14.375 7.87534 14.2927 7.72882 14.1462C7.58231 13.9997 7.5 13.801 7.5 13.5938V6.40625C7.5 5.975 7.85 5.625 8.28125 5.625ZM11.7188 5.625C12.15 5.625 12.5 5.975 12.5 6.40625V13.5938C12.5 13.801 12.4177 13.9997 12.2712 14.1462C12.1247 14.2927 11.926 14.375 11.7188 14.375C11.5115 14.375 11.3128 14.2927 11.1663 14.1462C11.0198 13.9997 10.9375 13.801 10.9375 13.5938V6.40625C10.9375 5.975 11.2875 5.625 11.7188 5.625ZM15.1562 5.625C15.5875 5.625 15.9375 5.975 15.9375 6.40625V13.5938C15.9375 13.801 15.8552 13.9997 15.7087 14.1462C15.5622 14.2927 15.3635 14.375 15.1562 14.375C14.949 14.375 14.7503 14.2927 14.6038 14.1462C14.4573 13.9997 14.375 13.801 14.375 13.5938V6.40625C14.375 5.975 14.725 5.625 15.1562 5.625ZM5.46875 1.875C5.67595 1.875 5.87466 1.95731 6.02118 2.10382C6.16769 2.25034 6.25 2.44905 6.25 2.65625C6.25 2.86345 6.16769 3.06216 6.02118 3.20868C5.87466 3.35519 5.67595 3.4375 5.46875 3.4375H4.21875C3.84579 3.4375 3.4881 3.58566 3.22438 3.84938C2.96066 4.1131 2.8125 4.47079 2.8125 4.84375V6.09375C2.8125 6.30095 2.73019 6.49966 2.58368 6.64618C2.43716 6.79269 2.23845 6.875 2.03125 6.875C1.82405 6.875 1.62534 6.79269 1.47882 6.64618C1.33231 6.49966 1.25 6.30095 1.25 6.09375V4.84375C1.25 4.05639 1.56278 3.30128 2.11953 2.74453C2.67628 2.18778 3.43139 1.875 4.21875 1.875H5.46875ZM15.7812 1.875C16.5686 1.875 17.3237 2.18778 17.8805 2.74453C18.4372 3.30128 18.75 4.05639 18.75 4.84375V6.09375C18.75 6.30095 18.6677 6.49966 18.5212 6.64618C18.3747 6.79269 18.176 6.875 17.9688 6.875C17.7615 6.875 17.5628 6.79269 17.4163 6.64618C17.2698 6.49966 17.1875 6.30095 17.1875 6.09375V4.84375C17.1875 4.47079 17.0393 4.1131 16.7756 3.84938C16.5119 3.58566 16.1542 3.4375 15.7812 3.4375H14.5312C14.324 3.4375 14.1253 3.35519 13.9788 3.20868C13.8323 3.06216 13.75 2.86345 13.75 2.65625C13.75 2.44905 13.8323 2.25034 13.9788 2.10382C14.1253 1.95731 14.324 1.875 14.5312 1.875H15.7812Z" fill="#BBBBBB"/>
</svg>
