<svg width="20" height="20" viewBox="0 0 20 20" fill="none" xmlns="http://www.w3.org/2000/svg">
<g id="menu list icon">
<path id="Vector" d="M10.9063 2.45771L10.9063 2.45772C11.0376 2.513 11.1497 2.60575 11.2286 2.72437C11.3076 2.843 11.3498 2.98225 11.35 3.12472L11.35 3.12489V16.8749C11.35 17.0177 11.3078 17.1572 11.2288 17.2761C11.1497 17.395 11.0374 17.488 10.9057 17.5432C10.7741 17.5985 10.6291 17.6137 10.4889 17.5869C10.3486 17.5601 10.2195 17.4925 10.1175 17.3926L10.1174 17.3925L6.48785 13.8274H4.375C3.8512 13.8274 3.34885 13.6193 2.97846 13.2489C2.60808 12.8785 2.4 12.3762 2.4 11.8524V8.11489C2.4 7.59108 2.60808 7.08873 2.97846 6.71835C3.34885 6.34797 3.8512 6.13989 4.375 6.13989H6.48936L10.1189 2.60581L10.9063 2.45771ZM10.9063 2.45771C10.7755 2.40273 10.6308 2.38576 10.4901 2.41246C10.3501 2.43901 10.221 2.50624 10.119 2.60574L10.9063 2.45771ZM7.29251 12.5847L7.29258 12.5848L9.9 15.1465V4.84202L7.29106 7.38524L7.29105 7.38524L7.22125 7.31364L7.29251 12.5847ZM7.29251 12.5847C7.15701 12.4519 6.9748 12.3774 6.78501 12.3774H4.375C4.23576 12.3774 4.10223 12.3221 4.00377 12.2236C3.90531 12.1252 3.85 11.9916 3.85 11.8524V8.11614C3.85 7.9769 3.90531 7.84336 4.00377 7.74491C4.10223 7.64645 4.23576 7.59114 4.375 7.59114H6.78356L7.29251 12.5847ZM12.5604 6.42272L12.5605 6.42267C12.6197 6.34808 12.6931 6.28589 12.7765 6.23969C12.8598 6.19348 12.9514 6.16415 13.0461 6.15338C13.1408 6.1426 13.2366 6.1506 13.3282 6.1769C13.4163 6.2022 13.4988 6.24397 13.5713 6.29996L13.5792 6.30395L13.5893 6.31401L13.5912 6.31555L13.5943 6.31801L13.5942 6.31807L13.613 6.33432L13.6131 6.33443L13.6706 6.38443L13.6723 6.38587L13.6723 6.38589C13.7208 6.43002 13.7819 6.49126 13.8552 6.56868L13.8561 6.56973L13.8561 6.56973C14.0009 6.7273 14.1889 6.95623 14.3741 7.26036L14.3743 7.26054C14.7462 7.87399 15.105 8.78296 15.105 9.99739C15.105 11.2104 14.7462 12.1206 14.3744 12.7341C14.3743 12.7341 14.3743 12.7342 14.3743 12.7342L12.5604 6.42272ZM12.5604 6.42272C12.4413 6.57288 12.3864 6.76411 12.4079 6.95459C12.4292 7.1442 12.5245 7.3177 12.6729 7.43751L12.6917 7.45418C12.8618 7.62192 13.0105 7.81005 13.1345 8.01428L13.1346 8.01449C13.3888 8.43078 13.655 9.08172 13.655 9.99614C13.655 10.9106 13.3888 11.5641 13.1346 11.9816L13.1342 11.9822C13.0356 12.1468 12.9209 12.3011 12.7918 12.443C12.7449 12.4924 12.7121 12.525 12.6921 12.5428L12.6698 12.5626L12.6697 12.5625M12.5604 6.42272L12.6697 12.5625M12.6697 12.5625L12.6665 12.5657M12.6697 12.5625L12.6665 12.5657M12.6665 12.5657C12.5206 12.6862 12.4275 12.8591 12.4073 13.0474C12.387 13.2375 12.4425 13.428 12.5619 13.5773L12.6665 12.5657ZM13.934 4.94891L13.934 4.94888L13.9232 4.9391C13.8483 4.88092 13.7855 4.8086 13.7384 4.72622C13.6906 4.64258 13.6599 4.55024 13.6482 4.45461C13.6364 4.35899 13.6439 4.26198 13.6701 4.16926C13.6963 4.07655 13.7407 3.98998 13.8007 3.91463C13.8608 3.83927 13.9352 3.77664 14.0197 3.73039C14.1042 3.68414 14.1971 3.65519 14.293 3.64525C14.3888 3.63531 14.4856 3.64457 14.5778 3.67249C14.6663 3.69926 14.7487 3.74268 14.8208 3.80037L14.828 3.80395L14.8392 3.8152L14.8444 3.81963L14.8724 3.84279L14.8742 3.84426L14.8742 3.84428C15.0189 3.96959 15.1579 4.10139 15.2908 4.23925L15.291 4.23949C15.6411 4.60523 15.9566 5.00251 16.2336 5.42627C17.1304 6.78411 17.607 8.37624 17.6038 10.0035M13.934 4.94891L15.2175 15.6911M13.934 4.94891L13.9358 4.9505L14.0004 5.00639C14.0005 5.00645 14.0005 5.0065 14.0006 5.00655C14.0575 5.05638 14.1389 5.13524 14.2457 5.24448C14.4547 5.46218 14.738 5.78978 15.0214 6.22219L15.0214 6.22225C15.5885 7.08641 16.155 8.35762 16.155 10.0036L16.155 10.004C16.1598 11.347 15.7654 12.6612 15.0217 13.7795L15.0214 13.78C14.738 14.2112 14.4547 14.5364 14.2456 14.7529L14.2455 14.753C14.1469 14.8555 14.0439 14.9536 13.9367 15.047L13.9367 15.047L13.9359 15.0478M13.934 4.94891L14.0025 15.1224L13.9888 15.1349M17.6038 10.0035C17.6091 11.6297 17.1322 13.2209 16.2335 14.5761C15.9565 14.9995 15.6405 15.3961 15.2895 15.7605M17.6038 10.0035C17.6038 10.0036 17.6037 10.0037 17.6037 10.0038L17.5037 10.0036L17.6037 10.0033C17.6037 10.0034 17.6038 10.0034 17.6038 10.0035ZM15.2895 15.7605L15.2175 15.6911M15.2895 15.7605C15.2895 15.7605 15.2895 15.7605 15.2895 15.7605L15.2175 15.6911M15.2895 15.7605C15.1587 15.8964 15.0482 15.9993 14.9683 16.0715L14.9668 16.073L14.9667 16.073L14.873 16.1542L14.8708 16.1561L14.8708 16.156L14.8296 16.1898L14.8271 16.1918L14.8271 16.1917C14.6764 16.3073 14.4863 16.3591 14.2977 16.336C14.1092 16.3129 13.9373 16.2167 13.8189 16.0681C13.7006 15.9196 13.6453 15.7305 13.6649 15.5416C13.6845 15.3526 13.7774 15.1789 13.9237 15.0578L13.9359 15.0478M15.2175 15.6911C15.0887 15.8249 14.98 15.9261 14.9012 15.9974L14.8075 16.0786L14.7662 16.1124C14.6363 16.212 14.4724 16.2567 14.3099 16.2367C14.1474 16.2168 13.9992 16.1339 13.8971 16.0058C13.7951 15.8778 13.7474 15.7148 13.7643 15.5519C13.7812 15.389 13.8614 15.2393 13.9875 15.1349H13.9888M13.9359 15.0478L13.9352 15.0484L13.9242 15.0584L13.9215 15.0609L13.9748 15.1195L13.9875 15.1335L13.9888 15.1349M13.9359 15.0478L13.9368 15.0471L13.9515 15.0349H13.9875H13.9888V15.1066V15.1073V15.1349M10.8675 2.54988L10.8675 2.54989L10.8675 2.54988Z" fill="#BBBBBB" stroke="#BBBBBB" stroke-width="0.2"/>
</g>
</svg>
