<svg width="20" height="20" viewBox="0 0 20 20" fill="none" xmlns="http://www.w3.org/2000/svg">
<g id="menu list icon" clip-path="url(#clip0_18_11349)">
<path id="Vector" d="M18.05 11.0738C18.2806 11.2647 18.4635 11.5073 18.5837 11.7822C18.7139 12.0802 18.7661 12.4064 18.7354 12.7302C18.7047 13.0539 18.5921 13.3645 18.4082 13.6327C18.2243 13.9009 17.9751 14.1179 17.6842 14.2632L17.6793 14.2656L17.6793 14.2655L17.6535 14.2773L17.6502 14.2788L17.6501 14.2787L14.6173 15.5693L14.6159 15.5699L14.6159 15.5699C14.5871 15.5819 14.5575 15.5918 14.5273 15.5998L14.5254 15.6003L14.5254 15.6003L9.52553 16.8503L9.52544 16.8503L18.05 11.0738ZM18.05 11.0738V11.0708L17.9915 11.0258C17.7592 10.8468 17.4887 10.724 17.201 10.6669C16.9775 10.6226 16.7483 10.6188 16.5244 10.6554C17.9853 9.18559 18.7437 7.70975 18.7437 6.25007C18.7437 4.18783 17.0856 2.50658 15.0427 2.50632M18.05 11.0738L9.375 16.8688C9.37499 16.8688 9.37498 16.8688 9.37497 16.8688H1.25C0.920137 16.8688 0.603784 16.7378 0.370536 16.5045C0.137288 16.2713 0.00624999 15.9549 0.00624999 15.6251V12.5001C0.00624999 12.1702 0.137288 11.8539 0.370536 11.6206C0.603784 11.3874 0.920137 11.2563 1.25 11.2563H3.49412L5.26311 9.48732L5.36953 9.59304L5.26347 9.48697L5.26333 9.4871C5.58296 9.16543 5.98382 8.93889 6.42117 8.83024M15.0427 2.50632C15.0428 2.50632 15.043 2.50632 15.0431 2.50632L15.0422 2.65632V2.50632C15.0423 2.50632 15.0425 2.50632 15.0427 2.50632ZM15.0427 2.50632C14.4672 2.50279 13.8987 2.63336 13.3824 2.88768C12.9233 3.11386 12.5166 3.43239 12.1875 3.82258C11.8584 3.43239 11.4517 3.11386 10.9926 2.88768C10.4763 2.63335 9.90785 2.50279 9.33234 2.50632M9.33234 2.50632C9.3325 2.50632 9.33266 2.50632 9.33281 2.50632V2.65632L9.33187 2.50632C9.33203 2.50632 9.33219 2.50632 9.33234 2.50632ZM9.33234 2.50632C7.28944 2.50658 5.63125 4.18783 5.63125 6.25007C5.63125 7.11341 5.88929 7.95217 6.42117 8.83024M6.42117 8.83024C6.44824 8.87493 6.47602 8.91972 6.50451 8.96462L6.57657 8.7969C6.52431 8.80637 6.47249 8.81749 6.42117 8.83024ZM16.3362 10.696L16.2496 10.716C16.1797 10.7838 16.1082 10.8517 16.0352 10.9196L16.324 10.8527C16.3377 10.8395 16.3514 10.8263 16.365 10.8131M16.3362 10.696C16.3353 10.6962 16.3344 10.6964 16.3334 10.6967L16.365 10.8131M16.3362 10.696L16.3388 10.6953L16.3659 10.8122M16.3362 10.696L16.3659 10.8122M16.365 10.8131L16.3727 10.8415L16.3659 10.8122M16.365 10.8131C16.3653 10.8128 16.3656 10.8125 16.3659 10.8122M12.6219 5.17819L12.7601 5.23644C12.9487 4.78885 13.2666 4.40771 13.6731 4.14181C14.0795 3.87591 14.5561 3.73733 15.0417 3.74381L15.0417 3.74382H15.0437C16.3742 3.74382 17.5063 4.89073 17.5063 6.25007C17.5063 7.74972 16.3046 9.48173 13.9357 11.2477L13.0579 11.4496C13.1192 11.1956 13.1346 10.932 13.1025 10.6713C13.0594 10.3212 12.9321 9.98673 12.7314 9.69662C12.5307 9.40651 12.2627 9.1694 11.9502 9.00563C11.6378 8.84186 11.2903 8.75631 10.9375 8.75632H7.86181C7.17723 7.83357 6.86875 7.03384 6.86875 6.25007C6.86875 4.89079 8.00073 3.74382 9.33281 3.74383L9.33481 3.74381C9.82048 3.73733 10.297 3.87591 10.7035 4.14181C11.1098 4.40761 11.4276 4.78856 11.6162 5.23594C11.6629 5.3491 11.7421 5.44589 11.8438 5.51405C11.9457 5.58236 12.0656 5.61884 12.1883 5.61884C12.311 5.61884 12.4309 5.58236 12.5328 5.51405C12.6347 5.44574 12.714 5.34867 12.7606 5.23519L12.6219 5.17819ZM12.6219 5.17819C12.8221 4.70309 13.1595 4.29853 13.5909 4.01628C14.0224 3.73404 14.5282 3.58694 15.0437 3.59382L11.7547 5.17819C11.79 5.26417 11.8501 5.3377 11.9273 5.38945C12.0045 5.4412 12.0953 5.46884 12.1883 5.46884C12.2812 5.46884 12.3721 5.4412 12.4493 5.38945C12.5265 5.3377 12.5866 5.26417 12.6219 5.17819ZM11.2498 13.1188C11.2963 13.1189 11.3427 13.1137 11.388 13.1034L11.3883 13.1033L16.6227 11.8994L16.6227 11.8994L16.6254 11.8987L16.6442 11.894L16.6442 11.8941L16.6473 11.8932C16.8086 11.8492 16.9805 11.8664 17.1299 11.9414C17.2793 12.0165 17.3958 12.1441 17.4569 12.2997C17.518 12.4554 17.5194 12.6281 17.4609 12.7848C17.403 12.9396 17.2906 13.068 17.1449 13.1458L14.1771 14.4098L9.29869 15.6313H4.36875V12.1317L6.13812 10.3616L6.13837 10.3613C6.25469 10.2444 6.39304 10.1517 6.54542 10.0886C6.6978 10.0255 6.86119 9.99332 7.02611 9.99382H7.02656H10.9375C11.1878 9.99382 11.4278 10.0933 11.6048 10.2702C11.7818 10.4472 11.8813 10.6873 11.8813 10.9376C11.8813 11.1879 11.7818 11.4279 11.6048 11.6049C11.4278 11.7819 11.1878 11.8813 10.9375 11.8813H8.75C8.5859 11.8813 8.42852 11.9465 8.31248 12.0625C8.19644 12.1786 8.13125 12.336 8.13125 12.5001C8.13125 12.6642 8.19644 12.8216 8.31248 12.9376C8.42852 13.0536 8.5859 13.1188 8.75 13.1188H11.2498ZM11.2498 13.1188L11.25 12.9688V13.1188H11.2498ZM1.24375 15.6251V12.5001C1.24375 12.4984 1.24441 12.4968 1.24558 12.4957C1.24675 12.4945 1.24834 12.4938 1.25 12.4938H3.13125V15.6313H1.25C1.24834 15.6313 1.24675 15.6307 1.24558 15.6295C1.24441 15.6283 1.24375 15.6267 1.24375 15.6251Z" fill="#BBBBBB" stroke="#BBBBBB" stroke-width="0.3"/>
</g>
<defs>
<clipPath id="clip0_18_11349">
<rect width="20" height="20" fill="white"/>
</clipPath>
</defs>
</svg>
