<svg width="59" height="58" viewBox="0 0 59 58" fill="none" xmlns="http://www.w3.org/2000/svg">
<path d="M36.8525 52.9567L30.2891 34.9802L40.9732 28.7505L48.2602 48.7657C48.3503 49.0128 48.3665 49.2809 48.3067 49.5371C48.2469 49.7933 48.1137 50.0265 47.9234 50.2082C47.7331 50.3899 47.494 50.5122 47.2353 50.56C46.9766 50.6079 46.7095 50.5794 46.4668 50.4778L43.149 49.0886C42.7218 48.9101 42.2423 48.9027 41.8097 49.0679C41.3772 49.2332 41.0247 49.5584 40.8253 49.9763L39.3459 53.0758C39.2312 53.3166 39.048 53.5182 38.8191 53.6552C38.5903 53.7922 38.326 53.8585 38.0596 53.8457C37.7932 53.833 37.5365 53.7418 37.3217 53.5837C37.1069 53.4255 36.9437 53.2074 36.8525 52.9567Z" fill="url(#paint0_linear_75_6619)"/>
<path d="M36.8525 52.9567L30.2891 34.9802L40.9732 28.7505L48.2602 48.7657C48.3503 49.0128 48.3665 49.2809 48.3067 49.5371C48.2469 49.7933 48.1137 50.0265 47.9234 50.2082C47.7331 50.3899 47.494 50.5122 47.2353 50.56C46.9766 50.6079 46.7095 50.5794 46.4668 50.4778L43.149 49.0886C42.7218 48.9101 42.2423 48.9027 41.8097 49.0679C41.3772 49.2332 41.0247 49.5584 40.8253 49.9763L39.3459 53.0758C39.2312 53.3166 39.048 53.5182 38.8191 53.6552C38.5903 53.7922 38.326 53.8585 38.0596 53.8457C37.7932 53.833 37.5365 53.7418 37.3217 53.5837C37.1069 53.4255 36.9437 53.2074 36.8525 52.9567Z" fill="url(#paint1_linear_75_6619)"/>
<path d="M36.8525 52.9567L30.2891 34.9802L40.9732 28.7505L48.2602 48.7657C48.3503 49.0128 48.3665 49.2809 48.3067 49.5371C48.2469 49.7933 48.1137 50.0265 47.9234 50.2082C47.7331 50.3899 47.494 50.5122 47.2353 50.56C46.9766 50.6079 46.7095 50.5794 46.4668 50.4778L43.149 49.0886C42.7218 48.9101 42.2423 48.9027 41.8097 49.0679C41.3772 49.2332 41.0247 49.5584 40.8253 49.9763L39.3459 53.0758C39.2312 53.3166 39.048 53.5182 38.8191 53.6552C38.5903 53.7922 38.326 53.8585 38.0596 53.8457C37.7932 53.833 37.5365 53.7418 37.3217 53.5837C37.1069 53.4255 36.9437 53.2074 36.8525 52.9567Z" fill="url(#paint2_linear_75_6619)"/>
<path d="M36.8525 52.9567L30.2891 34.9802L40.9732 28.7505L48.2602 48.7657C48.3503 49.0128 48.3665 49.2809 48.3067 49.5371C48.2469 49.7933 48.1137 50.0265 47.9234 50.2082C47.7331 50.3899 47.494 50.5122 47.2353 50.56C46.9766 50.6079 46.7095 50.5794 46.4668 50.4778L43.149 49.0886C42.7218 48.9101 42.2423 48.9027 41.8097 49.0679C41.3772 49.2332 41.0247 49.5584 40.8253 49.9763L39.3459 53.0758C39.2312 53.3166 39.048 53.5182 38.8191 53.6552C38.5903 53.7922 38.326 53.8585 38.0596 53.8457C37.7932 53.833 37.5365 53.7418 37.3217 53.5837C37.1069 53.4255 36.9437 53.2074 36.8525 52.9567Z" fill="url(#paint3_linear_75_6619)"/>
<path d="M23.0209 52.9567L29.5843 34.9802L18.9002 28.7505L11.6132 48.7657C11.523 49.0128 11.5069 49.2809 11.5667 49.5371C11.6265 49.7933 11.7597 50.0265 11.95 50.2082C12.1403 50.3899 12.3794 50.5122 12.6381 50.56C12.8968 50.6079 13.1638 50.5794 13.4066 50.4778L16.7262 49.0886C17.1532 48.9107 17.6323 48.9035 18.0644 49.0687C18.4966 49.2339 18.8487 49.5588 19.0481 49.9763L20.5293 53.0758C20.6442 53.3161 20.8275 53.5171 21.0561 53.6537C21.2847 53.7902 21.5486 53.8563 21.8146 53.8436C22.0807 53.8309 22.337 53.7399 22.5516 53.5822C22.7662 53.4244 22.9294 53.2068 23.0209 52.9567Z" fill="url(#paint4_linear_75_6619)"/>
<path d="M23.0209 52.9567L29.5843 34.9802L18.9002 28.7505L11.6132 48.7657C11.523 49.0128 11.5069 49.2809 11.5667 49.5371C11.6265 49.7933 11.7597 50.0265 11.95 50.2082C12.1403 50.3899 12.3794 50.5122 12.6381 50.56C12.8968 50.6079 13.1638 50.5794 13.4066 50.4778L16.7262 49.0886C17.1532 48.9107 17.6323 48.9035 18.0644 49.0687C18.4966 49.2339 18.8487 49.5588 19.0481 49.9763L20.5293 53.0758C20.6442 53.3161 20.8275 53.5171 21.0561 53.6537C21.2847 53.7902 21.5486 53.8563 21.8146 53.8436C22.0807 53.8309 22.337 53.7399 22.5516 53.5822C22.7662 53.4244 22.9294 53.2068 23.0209 52.9567Z" fill="url(#paint5_radial_75_6619)"/>
<path d="M23.0209 52.9567L29.5843 34.9802L18.9002 28.7505L11.6132 48.7657C11.523 49.0128 11.5069 49.2809 11.5667 49.5371C11.6265 49.7933 11.7597 50.0265 11.95 50.2082C12.1403 50.3899 12.3794 50.5122 12.6381 50.56C12.8968 50.6079 13.1638 50.5794 13.4066 50.4778L16.7262 49.0886C17.1532 48.9107 17.6323 48.9035 18.0644 49.0687C18.4966 49.2339 18.8487 49.5588 19.0481 49.9763L20.5293 53.0758C20.6442 53.3161 20.8275 53.5171 21.0561 53.6537C21.2847 53.7902 21.5486 53.8563 21.8146 53.8436C22.0807 53.8309 22.337 53.7399 22.5516 53.5822C22.7662 53.4244 22.9294 53.2068 23.0209 52.9567Z" fill="url(#paint6_linear_75_6619)"/>
<path d="M23.0209 52.9567L29.5843 34.9802L18.9002 28.7505L11.6132 48.7657C11.523 49.0128 11.5069 49.2809 11.5667 49.5371C11.6265 49.7933 11.7597 50.0265 11.95 50.2082C12.1403 50.3899 12.3794 50.5122 12.6381 50.56C12.8968 50.6079 13.1638 50.5794 13.4066 50.4778L16.7262 49.0886C17.1532 48.9107 17.6323 48.9035 18.0644 49.0687C18.4966 49.2339 18.8487 49.5588 19.0481 49.9763L20.5293 53.0758C20.6442 53.3161 20.8275 53.5171 21.0561 53.6537C21.2847 53.7902 21.5486 53.8563 21.8146 53.8436C22.0807 53.8309 22.337 53.7399 22.5516 53.5822C22.7662 53.4244 22.9294 53.2068 23.0209 52.9567Z" fill="url(#paint7_linear_75_6619)"/>
<path d="M25.2032 17.5421L26.7007 16.8295L17.1008 12.1171C14.9647 11.0093 11.627 9.9936 8.4337 11.5903C7.83469 11.884 7.28311 12.266 6.79734 12.7233C5.84656 13.5586 4.6035 15.1986 4.6035 18.078V30.2812C4.52773 31.2573 4.92644 33.7668 6.44012 35.1687C8.44994 37.3517 12.1845 38.2898 16.3088 36.4803C18.4828 35.5259 21.2522 34.1277 23.0599 33.213C23.7888 32.8449 24.3607 32.5544 24.6764 32.4047L26.6989 31.4431L25.2014 30.7088L25.2032 17.5421Z" fill="url(#paint8_linear_75_6619)"/>
<path d="M25.2032 17.5421L26.7007 16.8295L17.1008 12.1171C14.9647 11.0093 11.627 9.9936 8.4337 11.5903C7.83469 11.884 7.28311 12.266 6.79734 12.7233C5.84656 13.5586 4.6035 15.1986 4.6035 18.078V30.2812C4.52773 31.2573 4.92644 33.7668 6.44012 35.1687C8.44994 37.3517 12.1845 38.2898 16.3088 36.4803C18.4828 35.5259 21.2522 34.1277 23.0599 33.213C23.7888 32.8449 24.3607 32.5544 24.6764 32.4047L26.6989 31.4431L25.2014 30.7088L25.2032 17.5421Z" fill="url(#paint9_radial_75_6619)"/>
<path d="M34.3939 17.5421L32.8965 16.8295L42.4945 12.1171C44.6325 11.0093 47.9701 9.9936 51.1635 11.5903C51.8057 11.9114 52.3488 12.2957 52.798 12.7233C53.7488 13.5586 54.9937 15.1986 54.9937 18.078V30.2812C55.0694 31.2573 54.6689 33.7668 53.157 35.1687C51.1472 37.3517 47.4108 38.2898 43.2884 36.4803C41.1126 35.5259 38.345 34.1277 36.5373 33.213C35.8084 32.8449 35.2347 32.5544 34.9207 32.4047L32.8965 31.4431L34.3939 30.7088V17.5421Z" fill="url(#paint10_linear_75_6619)"/>
<path d="M16.6142 27.6963L24.2115 31.4291C23.0262 31.992 18.9217 34.1533 15.8763 35.4884C12.066 37.1608 8.82211 36.2101 7.18756 34.3825C5.55661 32.5549 5.54579 28.8582 8.91954 27.1731C11.6546 25.8037 14.5918 26.6481 16.6142 27.6963Z" fill="#C4C4C4" fill-opacity="0.55"/>
<path d="M42.984 27.6963L35.3867 31.4291C36.572 31.992 40.6765 34.1533 43.7219 35.4884C47.5322 37.1608 50.7761 36.2101 52.4088 34.3825C54.0416 32.5549 54.0542 28.8582 50.6805 27.1731C47.9436 25.8037 45.0046 26.6481 42.984 27.6963Z" fill="#C40E49"/>
<path d="M42.984 27.6963L35.3867 31.4291C36.572 31.992 40.6765 34.1533 43.7219 35.4884C47.5322 37.1608 50.7761 36.2101 52.4088 34.3825C54.0416 32.5549 54.0542 28.8582 50.6805 27.1731C47.9436 25.8037 45.0046 26.6481 42.984 27.6963Z" fill="url(#paint11_radial_75_6619)"/>
<path d="M16.6142 27.6963L24.2115 31.4291C23.0262 31.992 18.9217 34.1533 15.8763 35.4884C12.066 37.1608 8.82211 36.2101 7.18756 34.3825C5.55661 32.5549 5.54579 28.8582 8.91954 27.1731C11.6546 25.8037 14.5918 26.6481 16.6142 27.6963Z" fill="#CC0B30"/>
<path d="M16.6142 27.6963L24.2115 31.4291C23.0262 31.992 18.9217 34.1533 15.8763 35.4884C12.066 37.1608 8.82211 36.2101 7.18756 34.3825C5.55661 32.5549 5.54579 28.8582 8.91954 27.1731C11.6546 25.8037 14.5918 26.6481 16.6142 27.6963Z" fill="url(#paint12_radial_75_6619)"/>
<g filter="url(#filter0_i_75_6619)">
<path d="M35.1527 31.9174L34.1406 31.4375L35.1455 30.9431L42.7392 27.2158C44.8176 26.1369 47.955 25.206 50.921 26.689C54.6484 28.5527 54.6556 32.6787 52.8117 34.7445C50.9986 36.7723 47.4895 37.7358 43.5023 35.9857C41.3446 35.0386 38.6239 33.6638 36.818 32.7491C36.2655 32.4674 35.7104 32.1889 35.1527 31.9174Z" stroke="url(#paint13_linear_75_6619)" stroke-width="1.08192"/>
</g>
<g filter="url(#filter1_i_75_6619)">
<path d="M24.4447 31.9174L25.455 31.4375L24.4501 30.9431L16.8583 27.2158C14.7799 26.1369 11.6425 25.206 8.67648 26.689C4.94911 28.5527 4.94189 32.6787 6.78573 34.7445C8.5989 36.7723 12.1062 37.7358 16.0933 35.9857C18.2529 35.0386 20.9717 33.6638 22.7795 32.7491C23.5228 32.3738 24.1127 32.0743 24.4447 31.9174Z" stroke="url(#paint14_linear_75_6619)" stroke-width="1.08192"/>
</g>
<path d="M35.1527 31.9164L34.1406 31.4365L35.1455 30.9422L42.7392 27.2148C44.8176 26.1359 47.955 25.205 50.921 26.688C54.6484 28.5517 54.6556 32.6778 52.8117 34.7435C50.9986 36.7714 47.4895 37.7348 43.5023 35.9848C41.3446 35.0376 38.6239 33.6628 36.818 32.7481C36.2655 32.4664 35.7104 32.1879 35.1527 31.9164Z" stroke="url(#paint15_radial_75_6619)" stroke-width="1.08192"/>
<path d="M32.8636 12.8296H27.0633C25.2199 12.8296 23.7256 14.3239 23.7256 16.1673V32.9278C23.7256 34.7711 25.2199 36.2654 27.0633 36.2654H32.8636C34.7069 36.2654 36.2013 34.7711 36.2013 32.9278V16.1673C36.2013 14.3239 34.7069 12.8296 32.8636 12.8296Z" fill="url(#paint16_linear_75_6619)"/>
<path d="M32.8636 12.8296H27.0633C25.2199 12.8296 23.7256 14.3239 23.7256 16.1673V32.9278C23.7256 34.7711 25.2199 36.2654 27.0633 36.2654H32.8636C34.7069 36.2654 36.2013 34.7711 36.2013 32.9278V16.1673C36.2013 14.3239 34.7069 12.8296 32.8636 12.8296Z" fill="url(#paint17_linear_75_6619)"/>
<path d="M32.8636 12.8296H27.0633C25.2199 12.8296 23.7256 14.3239 23.7256 16.1673V32.9278C23.7256 34.7711 25.2199 36.2654 27.0633 36.2654H32.8636C34.7069 36.2654 36.2013 34.7711 36.2013 32.9278V16.1673C36.2013 14.3239 34.7069 12.8296 32.8636 12.8296Z" fill="url(#paint18_radial_75_6619)"/>
<path d="M32.8636 12.8296H27.0633C25.2199 12.8296 23.7256 14.3239 23.7256 16.1673V32.9278C23.7256 34.7711 25.2199 36.2654 27.0633 36.2654H32.8636C34.7069 36.2654 36.2013 34.7711 36.2013 32.9278V16.1673C36.2013 14.3239 34.7069 12.8296 32.8636 12.8296Z" fill="url(#paint19_linear_75_6619)"/>
<path d="M32.8636 12.8296H27.0633C25.2199 12.8296 23.7256 14.3239 23.7256 16.1673V32.9278C23.7256 34.7711 25.2199 36.2654 27.0633 36.2654H32.8636C34.7069 36.2654 36.2013 34.7711 36.2013 32.9278V16.1673C36.2013 14.3239 34.7069 12.8296 32.8636 12.8296Z" fill="url(#paint20_linear_75_6619)"/>
<defs>
<filter id="filter0_i_75_6619" x="32.8965" y="25.3779" width="21.6611" height="12.2404" filterUnits="userSpaceOnUse" color-interpolation-filters="sRGB">
<feFlood flood-opacity="0" result="BackgroundImageFix"/>
<feBlend mode="normal" in="SourceGraphic" in2="BackgroundImageFix" result="shape"/>
<feColorMatrix in="SourceAlpha" type="matrix" values="0 0 0 0 0 0 0 0 0 0 0 0 0 0 0 0 0 0 127 0" result="hardAlpha"/>
<feOffset dy="0.18032"/>
<feGaussianBlur stdDeviation="0.18032"/>
<feComposite in2="hardAlpha" operator="arithmetic" k2="-1" k3="1"/>
<feColorMatrix type="matrix" values="0 0 0 0 0.811765 0 0 0 0 0.254902 0 0 0 0 0.388235 0 0 0 1 0"/>
<feBlend mode="normal" in2="shape" result="effect1_innerShadow_75_6619"/>
</filter>
<filter id="filter1_i_75_6619" x="5.04004" y="25.3779" width="21.6582" height="12.2404" filterUnits="userSpaceOnUse" color-interpolation-filters="sRGB">
<feFlood flood-opacity="0" result="BackgroundImageFix"/>
<feBlend mode="normal" in="SourceGraphic" in2="BackgroundImageFix" result="shape"/>
<feColorMatrix in="SourceAlpha" type="matrix" values="0 0 0 0 0 0 0 0 0 0 0 0 0 0 0 0 0 0 127 0" result="hardAlpha"/>
<feOffset dy="0.18032"/>
<feGaussianBlur stdDeviation="0.18032"/>
<feComposite in2="hardAlpha" operator="arithmetic" k2="-1" k3="1"/>
<feColorMatrix type="matrix" values="0 0 0 0 0.843137 0 0 0 0 0.25098 0 0 0 0 0.341176 0 0 0 1 0"/>
<feBlend mode="normal" in2="shape" result="effect1_innerShadow_75_6619"/>
</filter>
<linearGradient id="paint0_linear_75_6619" x1="34.0092" y1="35.5449" x2="40.0982" y2="50.541" gradientUnits="userSpaceOnUse">
<stop stop-color="#BA2950"/>
<stop offset="1" stop-color="#DB1532"/>
</linearGradient>
<linearGradient id="paint1_linear_75_6619" x1="41.1987" y1="32.9505" x2="37.7023" y2="38.9277" gradientUnits="userSpaceOnUse">
<stop offset="0.283" stop-color="#980129"/>
<stop offset="1" stop-color="#980129" stop-opacity="0"/>
</linearGradient>
<linearGradient id="paint2_linear_75_6619" x1="32.3386" y1="40.8148" x2="33.1089" y2="40.5532" gradientUnits="userSpaceOnUse">
<stop stop-color="#A80435"/>
<stop offset="1" stop-color="#A80435" stop-opacity="0"/>
</linearGradient>
<linearGradient id="paint3_linear_75_6619" x1="46.0771" y1="42.3267" x2="45.3988" y2="42.5739" gradientUnits="userSpaceOnUse">
<stop stop-color="#E04E6F"/>
<stop offset="1" stop-color="#E04E6F" stop-opacity="0"/>
</linearGradient>
<linearGradient id="paint4_linear_75_6619" x1="25.8642" y1="35.5449" x2="19.7752" y2="50.541" gradientUnits="userSpaceOnUse">
<stop stop-color="#BA2950"/>
<stop offset="1" stop-color="#DB1532"/>
</linearGradient>
<radialGradient id="paint5_radial_75_6619" cx="0" cy="0" r="1" gradientUnits="userSpaceOnUse" gradientTransform="translate(27.4443 31.5958) rotate(129.152) scale(10.9055 12.4758)">
<stop offset="0.29" stop-color="#980129"/>
<stop offset="1" stop-color="#980129" stop-opacity="0"/>
</radialGradient>
<linearGradient id="paint6_linear_75_6619" x1="14.7651" y1="39.6367" x2="15.7195" y2="39.9885" gradientUnits="userSpaceOnUse">
<stop stop-color="#AA3244"/>
<stop offset="1" stop-color="#AA3244" stop-opacity="0"/>
</linearGradient>
<linearGradient id="paint7_linear_75_6619" x1="26.6851" y1="43.6293" x2="25.9995" y2="43.3605" gradientUnits="userSpaceOnUse">
<stop offset="0.176" stop-color="#D24162"/>
<stop offset="1" stop-color="#D24162" stop-opacity="0"/>
</linearGradient>
<linearGradient id="paint8_linear_75_6619" x1="24.2849" y1="25.0564" x2="4.59448" y2="25.0564" gradientUnits="userSpaceOnUse">
<stop stop-color="#C92D60"/>
<stop offset="0.497" stop-color="#CD2E4E"/>
<stop offset="1" stop-color="#A1383E"/>
</linearGradient>
<radialGradient id="paint9_radial_75_6619" cx="0" cy="0" r="1" gradientUnits="userSpaceOnUse" gradientTransform="translate(19.8864 31.5964) rotate(-90) scale(17.9287 5.83048)">
<stop stop-color="#DB3665"/>
<stop offset="1" stop-color="#DB3665" stop-opacity="0"/>
</radialGradient>
<linearGradient id="paint10_linear_75_6619" x1="37.9282" y1="25.2819" x2="55.0027" y2="25.2819" gradientUnits="userSpaceOnUse">
<stop offset="0.092" stop-color="#A52548"/>
<stop offset="1" stop-color="#EC4953"/>
</linearGradient>
<radialGradient id="paint11_radial_75_6619" cx="0" cy="0" r="1" gradientUnits="userSpaceOnUse" gradientTransform="translate(50.8266 21.7877) rotate(79.089) scale(15.6401 21.3364)">
<stop offset="0.657" stop-color="#932128"/>
<stop offset="1" stop-color="#932128" stop-opacity="0"/>
</radialGradient>
<radialGradient id="paint12_radial_75_6619" cx="0" cy="0" r="1" gradientUnits="userSpaceOnUse" gradientTransform="translate(8.77221 21.7879) rotate(100.911) scale(15.6401 21.3364)">
<stop offset="0.657" stop-color="#97242A"/>
<stop offset="1" stop-color="#932128" stop-opacity="0"/>
</radialGradient>
<linearGradient id="paint13_linear_75_6619" x1="35.3855" y1="32.0274" x2="54.7728" y2="32.0274" gradientUnits="userSpaceOnUse">
<stop stop-color="#BB1865"/>
<stop offset="1" stop-color="#DD1836"/>
</linearGradient>
<linearGradient id="paint14_linear_75_6619" x1="24.212" y1="32.0274" x2="4.82462" y2="32.0274" gradientUnits="userSpaceOnUse">
<stop stop-color="#C31867"/>
<stop offset="1" stop-color="#C81745"/>
</linearGradient>
<radialGradient id="paint15_radial_75_6619" cx="0" cy="0" r="1" gradientUnits="userSpaceOnUse" gradientTransform="translate(45.3696 34.5847) rotate(-50.6901) scale(10.5014 11.9226)">
<stop offset="0.828" stop-color="#EC4C5C" stop-opacity="0"/>
<stop offset="1" stop-color="#EC4C5C"/>
</radialGradient>
<linearGradient id="paint16_linear_75_6619" x1="29.9625" y1="12.8296" x2="29.9625" y2="36.2672" gradientUnits="userSpaceOnUse">
<stop stop-color="#C83065"/>
<stop offset="1" stop-color="#DF1E30"/>
</linearGradient>
<linearGradient id="paint17_linear_75_6619" x1="22.1542" y1="22.9166" x2="26.9442" y2="23.2521" gradientUnits="userSpaceOnUse">
<stop stop-color="#A2304B"/>
<stop offset="1" stop-color="#A2304B" stop-opacity="0"/>
</linearGradient>
<radialGradient id="paint18_radial_75_6619" cx="0" cy="0" r="1" gradientUnits="userSpaceOnUse" gradientTransform="translate(37.2855 31.6595) rotate(180) scale(8.32191 1.17684)">
<stop stop-color="#F75053"/>
<stop offset="1" stop-color="#F75053" stop-opacity="0"/>
</radialGradient>
<linearGradient id="paint19_linear_75_6619" x1="36.4863" y1="23.0014" x2="34.6786" y2="23.0014" gradientUnits="userSpaceOnUse">
<stop stop-color="#C11451"/>
<stop offset="1" stop-color="#C11451" stop-opacity="0"/>
</linearGradient>
<linearGradient id="paint20_linear_75_6619" x1="31.1478" y1="37.1224" x2="31.1478" y2="33.6765" gradientUnits="userSpaceOnUse">
<stop stop-color="#D12951"/>
<stop offset="1" stop-color="#D12951" stop-opacity="0"/>
</linearGradient>
</defs>
</svg>
