<svg width="28" height="28" viewBox="0 0 28 28" fill="none" xmlns="http://www.w3.org/2000/svg">
<path d="M17.395 25.6837L14.2118 16.9652L19.3935 13.9438L22.9277 23.6511C22.9714 23.771 22.9793 23.901 22.9502 24.0252C22.9212 24.1495 22.8566 24.2626 22.7643 24.3507C22.6721 24.4388 22.5561 24.4981 22.4306 24.5214C22.3051 24.5446 22.1756 24.5307 22.0579 24.4815L20.4488 23.8077C20.2416 23.7212 20.009 23.7176 19.7992 23.7977C19.5895 23.8778 19.4185 24.0356 19.3218 24.2382L18.6043 25.7415C18.5487 25.8583 18.4598 25.956 18.3488 26.0225C18.2378 26.0889 18.1097 26.1211 17.9805 26.1149C17.8512 26.1087 17.7267 26.0645 17.6226 25.9878C17.5184 25.9111 17.4393 25.8053 17.395 25.6837Z" fill="url(#paint0_linear_6_3437)"/>
<path d="M17.395 25.6837L14.2118 16.9652L19.3935 13.9438L22.9277 23.6511C22.9714 23.771 22.9793 23.901 22.9502 24.0252C22.9212 24.1495 22.8566 24.2626 22.7643 24.3507C22.6721 24.4388 22.5561 24.4981 22.4306 24.5214C22.3051 24.5446 22.1756 24.5307 22.0579 24.4815L20.4488 23.8077C20.2416 23.7212 20.009 23.7176 19.7992 23.7977C19.5895 23.8778 19.4185 24.0356 19.3218 24.2382L18.6043 25.7415C18.5487 25.8583 18.4598 25.956 18.3488 26.0225C18.2378 26.0889 18.1097 26.1211 17.9805 26.1149C17.8512 26.1087 17.7267 26.0645 17.6226 25.9878C17.5184 25.9111 17.4393 25.8053 17.395 25.6837Z" fill="url(#paint1_linear_6_3437)"/>
<path d="M17.395 25.6837L14.2118 16.9652L19.3935 13.9438L22.9277 23.6511C22.9714 23.771 22.9793 23.901 22.9502 24.0252C22.9212 24.1495 22.8566 24.2626 22.7643 24.3507C22.6721 24.4388 22.5561 24.4981 22.4306 24.5214C22.3051 24.5446 22.1756 24.5307 22.0579 24.4815L20.4488 23.8077C20.2416 23.7212 20.009 23.7176 19.7992 23.7977C19.5895 23.8778 19.4185 24.0356 19.3218 24.2382L18.6043 25.7415C18.5487 25.8583 18.4598 25.956 18.3488 26.0225C18.2378 26.0889 18.1097 26.1211 17.9805 26.1149C17.8512 26.1087 17.7267 26.0645 17.6226 25.9878C17.5184 25.9111 17.4393 25.8053 17.395 25.6837Z" fill="url(#paint2_linear_6_3437)"/>
<path d="M17.395 25.6837L14.2118 16.9652L19.3935 13.9438L22.9277 23.6511C22.9714 23.771 22.9793 23.901 22.9502 24.0252C22.9212 24.1495 22.8566 24.2626 22.7643 24.3507C22.6721 24.4388 22.5561 24.4981 22.4306 24.5214C22.3051 24.5446 22.1756 24.5307 22.0579 24.4815L20.4488 23.8077C20.2416 23.7212 20.009 23.7176 19.7992 23.7977C19.5895 23.8778 19.4185 24.0356 19.3218 24.2382L18.6043 25.7415C18.5487 25.8583 18.4598 25.956 18.3488 26.0225C18.2378 26.0889 18.1097 26.1211 17.9805 26.1149C17.8512 26.1087 17.7267 26.0645 17.6226 25.9878C17.5184 25.9111 17.4393 25.8053 17.395 25.6837Z" fill="url(#paint3_linear_6_3437)"/>
<path d="M10.6864 25.6837L13.8697 16.9652L8.6879 13.9438L5.15378 23.6511C5.11004 23.771 5.10219 23.901 5.13119 24.0252C5.1602 24.1495 5.2248 24.2626 5.31709 24.3507C5.40938 24.4388 5.52536 24.4981 5.65083 24.5214C5.7763 24.5446 5.90581 24.5307 6.02353 24.4815L7.63353 23.8077C7.84063 23.7214 8.07298 23.718 8.28256 23.7981C8.49214 23.8782 8.66294 24.0358 8.75965 24.2382L9.47803 25.7415C9.53375 25.858 9.62263 25.9555 9.73351 26.0217C9.8444 26.088 9.97237 26.12 10.1014 26.1139C10.2304 26.1077 10.3547 26.0636 10.4588 25.9871C10.5629 25.9106 10.642 25.805 10.6864 25.6837Z" fill="url(#paint4_linear_6_3437)"/>
<path d="M10.6864 25.6837L13.8697 16.9652L8.6879 13.9438L5.15378 23.6511C5.11004 23.771 5.10219 23.901 5.13119 24.0252C5.1602 24.1495 5.2248 24.2626 5.31709 24.3507C5.40938 24.4388 5.52536 24.4981 5.65083 24.5214C5.7763 24.5446 5.90581 24.5307 6.02353 24.4815L7.63353 23.8077C7.84063 23.7214 8.07298 23.718 8.28256 23.7981C8.49214 23.8782 8.66294 24.0358 8.75965 24.2382L9.47803 25.7415C9.53375 25.858 9.62263 25.9555 9.73351 26.0217C9.8444 26.088 9.97237 26.12 10.1014 26.1139C10.2304 26.1077 10.3547 26.0636 10.4588 25.9871C10.5629 25.9106 10.642 25.805 10.6864 25.6837Z" fill="url(#paint5_radial_6_3437)"/>
<path d="M10.6864 25.6837L13.8697 16.9652L8.6879 13.9438L5.15378 23.6511C5.11004 23.771 5.10219 23.901 5.13119 24.0252C5.1602 24.1495 5.2248 24.2626 5.31709 24.3507C5.40938 24.4388 5.52536 24.4981 5.65083 24.5214C5.7763 24.5446 5.90581 24.5307 6.02353 24.4815L7.63353 23.8077C7.84063 23.7214 8.07298 23.718 8.28256 23.7981C8.49214 23.8782 8.66294 24.0358 8.75965 24.2382L9.47803 25.7415C9.53375 25.858 9.62263 25.9555 9.73351 26.0217C9.8444 26.088 9.97237 26.12 10.1014 26.1139C10.2304 26.1077 10.3547 26.0636 10.4588 25.9871C10.5629 25.9106 10.642 25.805 10.6864 25.6837Z" fill="url(#paint6_linear_6_3437)"/>
<path d="M10.6864 25.6837L13.8697 16.9652L8.6879 13.9438L5.15378 23.6511C5.11004 23.771 5.10219 23.901 5.13119 24.0252C5.1602 24.1495 5.2248 24.2626 5.31709 24.3507C5.40938 24.4388 5.52536 24.4981 5.65083 24.5214C5.7763 24.5446 5.90581 24.5307 6.02353 24.4815L7.63353 23.8077C7.84063 23.7214 8.07298 23.718 8.28256 23.7981C8.49214 23.8782 8.66294 24.0358 8.75965 24.2382L9.47803 25.7415C9.53375 25.858 9.62263 25.9555 9.73351 26.0217C9.8444 26.088 9.97237 26.12 10.1014 26.1139C10.2304 26.1077 10.3547 26.0636 10.4588 25.9871C10.5629 25.9106 10.642 25.805 10.6864 25.6837Z" fill="url(#paint7_linear_6_3437)"/>
<path d="M11.7451 8.50797L12.4714 8.16235L7.8155 5.87685C6.7795 5.3396 5.16075 4.84697 3.612 5.62135C3.32149 5.76382 3.05397 5.94905 2.81838 6.17085C2.35725 6.57597 1.75438 7.37135 1.75438 8.76785V14.6863C1.71763 15.1597 1.911 16.3768 2.64513 17.0567C3.61988 18.1155 5.43113 18.5705 7.43138 17.6928C8.48575 17.23 9.82888 16.5518 10.7056 16.1082C11.0591 15.9297 11.3365 15.7888 11.4896 15.7162L12.4705 15.2498L11.7443 14.8937L11.7451 8.50797Z" fill="url(#paint8_linear_6_3437)"/>
<path d="M11.7451 8.50797L12.4714 8.16235L7.8155 5.87685C6.7795 5.3396 5.16075 4.84697 3.612 5.62135C3.32149 5.76382 3.05397 5.94905 2.81838 6.17085C2.35725 6.57597 1.75438 7.37135 1.75438 8.76785V14.6863C1.71763 15.1597 1.911 16.3768 2.64513 17.0567C3.61988 18.1155 5.43113 18.5705 7.43138 17.6928C8.48575 17.23 9.82888 16.5518 10.7056 16.1082C11.0591 15.9297 11.3365 15.7888 11.4896 15.7162L12.4705 15.2498L11.7443 14.8937L11.7451 8.50797Z" fill="url(#paint9_radial_6_3437)"/>
<path d="M16.2024 8.50797L15.4762 8.16235L20.1312 5.87685C21.1681 5.3396 22.7868 4.84697 24.3356 5.62135C24.6471 5.7771 24.9104 5.96347 25.1283 6.17085C25.5894 6.57597 26.1932 7.37135 26.1932 8.76785V14.6863C26.2299 15.1597 26.0357 16.3768 25.3024 17.0567C24.3277 18.1155 22.5156 18.5705 20.5162 17.6928C19.4609 17.23 18.1187 16.5518 17.2419 16.1082C16.8884 15.9297 16.6102 15.7888 16.4579 15.7162L15.4762 15.2498L16.2024 14.8937V8.50797Z" fill="url(#paint10_linear_6_3437)"/>
<path d="M7.57926 13.4326L11.2639 15.243C10.689 15.516 8.69839 16.5643 7.22139 17.2118C5.37339 18.0229 3.80014 17.5618 3.00739 16.6754C2.21639 15.789 2.21114 13.9961 3.84739 13.1789C5.17389 12.5148 6.59839 12.9243 7.57926 13.4326Z" fill="#C4C4C4" fill-opacity="0.55"/>
<path d="M20.3683 13.4326L16.6837 15.243C17.2585 15.516 19.2492 16.5643 20.7262 17.2118C22.5742 18.0229 24.1474 17.5618 24.9393 16.6754C25.7312 15.789 25.7373 13.9961 24.101 13.1789C22.7737 12.5148 21.3483 12.9243 20.3683 13.4326Z" fill="#C40E49"/>
<path d="M20.3683 13.4326L16.6837 15.243C17.2585 15.516 19.2492 16.5643 20.7262 17.2118C22.5742 18.0229 24.1474 17.5618 24.9393 16.6754C25.7312 15.789 25.7373 13.9961 24.101 13.1789C22.7737 12.5148 21.3483 12.9243 20.3683 13.4326Z" fill="url(#paint11_radial_6_3437)"/>
<path d="M7.57926 13.4326L11.2639 15.243C10.689 15.516 8.69839 16.5643 7.22139 17.2118C5.37339 18.0229 3.80014 17.5618 3.00739 16.6754C2.21639 15.789 2.21114 13.9961 3.84739 13.1789C5.17389 12.5148 6.59839 12.9243 7.57926 13.4326Z" fill="#CC0B30"/>
<path d="M7.57926 13.4326L11.2639 15.243C10.689 15.516 8.69839 16.5643 7.22139 17.2118C5.37339 18.0229 3.80014 17.5618 3.00739 16.6754C2.21639 15.789 2.21114 13.9961 3.84739 13.1789C5.17389 12.5148 6.59839 12.9243 7.57926 13.4326Z" fill="url(#paint12_radial_6_3437)"/>
<g filter="url(#filter0_i_6_3437)">
<path d="M16.5708 15.4798L16.0799 15.247L16.5673 15.0073L20.2501 13.1995C21.2581 12.6763 22.7798 12.2248 24.2183 12.944C26.026 13.8479 26.0295 15.849 25.1353 16.8509C24.2559 17.8344 22.554 18.3016 20.6203 17.4529C19.5738 16.9935 18.2543 16.3268 17.3784 15.8831C17.1104 15.7465 16.8412 15.6115 16.5708 15.4798Z" stroke="url(#paint13_linear_6_3437)" stroke-width="0.523611"/>
</g>
<g filter="url(#filter1_i_6_3437)">
<path d="M11.3768 15.4798L11.8668 15.247L11.3794 15.0073L7.6974 13.1995C6.6894 12.6763 5.16777 12.2248 3.72927 12.944C1.92152 13.8479 1.91802 15.849 2.81227 16.8509C3.69165 17.8344 5.39265 18.3016 7.3264 17.4529C8.37377 16.9935 9.6924 16.3268 10.5691 15.8831C10.9296 15.7011 11.2158 15.5559 11.3768 15.4798Z" stroke="url(#paint14_linear_6_3437)" stroke-width="0.523611"/>
</g>
<path d="M16.5708 15.4793L16.0799 15.2465L16.5673 15.0068L20.2501 13.199C21.2581 12.6758 22.7798 12.2243 24.2183 12.9435C26.026 13.8474 26.0295 15.8485 25.1353 16.8504C24.2559 17.8339 22.554 18.3012 20.6203 17.4524C19.5738 16.993 18.2543 16.3263 17.3784 15.8827C17.1104 15.746 16.8412 15.611 16.5708 15.4793Z" stroke="url(#paint15_radial_6_3437)" stroke-width="0.523611"/>
<path d="M15.4604 6.22241H12.6473C11.7532 6.22241 11.0285 6.94715 11.0285 7.84116V15.9699C11.0285 16.8639 11.7532 17.5887 12.6473 17.5887H15.4604C16.3544 17.5887 17.0791 16.8639 17.0791 15.9699V7.84116C17.0791 6.94715 16.3544 6.22241 15.4604 6.22241Z" fill="url(#paint16_linear_6_3437)"/>
<path d="M15.4604 6.22241H12.6473C11.7532 6.22241 11.0285 6.94715 11.0285 7.84116V15.9699C11.0285 16.8639 11.7532 17.5887 12.6473 17.5887H15.4604C16.3544 17.5887 17.0791 16.8639 17.0791 15.9699V7.84116C17.0791 6.94715 16.3544 6.22241 15.4604 6.22241Z" fill="url(#paint17_linear_6_3437)"/>
<path d="M15.4604 6.22241H12.6473C11.7532 6.22241 11.0285 6.94715 11.0285 7.84116V15.9699C11.0285 16.8639 11.7532 17.5887 12.6473 17.5887H15.4604C16.3544 17.5887 17.0791 16.8639 17.0791 15.9699V7.84116C17.0791 6.94715 16.3544 6.22241 15.4604 6.22241Z" fill="url(#paint18_radial_6_3437)"/>
<path d="M15.4604 6.22241H12.6473C11.7532 6.22241 11.0285 6.94715 11.0285 7.84116V15.9699C11.0285 16.8639 11.7532 17.5887 12.6473 17.5887H15.4604C16.3544 17.5887 17.0791 16.8639 17.0791 15.9699V7.84116C17.0791 6.94715 16.3544 6.22241 15.4604 6.22241Z" fill="url(#paint19_linear_6_3437)"/>
<path d="M15.4604 6.22241H12.6473C11.7532 6.22241 11.0285 6.94715 11.0285 7.84116V15.9699C11.0285 16.8639 11.7532 17.5887 12.6473 17.5887H15.4604C16.3544 17.5887 17.0791 16.8639 17.0791 15.9699V7.84116C17.0791 6.94715 16.3544 6.22241 15.4604 6.22241Z" fill="url(#paint20_linear_6_3437)"/>
<defs>
<filter id="filter0_i_6_3437" x="15.478" y="12.3088" width="10.5033" height="5.93517" filterUnits="userSpaceOnUse" color-interpolation-filters="sRGB">
<feFlood flood-opacity="0" result="BackgroundImageFix"/>
<feBlend mode="normal" in="SourceGraphic" in2="BackgroundImageFix" result="shape"/>
<feColorMatrix in="SourceAlpha" type="matrix" values="0 0 0 0 0 0 0 0 0 0 0 0 0 0 0 0 0 0 127 0" result="hardAlpha"/>
<feOffset dy="0.0872685"/>
<feGaussianBlur stdDeviation="0.0872685"/>
<feComposite in2="hardAlpha" operator="arithmetic" k2="-1" k3="1"/>
<feColorMatrix type="matrix" values="0 0 0 0 0.811765 0 0 0 0 0.254902 0 0 0 0 0.388235 0 0 0 1 0"/>
<feBlend mode="normal" in2="shape" result="effect1_innerShadow_6_3437"/>
</filter>
<filter id="filter1_i_6_3437" x="1.96631" y="12.3088" width="10.502" height="5.93517" filterUnits="userSpaceOnUse" color-interpolation-filters="sRGB">
<feFlood flood-opacity="0" result="BackgroundImageFix"/>
<feBlend mode="normal" in="SourceGraphic" in2="BackgroundImageFix" result="shape"/>
<feColorMatrix in="SourceAlpha" type="matrix" values="0 0 0 0 0 0 0 0 0 0 0 0 0 0 0 0 0 0 127 0" result="hardAlpha"/>
<feOffset dy="0.0872685"/>
<feGaussianBlur stdDeviation="0.0872685"/>
<feComposite in2="hardAlpha" operator="arithmetic" k2="-1" k3="1"/>
<feColorMatrix type="matrix" values="0 0 0 0 0.843137 0 0 0 0 0.25098 0 0 0 0 0.341176 0 0 0 1 0"/>
<feBlend mode="normal" in2="shape" result="effect1_innerShadow_6_3437"/>
</filter>
<linearGradient id="paint0_linear_6_3437" x1="16.016" y1="17.2391" x2="18.9692" y2="24.5121" gradientUnits="userSpaceOnUse">
<stop stop-color="#BA2950"/>
<stop offset="1" stop-color="#DB1532"/>
</linearGradient>
<linearGradient id="paint1_linear_6_3437" x1="19.5029" y1="15.9808" x2="17.8072" y2="18.8797" gradientUnits="userSpaceOnUse">
<stop offset="0.283" stop-color="#980129"/>
<stop offset="1" stop-color="#980129" stop-opacity="0"/>
</linearGradient>
<linearGradient id="paint2_linear_6_3437" x1="15.2058" y1="19.795" x2="15.5794" y2="19.6681" gradientUnits="userSpaceOnUse">
<stop stop-color="#A80435"/>
<stop offset="1" stop-color="#A80435" stop-opacity="0"/>
</linearGradient>
<linearGradient id="paint3_linear_6_3437" x1="21.8689" y1="20.5282" x2="21.5399" y2="20.6481" gradientUnits="userSpaceOnUse">
<stop stop-color="#E04E6F"/>
<stop offset="1" stop-color="#E04E6F" stop-opacity="0"/>
</linearGradient>
<linearGradient id="paint4_linear_6_3437" x1="12.0654" y1="17.2391" x2="9.11228" y2="24.5121" gradientUnits="userSpaceOnUse">
<stop stop-color="#BA2950"/>
<stop offset="1" stop-color="#DB1532"/>
</linearGradient>
<radialGradient id="paint5_radial_6_3437" cx="0" cy="0" r="1" gradientUnits="userSpaceOnUse" gradientTransform="translate(12.8317 15.3238) rotate(129.152) scale(5.2891 6.05068)">
<stop offset="0.29" stop-color="#980129"/>
<stop offset="1" stop-color="#980129" stop-opacity="0"/>
</radialGradient>
<linearGradient id="paint6_linear_6_3437" x1="6.6824" y1="19.2236" x2="7.14528" y2="19.3942" gradientUnits="userSpaceOnUse">
<stop stop-color="#AA3244"/>
<stop offset="1" stop-color="#AA3244" stop-opacity="0"/>
</linearGradient>
<linearGradient id="paint7_linear_6_3437" x1="12.4635" y1="21.16" x2="12.131" y2="21.0296" gradientUnits="userSpaceOnUse">
<stop offset="0.176" stop-color="#D24162"/>
<stop offset="1" stop-color="#D24162" stop-opacity="0"/>
</linearGradient>
<linearGradient id="paint8_linear_6_3437" x1="11.2998" y1="12.1523" x2="1.75" y2="12.1523" gradientUnits="userSpaceOnUse">
<stop stop-color="#C92D60"/>
<stop offset="0.497" stop-color="#CD2E4E"/>
<stop offset="1" stop-color="#A1383E"/>
</linearGradient>
<radialGradient id="paint9_radial_6_3437" cx="0" cy="0" r="1" gradientUnits="userSpaceOnUse" gradientTransform="translate(9.1665 15.3242) rotate(-90) scale(8.69531 2.82775)">
<stop stop-color="#DB3665"/>
<stop offset="1" stop-color="#DB3665" stop-opacity="0"/>
</radialGradient>
<linearGradient id="paint10_linear_6_3437" x1="17.9166" y1="12.2617" x2="26.1976" y2="12.2617" gradientUnits="userSpaceOnUse">
<stop offset="0.092" stop-color="#A52548"/>
<stop offset="1" stop-color="#EC4953"/>
</linearGradient>
<radialGradient id="paint11_radial_6_3437" cx="0" cy="0" r="1" gradientUnits="userSpaceOnUse" gradientTransform="translate(24.1719 10.567) rotate(79.089) scale(7.58535 10.348)">
<stop offset="0.657" stop-color="#932128"/>
<stop offset="1" stop-color="#932128" stop-opacity="0"/>
</radialGradient>
<radialGradient id="paint12_radial_6_3437" cx="0" cy="0" r="1" gradientUnits="userSpaceOnUse" gradientTransform="translate(3.77593 10.5671) rotate(100.911) scale(7.58535 10.348)">
<stop offset="0.657" stop-color="#97242A"/>
<stop offset="1" stop-color="#932128" stop-opacity="0"/>
</radialGradient>
<linearGradient id="paint13_linear_6_3437" x1="16.6836" y1="15.5331" x2="26.0864" y2="15.5331" gradientUnits="userSpaceOnUse">
<stop stop-color="#BB1865"/>
<stop offset="1" stop-color="#DD1836"/>
</linearGradient>
<linearGradient id="paint14_linear_6_3437" x1="11.2639" y1="15.5331" x2="1.86115" y2="15.5331" gradientUnits="userSpaceOnUse">
<stop stop-color="#C31867"/>
<stop offset="1" stop-color="#C81745"/>
</linearGradient>
<radialGradient id="paint15_radial_6_3437" cx="0" cy="0" r="1" gradientUnits="userSpaceOnUse" gradientTransform="translate(21.5259 16.7734) rotate(-50.6901) scale(5.09312 5.78237)">
<stop offset="0.828" stop-color="#EC4C5C" stop-opacity="0"/>
<stop offset="1" stop-color="#EC4C5C"/>
</radialGradient>
<linearGradient id="paint16_linear_6_3437" x1="14.0534" y1="6.22241" x2="14.0534" y2="17.5895" gradientUnits="userSpaceOnUse">
<stop stop-color="#C83065"/>
<stop offset="1" stop-color="#DF1E30"/>
</linearGradient>
<linearGradient id="paint17_linear_6_3437" x1="10.2664" y1="11.1145" x2="12.5895" y2="11.2773" gradientUnits="userSpaceOnUse">
<stop stop-color="#A2304B"/>
<stop offset="1" stop-color="#A2304B" stop-opacity="0"/>
</linearGradient>
<radialGradient id="paint18_radial_6_3437" cx="0" cy="0" r="1" gradientUnits="userSpaceOnUse" gradientTransform="translate(17.605 15.3548) rotate(180) scale(4.03608 0.570762)">
<stop stop-color="#F75053"/>
<stop offset="1" stop-color="#F75053" stop-opacity="0"/>
</radialGradient>
<linearGradient id="paint19_linear_6_3437" x1="17.2174" y1="11.1557" x2="16.3406" y2="11.1557" gradientUnits="userSpaceOnUse">
<stop stop-color="#C11451"/>
<stop offset="1" stop-color="#C11451" stop-opacity="0"/>
</linearGradient>
<linearGradient id="paint20_linear_6_3437" x1="14.6283" y1="18.0043" x2="14.6283" y2="16.333" gradientUnits="userSpaceOnUse">
<stop stop-color="#D12951"/>
<stop offset="1" stop-color="#D12951" stop-opacity="0"/>
</linearGradient>
</defs>
</svg>
