<svg width="15" height="15" viewBox="0 0 15 15" fill="none" xmlns="http://www.w3.org/2000/svg">
<path d="M9.31859 13.7599L7.61328 9.0893L10.3892 7.4707L12.2825 12.671C12.3059 12.7352 12.3101 12.8049 12.2946 12.8715C12.2791 12.938 12.2445 12.9986 12.195 13.0458C12.1456 13.093 12.0834 13.1248 12.0162 13.1372C11.949 13.1497 11.8796 13.1422 11.8166 13.1159L10.9545 12.7549C10.8435 12.7085 10.7189 12.7066 10.6066 12.7495C10.4942 12.7925 10.4026 12.877 10.3508 12.9855L9.96641 13.7909C9.93662 13.8534 9.889 13.9058 9.82954 13.9414C9.77008 13.977 9.70143 13.9942 9.63221 13.9909C9.56299 13.9876 9.49629 13.9639 9.44049 13.9228C9.38469 13.8817 9.34228 13.825 9.31859 13.7599Z" fill="url(#paint0_linear_75_7733)"/>
<path d="M9.31859 13.7599L7.61328 9.0893L10.3892 7.4707L12.2825 12.671C12.3059 12.7352 12.3101 12.8049 12.2946 12.8715C12.2791 12.938 12.2445 12.9986 12.195 13.0458C12.1456 13.093 12.0834 13.1248 12.0162 13.1372C11.949 13.1497 11.8796 13.1422 11.8166 13.1159L10.9545 12.7549C10.8435 12.7085 10.7189 12.7066 10.6066 12.7495C10.4942 12.7925 10.4026 12.877 10.3508 12.9855L9.96641 13.7909C9.93662 13.8534 9.889 13.9058 9.82954 13.9414C9.77008 13.977 9.70143 13.9942 9.63221 13.9909C9.56299 13.9876 9.49629 13.9639 9.44049 13.9228C9.38469 13.8817 9.34228 13.825 9.31859 13.7599Z" fill="url(#paint1_linear_75_7733)"/>
<path d="M9.31859 13.7599L7.61328 9.0893L10.3892 7.4707L12.2825 12.671C12.3059 12.7352 12.3101 12.8049 12.2946 12.8715C12.2791 12.938 12.2445 12.9986 12.195 13.0458C12.1456 13.093 12.0834 13.1248 12.0162 13.1372C11.949 13.1497 11.8796 13.1422 11.8166 13.1159L10.9545 12.7549C10.8435 12.7085 10.7189 12.7066 10.6066 12.7495C10.4942 12.7925 10.4026 12.877 10.3508 12.9855L9.96641 13.7909C9.93662 13.8534 9.889 13.9058 9.82954 13.9414C9.77008 13.977 9.70143 13.9942 9.63221 13.9909C9.56299 13.9876 9.49629 13.9639 9.44049 13.9228C9.38469 13.8817 9.34228 13.825 9.31859 13.7599Z" fill="url(#paint2_linear_75_7733)"/>
<path d="M9.31859 13.7599L7.61328 9.0893L10.3892 7.4707L12.2825 12.671C12.3059 12.7352 12.3101 12.8049 12.2946 12.8715C12.2791 12.938 12.2445 12.9986 12.195 13.0458C12.1456 13.093 12.0834 13.1248 12.0162 13.1372C11.949 13.1497 11.8796 13.1422 11.8166 13.1159L10.9545 12.7549C10.8435 12.7085 10.7189 12.7066 10.6066 12.7495C10.4942 12.7925 10.4026 12.877 10.3508 12.9855L9.96641 13.7909C9.93662 13.8534 9.889 13.9058 9.82954 13.9414C9.77008 13.977 9.70143 13.9942 9.63221 13.9909C9.56299 13.9876 9.49629 13.9639 9.44049 13.9228C9.38469 13.8817 9.34228 13.825 9.31859 13.7599Z" fill="url(#paint3_linear_75_7733)"/>
<path d="M5.72447 13.7599L7.42978 9.0893L4.65384 7.4707L2.76056 12.671C2.73713 12.7352 2.73292 12.8049 2.74846 12.8715C2.764 12.938 2.79861 12.9986 2.84805 13.0458C2.89749 13.093 2.95962 13.1248 3.02684 13.1372C3.09405 13.1497 3.16344 13.1422 3.2265 13.1159L4.089 12.7549C4.19995 12.7087 4.32442 12.7068 4.4367 12.7498C4.54897 12.7927 4.64047 12.8771 4.69228 12.9855L5.07712 13.7909C5.10698 13.8533 5.15459 13.9055 5.21399 13.941C5.27339 13.9765 5.34195 13.9937 5.41107 13.9903C5.48019 13.987 5.54679 13.9634 5.60254 13.9224C5.65829 13.8814 5.7007 13.8249 5.72447 13.7599Z" fill="url(#paint4_linear_75_7733)"/>
<path d="M5.72447 13.7599L7.42978 9.0893L4.65384 7.4707L2.76056 12.671C2.73713 12.7352 2.73292 12.8049 2.74846 12.8715C2.764 12.938 2.79861 12.9986 2.84805 13.0458C2.89749 13.093 2.95962 13.1248 3.02684 13.1372C3.09405 13.1497 3.16344 13.1422 3.2265 13.1159L4.089 12.7549C4.19995 12.7087 4.32442 12.7068 4.4367 12.7498C4.54897 12.7927 4.64047 12.8771 4.69228 12.9855L5.07712 13.7909C5.10698 13.8533 5.15459 13.9055 5.21399 13.941C5.27339 13.9765 5.34195 13.9937 5.41107 13.9903C5.48019 13.987 5.54679 13.9634 5.60254 13.9224C5.65829 13.8814 5.7007 13.8249 5.72447 13.7599Z" fill="url(#paint5_radial_75_7733)"/>
<path d="M5.72447 13.7599L7.42978 9.0893L4.65384 7.4707L2.76056 12.671C2.73713 12.7352 2.73292 12.8049 2.74846 12.8715C2.764 12.938 2.79861 12.9986 2.84805 13.0458C2.89749 13.093 2.95962 13.1248 3.02684 13.1372C3.09405 13.1497 3.16344 13.1422 3.2265 13.1159L4.089 12.7549C4.19995 12.7087 4.32442 12.7068 4.4367 12.7498C4.54897 12.7927 4.64047 12.8771 4.69228 12.9855L5.07712 13.7909C5.10698 13.8533 5.15459 13.9055 5.21399 13.941C5.27339 13.9765 5.34195 13.9937 5.41107 13.9903C5.48019 13.987 5.54679 13.9634 5.60254 13.9224C5.65829 13.8814 5.7007 13.8249 5.72447 13.7599Z" fill="url(#paint6_linear_75_7733)"/>
<path d="M5.72447 13.7599L7.42978 9.0893L4.65384 7.4707L2.76056 12.671C2.73713 12.7352 2.73292 12.8049 2.74846 12.8715C2.764 12.938 2.79861 12.9986 2.84805 13.0458C2.89749 13.093 2.95962 13.1248 3.02684 13.1372C3.09405 13.1497 3.16344 13.1422 3.2265 13.1159L4.089 12.7549C4.19995 12.7087 4.32442 12.7068 4.4367 12.7498C4.54897 12.7927 4.64047 12.8771 4.69228 12.9855L5.07712 13.7909C5.10698 13.8533 5.15459 13.9055 5.21399 13.941C5.27339 13.9765 5.34195 13.9937 5.41107 13.9903C5.48019 13.987 5.54679 13.9634 5.60254 13.9224C5.65829 13.8814 5.7007 13.8249 5.72447 13.7599Z" fill="url(#paint7_linear_75_7733)"/>
<path d="M6.29197 4.55915L6.68103 4.37399L4.18681 3.14962C3.63181 2.86181 2.76462 2.5979 1.93494 3.01274C1.7793 3.08907 1.63599 3.1883 1.50978 3.30712C1.26275 3.52415 0.939779 3.95024 0.939779 4.69837V7.86899C0.920092 8.12259 1.02369 8.77462 1.41697 9.13884C1.93915 9.70602 2.90947 9.94978 3.98103 9.47962C4.54587 9.23165 5.2654 8.86837 5.73509 8.63071C5.92447 8.53509 6.07306 8.45962 6.15509 8.42071L6.68056 8.17087L6.2915 7.98009L6.29197 4.55915Z" fill="url(#paint8_linear_75_7733)"/>
<path d="M6.29197 4.55915L6.68103 4.37399L4.18681 3.14962C3.63181 2.86181 2.76462 2.5979 1.93494 3.01274C1.7793 3.08907 1.63599 3.1883 1.50978 3.30712C1.26275 3.52415 0.939779 3.95024 0.939779 4.69837V7.86899C0.920092 8.12259 1.02369 8.77462 1.41697 9.13884C1.93915 9.70602 2.90947 9.94978 3.98103 9.47962C4.54587 9.23165 5.2654 8.86837 5.73509 8.63071C5.92447 8.53509 6.07306 8.45962 6.15509 8.42071L6.68056 8.17087L6.2915 7.98009L6.29197 4.55915Z" fill="url(#paint9_radial_75_7733)"/>
<path d="M8.68008 4.55915L8.29102 4.37399L10.7848 3.14962C11.3402 2.86181 12.2074 2.5979 13.0371 3.01274C13.204 3.09618 13.3451 3.19602 13.4618 3.30712C13.7088 3.52415 14.0323 3.95024 14.0323 4.69837V7.86899C14.052 8.12259 13.9479 8.77462 13.5551 9.13884C13.0329 9.70602 12.0621 9.94978 10.991 9.47962C10.4257 9.23165 9.70664 8.86837 9.23695 8.63071C9.04758 8.53509 8.89852 8.45962 8.81695 8.42071L8.29102 8.17087L8.68008 7.98009V4.55915Z" fill="url(#paint10_linear_75_7733)"/>
<path d="M4.06054 7.19609L6.03445 8.16594C5.72648 8.31219 4.66007 8.87375 3.86882 9.22062C2.87882 9.65516 2.03601 9.40812 1.61132 8.93328C1.18757 8.45844 1.18476 7.49797 2.06132 7.06016C2.77195 6.70438 3.53507 6.92375 4.06054 7.19609Z" fill="#C4C4C4" fill-opacity="0.55"/>
<path d="M10.9114 7.19609L8.9375 8.16594C9.24547 8.31219 10.3119 8.87375 11.1031 9.22062C12.0931 9.65516 12.9359 9.40812 13.3602 8.93328C13.7844 8.45844 13.7877 7.49797 12.9111 7.06016C12.2 6.70438 11.4364 6.92375 10.9114 7.19609Z" fill="#C40E49"/>
<path d="M10.9114 7.19609L8.9375 8.16594C9.24547 8.31219 10.3119 8.87375 11.1031 9.22062C12.0931 9.65516 12.9359 9.40812 13.3602 8.93328C13.7844 8.45844 13.7877 7.49797 12.9111 7.06016C12.2 6.70438 11.4364 6.92375 10.9114 7.19609Z" fill="url(#paint11_radial_75_7733)"/>
<path d="M4.06054 7.19609L6.03445 8.16594C5.72648 8.31219 4.66007 8.87375 3.86882 9.22062C2.87882 9.65516 2.03601 9.40812 1.61132 8.93328C1.18757 8.45844 1.18476 7.49797 2.06132 7.06016C2.77195 6.70438 3.53507 6.92375 4.06054 7.19609Z" fill="#CC0B30"/>
<path d="M4.06054 7.19609L6.03445 8.16594C5.72648 8.31219 4.66007 8.87375 3.86882 9.22062C2.87882 9.65516 2.03601 9.40812 1.61132 8.93328C1.18757 8.45844 1.18476 7.49797 2.06132 7.06016C2.77195 6.70438 3.53507 6.92375 4.06054 7.19609Z" fill="url(#paint12_radial_75_7733)"/>
<g filter="url(#filter0_i_75_7733)">
<path d="M8.87723 8.29373L8.61426 8.16904L8.87535 8.0406L10.8483 7.07217C11.3883 6.79185 12.2035 6.54998 12.9741 6.93529C13.9425 7.41951 13.9444 8.49154 13.4654 9.02826C12.9943 9.55513 12.0825 9.80545 11.0466 9.35076C10.486 9.10466 9.7791 8.74748 9.30988 8.50982C9.16633 8.43662 9.0221 8.36427 8.87723 8.29373Z" stroke="url(#paint13_linear_75_7733)" stroke-width="0.270833"/>
</g>
<g filter="url(#filter1_i_75_7733)">
<path d="M6.09473 8.29373L6.35724 8.16904L6.09614 8.0406L4.12364 7.07217C3.58364 6.79185 2.76848 6.54998 1.99786 6.93529C1.02942 7.41951 1.02755 8.49154 1.50661 9.02826C1.9777 9.55513 2.88895 9.80545 3.92489 9.35076C4.48598 9.10466 5.19239 8.74748 5.66208 8.50982C5.8552 8.41232 6.00848 8.33451 6.09473 8.29373Z" stroke="url(#paint14_linear_75_7733)" stroke-width="0.270833"/>
</g>
<path d="M8.87723 8.29373L8.61426 8.16904L8.87535 8.0406L10.8483 7.07217C11.3883 6.79185 12.2035 6.54998 12.9741 6.93529C13.9425 7.41951 13.9444 8.49154 13.4654 9.02826C12.9943 9.55513 12.0825 9.80545 11.0466 9.35076C10.486 9.10466 9.7791 8.74748 9.30988 8.50982C9.16633 8.43662 9.0221 8.36427 8.87723 8.29373Z" stroke="url(#paint15_radial_75_7733)" stroke-width="0.270833"/>
<path d="M8.28242 3.33398H6.77539C6.29646 3.33398 5.9082 3.72224 5.9082 4.20117V8.55586C5.9082 9.03479 6.29646 9.42305 6.77539 9.42305H8.28242C8.76136 9.42305 9.14961 9.03479 9.14961 8.55586V4.20117C9.14961 3.72224 8.76136 3.33398 8.28242 3.33398Z" fill="url(#paint16_linear_75_7733)"/>
<path d="M8.28242 3.33398H6.77539C6.29646 3.33398 5.9082 3.72224 5.9082 4.20117V8.55586C5.9082 9.03479 6.29646 9.42305 6.77539 9.42305H8.28242C8.76136 9.42305 9.14961 9.03479 9.14961 8.55586V4.20117C9.14961 3.72224 8.76136 3.33398 8.28242 3.33398Z" fill="url(#paint17_linear_75_7733)"/>
<path d="M8.28242 3.33398H6.77539C6.29646 3.33398 5.9082 3.72224 5.9082 4.20117V8.55586C5.9082 9.03479 6.29646 9.42305 6.77539 9.42305H8.28242C8.76136 9.42305 9.14961 9.03479 9.14961 8.55586V4.20117C9.14961 3.72224 8.76136 3.33398 8.28242 3.33398Z" fill="url(#paint18_radial_75_7733)"/>
<path d="M8.28242 3.33398H6.77539C6.29646 3.33398 5.9082 3.72224 5.9082 4.20117V8.55586C5.9082 9.03479 6.29646 9.42305 6.77539 9.42305H8.28242C8.76136 9.42305 9.14961 9.03479 9.14961 8.55586V4.20117C9.14961 3.72224 8.76136 3.33398 8.28242 3.33398Z" fill="url(#paint19_linear_75_7733)"/>
<path d="M8.28242 3.33398H6.77539C6.29646 3.33398 5.9082 3.72224 5.9082 4.20117V8.55586C5.9082 9.03479 6.29646 9.42305 6.77539 9.42305H8.28242C8.76136 9.42305 9.14961 9.03479 9.14961 8.55586V4.20117C9.14961 3.72224 8.76136 3.33398 8.28242 3.33398Z" fill="url(#paint20_linear_75_7733)"/>
<defs>
<filter id="filter0_i_75_7733" x="8.30273" y="6.59961" width="5.61133" height="3.16819" filterUnits="userSpaceOnUse" color-interpolation-filters="sRGB">
<feFlood flood-opacity="0" result="BackgroundImageFix"/>
<feBlend mode="normal" in="SourceGraphic" in2="BackgroundImageFix" result="shape"/>
<feColorMatrix in="SourceAlpha" type="matrix" values="0 0 0 0 0 0 0 0 0 0 0 0 0 0 0 0 0 0 127 0" result="hardAlpha"/>
<feOffset dy="0.0451389"/>
<feGaussianBlur stdDeviation="0.0451389"/>
<feComposite in2="hardAlpha" operator="arithmetic" k2="-1" k3="1"/>
<feColorMatrix type="matrix" values="0 0 0 0 0.811765 0 0 0 0 0.254902 0 0 0 0 0.388235 0 0 0 1 0"/>
<feBlend mode="normal" in2="shape" result="effect1_innerShadow_75_7733"/>
</filter>
<filter id="filter1_i_75_7733" x="1.05859" y="6.59961" width="5.60938" height="3.16819" filterUnits="userSpaceOnUse" color-interpolation-filters="sRGB">
<feFlood flood-opacity="0" result="BackgroundImageFix"/>
<feBlend mode="normal" in="SourceGraphic" in2="BackgroundImageFix" result="shape"/>
<feColorMatrix in="SourceAlpha" type="matrix" values="0 0 0 0 0 0 0 0 0 0 0 0 0 0 0 0 0 0 127 0" result="hardAlpha"/>
<feOffset dy="0.0451389"/>
<feGaussianBlur stdDeviation="0.0451389"/>
<feComposite in2="hardAlpha" operator="arithmetic" k2="-1" k3="1"/>
<feColorMatrix type="matrix" values="0 0 0 0 0.843137 0 0 0 0 0.25098 0 0 0 0 0.341176 0 0 0 1 0"/>
<feBlend mode="normal" in2="shape" result="effect1_innerShadow_75_7733"/>
</filter>
<linearGradient id="paint0_linear_75_7733" x1="8.57984" y1="9.23602" x2="10.1619" y2="13.1323" gradientUnits="userSpaceOnUse">
<stop stop-color="#BA2950"/>
<stop offset="1" stop-color="#DB1532"/>
</linearGradient>
<linearGradient id="paint1_linear_75_7733" x1="10.4478" y1="8.56195" x2="9.53937" y2="10.1149" gradientUnits="userSpaceOnUse">
<stop offset="0.283" stop-color="#980129"/>
<stop offset="1" stop-color="#980129" stop-opacity="0"/>
</linearGradient>
<linearGradient id="paint2_linear_75_7733" x1="8.14578" y1="10.6052" x2="8.34594" y2="10.5373" gradientUnits="userSpaceOnUse">
<stop stop-color="#A80435"/>
<stop offset="1" stop-color="#A80435" stop-opacity="0"/>
</linearGradient>
<linearGradient id="paint3_linear_75_7733" x1="11.7153" y1="10.998" x2="11.5391" y2="11.0623" gradientUnits="userSpaceOnUse">
<stop stop-color="#E04E6F"/>
<stop offset="1" stop-color="#E04E6F" stop-opacity="0"/>
</linearGradient>
<linearGradient id="paint4_linear_75_7733" x1="6.46322" y1="9.23602" x2="4.88119" y2="13.1323" gradientUnits="userSpaceOnUse">
<stop stop-color="#BA2950"/>
<stop offset="1" stop-color="#DB1532"/>
</linearGradient>
<radialGradient id="paint5_radial_75_7733" cx="0" cy="0" r="1" gradientUnits="userSpaceOnUse" gradientTransform="translate(6.87376 8.20997) rotate(129.152) scale(2.83345 3.24143)">
<stop offset="0.29" stop-color="#980129"/>
<stop offset="1" stop-color="#980129" stop-opacity="0"/>
</radialGradient>
<linearGradient id="paint6_linear_75_7733" x1="3.57947" y1="10.2991" x2="3.82744" y2="10.3905" gradientUnits="userSpaceOnUse">
<stop stop-color="#AA3244"/>
<stop offset="1" stop-color="#AA3244" stop-opacity="0"/>
</linearGradient>
<linearGradient id="paint7_linear_75_7733" x1="6.6765" y1="11.3365" x2="6.49837" y2="11.2666" gradientUnits="userSpaceOnUse">
<stop offset="0.176" stop-color="#D24162"/>
<stop offset="1" stop-color="#D24162" stop-opacity="0"/>
</linearGradient>
<linearGradient id="paint8_linear_75_7733" x1="6.05337" y1="6.51149" x2="0.937436" y2="6.51149" gradientUnits="userSpaceOnUse">
<stop stop-color="#C92D60"/>
<stop offset="0.497" stop-color="#CD2E4E"/>
<stop offset="1" stop-color="#A1383E"/>
</linearGradient>
<radialGradient id="paint9_radial_75_7733" cx="0" cy="0" r="1" gradientUnits="userSpaceOnUse" gradientTransform="translate(4.91056 8.21071) rotate(-90) scale(4.6582 1.51486)">
<stop stop-color="#DB3665"/>
<stop offset="1" stop-color="#DB3665" stop-opacity="0"/>
</radialGradient>
<linearGradient id="paint10_linear_75_7733" x1="9.59836" y1="6.57009" x2="14.0346" y2="6.57009" gradientUnits="userSpaceOnUse">
<stop offset="0.092" stop-color="#A52548"/>
<stop offset="1" stop-color="#EC4953"/>
</linearGradient>
<radialGradient id="paint11_radial_75_7733" cx="0" cy="0" r="1" gradientUnits="userSpaceOnUse" gradientTransform="translate(12.9491 5.66094) rotate(79.089) scale(4.06358 5.54357)">
<stop offset="0.657" stop-color="#932128"/>
<stop offset="1" stop-color="#932128" stop-opacity="0"/>
</radialGradient>
<radialGradient id="paint12_radial_75_7733" cx="0" cy="0" r="1" gradientUnits="userSpaceOnUse" gradientTransform="translate(2.02305 5.66097) rotate(100.911) scale(4.06358 5.54358)">
<stop offset="0.657" stop-color="#97242A"/>
<stop offset="1" stop-color="#932128" stop-opacity="0"/>
</radialGradient>
<linearGradient id="paint13_linear_75_7733" x1="8.9377" y1="8.32232" x2="13.9749" y2="8.32232" gradientUnits="userSpaceOnUse">
<stop stop-color="#BB1865"/>
<stop offset="1" stop-color="#DD1836"/>
</linearGradient>
<linearGradient id="paint14_linear_75_7733" x1="6.03427" y1="8.32232" x2="0.997079" y2="8.32232" gradientUnits="userSpaceOnUse">
<stop stop-color="#C31867"/>
<stop offset="1" stop-color="#C81745"/>
</linearGradient>
<radialGradient id="paint15_radial_75_7733" cx="0" cy="0" r="1" gradientUnits="userSpaceOnUse" gradientTransform="translate(11.5318 8.98701) rotate(-50.6901) scale(2.72846 3.0977)">
<stop offset="0.828" stop-color="#EC4C5C" stop-opacity="0"/>
<stop offset="1" stop-color="#EC4C5C"/>
</radialGradient>
<linearGradient id="paint16_linear_75_7733" x1="7.52867" y1="3.33398" x2="7.52867" y2="9.42352" gradientUnits="userSpaceOnUse">
<stop stop-color="#C83065"/>
<stop offset="1" stop-color="#DF1E30"/>
</linearGradient>
<linearGradient id="paint17_linear_75_7733" x1="5.49992" y1="5.95477" x2="6.74445" y2="6.04195" gradientUnits="userSpaceOnUse">
<stop stop-color="#A2304B"/>
<stop offset="1" stop-color="#A2304B" stop-opacity="0"/>
</linearGradient>
<radialGradient id="paint18_radial_75_7733" cx="0" cy="0" r="1" gradientUnits="userSpaceOnUse" gradientTransform="translate(9.43133 8.22633) rotate(180) scale(2.16218 0.305766)">
<stop stop-color="#F75053"/>
<stop offset="1" stop-color="#F75053" stop-opacity="0"/>
</radialGradient>
<linearGradient id="paint19_linear_75_7733" x1="9.22367" y1="5.9768" x2="8.75398" y2="5.9768" gradientUnits="userSpaceOnUse">
<stop stop-color="#C11451"/>
<stop offset="1" stop-color="#C11451" stop-opacity="0"/>
</linearGradient>
<linearGradient id="paint20_linear_75_7733" x1="7.83664" y1="9.6457" x2="7.83664" y2="8.75039" gradientUnits="userSpaceOnUse">
<stop stop-color="#D12951"/>
<stop offset="1" stop-color="#D12951" stop-opacity="0"/>
</linearGradient>
</defs>
</svg>
