<svg width="24" height="24" viewBox="0 0 24 24" fill="none" xmlns="http://www.w3.org/2000/svg">
<g id="weui:search-outlined">
<path id="Vector" fill-rule="evenodd" clip-rule="evenodd" d="M16.3099 15.5609L20.4239 19.6759L19.5759 20.5239L15.4529 16.4009C14.0607 17.549 12.2789 18.115 10.4793 17.9809C8.67978 17.8468 7.00154 17.0229 5.79484 15.6812C4.58814 14.3395 3.9462 12.5836 4.00298 10.78C4.05977 8.97634 4.81089 7.26431 6.0996 6.00116C7.38831 4.73802 9.11504 4.02134 10.9195 4.0007C12.7239 3.98006 14.4665 4.65705 15.7838 5.89039C17.1011 7.12373 17.8912 8.81813 17.9892 10.62C18.0872 12.4219 17.4856 14.192 16.3099 15.5609ZM16.7999 10.9999C16.7999 9.46167 16.1888 7.98642 15.1011 6.89871C14.0134 5.811 12.5382 5.19993 10.9999 5.19993C9.46164 5.19993 7.98639 5.811 6.89868 6.89871C5.81097 7.98642 5.1999 9.46167 5.1999 10.9999C5.1999 12.5382 5.81097 14.0134 6.89868 15.1011C7.98639 16.1889 9.46164 16.7999 10.9999 16.7999C12.5382 16.7999 14.0134 16.1889 15.1011 15.1011C16.1888 14.0134 16.7999 12.5382 16.7999 10.9999Z" fill="#72767A"/>
</g>
</svg>
