<svg width="28" height="28" viewBox="0 0 28 28" fill="none" xmlns="http://www.w3.org/2000/svg">
<g id="weui:search-outlined">
<path id="Vector" fill-rule="evenodd" clip-rule="evenodd" d="M19.0283 18.1545L23.828 22.9553L22.8387 23.9446L18.0285 19.1345C16.4042 20.4738 14.3255 21.1342 12.226 20.9777C10.1265 20.8213 8.1686 19.8601 6.76078 18.2948C5.35296 16.7294 4.60403 14.6809 4.67028 12.5767C4.73653 10.4724 5.61283 8.47507 7.11633 7.0014C8.61983 5.52773 10.6343 4.69161 12.7395 4.66753C14.8446 4.64345 16.8778 5.43327 18.4146 6.87216C19.9514 8.31106 20.8731 10.2879 20.9875 12.39C21.1019 14.4922 20.4 16.5573 19.0283 18.1545ZM19.6 12.8333C19.6 11.0387 18.8871 9.31753 17.6181 8.04853C16.3491 6.77954 14.628 6.06662 12.8333 6.06662C11.0387 6.06662 9.31759 6.77954 8.04859 8.04853C6.7796 9.31753 6.06668 11.0387 6.06668 12.8333C6.06668 14.6279 6.7796 16.349 8.04859 17.618C9.31759 18.887 11.0387 19.6 12.8333 19.6C14.628 19.6 16.3491 18.887 17.6181 17.618C18.8871 16.349 19.6 14.6279 19.6 12.8333Z" fill="#333333"/>
</g>
</svg>
