<svg width="33" height="26" viewBox="0 0 33 26" fill="none" xmlns="http://www.w3.org/2000/svg">
<g clip-path="url(#clip0_31_293)">
<path d="M22.9587 3.67678C24.6251 5.18823 24.6251 7.61964 24.6251 12.481V14.6025C24.6251 19.4653 24.6251 21.8967 22.9587 23.4067C21.2922 24.9167 18.612 24.9167 13.2501 24.9167C7.88823 24.9167 5.20658 24.9167 3.54156 23.4067C1.87654 21.8967 1.87512 19.4653 1.87512 14.6025V12.481C1.87512 7.61822 1.87512 5.18681 3.54156 3.67678C5.208 2.16675 7.88823 2.16675 13.2501 2.16675C18.612 2.16675 21.2937 2.16675 22.9587 3.67678Z" stroke="white" stroke-width="1.8" stroke-linecap="round" stroke-linejoin="round"/>
<path d="M12.6557 8.08633C12.4075 8.21901 12.2319 8.65971 11.8808 9.53952L11.5826 10.2914C11.4782 10.5489 11.4267 10.6784 11.3435 10.7779C11.2698 10.8643 11.1789 10.9328 11.0771 10.9785C10.962 11.0322 10.8289 11.0417 10.561 11.0654L9.783 11.1301C8.87336 11.206 8.41779 11.2439 8.22103 11.4508C8.13706 11.5387 8.07412 11.646 8.0373 11.764C8.00049 11.882 7.99084 12.0074 8.00914 12.13C8.05151 12.4191 8.39811 12.7302 9.09283 13.3494L9.68462 13.8786C9.88895 14.0618 9.99035 14.1518 10.0539 14.2656C10.1108 14.3653 10.146 14.477 10.1568 14.5925C10.169 14.7221 10.1372 14.8595 10.0751 15.1312L9.89349 15.9225C9.68159 16.8513 9.57564 17.3141 9.70278 17.5732C9.75693 17.6842 9.83548 17.7803 9.93202 17.8536C10.0286 17.9269 10.1403 17.9753 10.2582 17.9949C10.5337 18.0407 10.9242 17.7911 11.7022 17.2952L12.3681 16.8702C12.5982 16.7249 12.7117 16.6507 12.8343 16.6223C12.9429 16.5969 13.0556 16.5969 13.1642 16.6223C13.2853 16.6507 13.4019 16.7249 13.6304 16.8702L14.2964 17.2952C15.0758 17.7911 15.4648 18.0407 15.7403 17.9949C15.8582 17.9753 15.97 17.9269 16.0665 17.8536C16.163 17.7803 16.2416 17.6842 16.2957 17.5732C16.4229 17.3141 16.3169 16.8513 16.105 15.9225L15.9234 15.1327C15.8629 14.8595 15.8296 14.7221 15.8417 14.5925C15.8525 14.477 15.8877 14.3653 15.9446 14.2656C16.0082 14.1518 16.1111 14.0602 16.3139 13.8786L16.9057 13.3494C17.6004 12.7286 17.947 12.4175 17.9909 12.1316C18.0095 12.0087 17.9999 11.883 17.9631 11.7647C17.9263 11.6464 17.8632 11.5388 17.779 11.4508C17.5822 11.2454 17.1267 11.206 16.2155 11.1301L15.4376 11.0654C15.1697 11.0433 15.0365 11.0306 14.9215 10.9785C14.8197 10.9328 14.7287 10.8643 14.6551 10.7779C14.5718 10.6784 14.5189 10.5489 14.4174 10.2914L14.1178 9.53952C13.7666 8.65971 13.5911 8.21901 13.3428 8.08633C13.2364 8.02974 13.1187 8.00024 12.9993 8.00024C12.8798 8.00024 12.7621 8.02974 12.6557 8.08633Z" fill="white"/>
</g>
<path d="M24.5001 16L29.2929 9.25071" stroke="white" stroke-width="1.8"/>
<circle cx="29.5001" cy="9.20833" r="2.70833" fill="white"/>
<defs>
<clipPath id="clip0_31_293">
<rect width="26" height="26" fill="white" transform="translate(0.791748)"/>
</clipPath>
</defs>
</svg>
