<svg width="46" height="46" viewBox="0 0 46 46" fill="none" xmlns="http://www.w3.org/2000/svg">
<g clip-path="url(#clip0_82_964)">
<path fill-rule="evenodd" clip-rule="evenodd" d="M34.8235 5.55238H10.7171C9.34705 5.55238 8.03314 6.09662 7.06439 7.06537C6.09564 8.03412 5.5514 9.34802 5.5514 10.718V28.0299L8.86432 25.6193C9.9068 24.8618 11.1646 24.4584 12.4532 24.4684C13.7418 24.4783 14.9932 24.9009 16.0239 25.6744L19.2197 28.0712L27.3746 21.0804C28.4958 20.1202 29.9303 19.6049 31.4061 19.6322C32.882 19.6595 34.2965 20.2275 35.3814 21.2284L39.9892 25.4815V10.718C39.9892 9.34802 39.4449 8.03412 38.4762 7.06537C37.5074 6.09662 36.1935 5.55238 34.8235 5.55238ZM45.1548 31.3738V10.718C45.1548 7.97801 44.0663 5.35019 42.1288 3.41269C40.1913 1.47519 37.5635 0.386719 34.8235 0.386719H10.7171C7.97703 0.386719 5.34922 1.47519 3.41172 3.41269C1.47422 5.35019 0.385742 7.97801 0.385742 10.718V34.8245C0.385742 37.5645 1.47422 40.1923 3.41172 42.1298C5.34922 44.0673 7.97703 45.1558 10.7171 45.1558H34.8235C37.5635 45.1558 40.1913 44.0673 42.1288 42.1298C44.0663 40.1923 45.1548 37.5645 45.1548 34.8245V31.3738ZM39.9892 32.5102L31.8791 25.0235C31.724 24.8807 31.522 24.7997 31.3113 24.7959C31.1006 24.7921 30.8958 24.8657 30.7357 25.0028L21.0071 33.3436L19.4333 34.6936L17.7768 33.4504L12.9211 29.8103C12.774 29.7008 12.5959 29.641 12.4125 29.6398C12.2292 29.6386 12.0502 29.6959 11.9017 29.8034L5.5514 34.4147V34.8245C5.5514 36.1945 6.09564 37.5084 7.06439 38.4771C8.03314 39.4459 9.34705 39.9901 10.7171 39.9901H34.8235C36.1935 39.9901 37.5074 39.4459 38.4762 38.4771C39.4449 37.5084 39.9892 36.1945 39.9892 34.8245V32.5102ZM21.0484 15.8837C21.0484 17.2537 20.5042 18.5676 19.5354 19.5364C18.5667 20.5051 17.2527 21.0494 15.8827 21.0494C14.5127 21.0494 13.1988 20.5051 12.2301 19.5364C11.2613 18.5676 10.7171 17.2537 10.7171 15.8837C10.7171 14.5137 11.2613 13.1998 12.2301 12.231C13.1988 11.2623 14.5127 10.718 15.8827 10.718C17.2527 10.718 18.5667 11.2623 19.5354 12.231C20.5042 13.1998 21.0484 14.5137 21.0484 15.8837Z" fill="#BBBBBB"/>
</g>
<defs>
<clipPath id="clip0_82_964">
<rect width="45.4578" height="45.4578" fill="white" transform="translate(0.0410156 0.0429688)"/>
</clipPath>
</defs>
</svg>
