<svg width="50" height="50" viewBox="0 0 50 50" fill="none" xmlns="http://www.w3.org/2000/svg">
<g id="ph:arrow-up">
<rect width="50" height="50" rx="25" fill="#26C48C"/>
<path id="Vector" d="M33.5648 24.1537C33.4829 24.2357 33.3856 24.3008 33.2785 24.3452C33.1713 24.3896 33.0565 24.4124 32.9406 24.4124C32.8246 24.4124 32.7098 24.3896 32.6027 24.3452C32.4956 24.3008 32.3983 24.2357 32.3164 24.1537L25.8822 17.7184V34.9993C25.8822 35.2333 25.7893 35.4577 25.6238 35.6231C25.4584 35.7886 25.2339 35.8816 24.9999 35.8816C24.7659 35.8816 24.5415 35.7886 24.3761 35.6231C24.2106 35.4577 24.1176 35.2333 24.1176 34.9993V17.7184L17.6835 24.1537C17.518 24.3192 17.2934 24.4122 17.0593 24.4122C16.8252 24.4122 16.6006 24.3192 16.4351 24.1537C16.2695 23.9881 16.1765 23.7636 16.1765 23.5294C16.1765 23.2953 16.2695 23.0708 16.4351 22.9052L24.3757 14.9646C24.4577 14.8825 24.555 14.8175 24.6621 14.7731C24.7692 14.7287 24.884 14.7058 24.9999 14.7058C25.1159 14.7058 25.2307 14.7287 25.3378 14.7731C25.4449 14.8175 25.5422 14.8825 25.6242 14.9646L33.5648 22.9052C33.6468 22.9872 33.7119 23.0845 33.7563 23.1916C33.8007 23.2987 33.8236 23.4135 33.8236 23.5294C33.8236 23.6454 33.8007 23.7602 33.7563 23.8673C33.7119 23.9744 33.6468 24.0717 33.5648 24.1537Z" fill="white"/>
</g>
</svg>
