<svg width="24" height="24" viewBox="0 0 24 24" fill="none" xmlns="http://www.w3.org/2000/svg">
<path fill-rule="evenodd" clip-rule="evenodd" d="M17.8333 3.66675H6.16663C5.50358 3.66675 4.8677 3.93014 4.39886 4.39898C3.93002 4.86782 3.66663 5.50371 3.66663 6.16675V14.5451L5.26996 13.3784C5.77448 13.0118 6.38323 12.8166 7.00685 12.8214C7.63047 12.8262 8.23614 13.0308 8.73496 13.4051L10.2816 14.5651L14.2283 11.1817C14.7709 10.7171 15.4652 10.4677 16.1794 10.4809C16.8937 10.4941 17.5782 10.769 18.1033 11.2534L20.3333 13.3117V6.16675C20.3333 5.50371 20.0699 4.86782 19.6011 4.39898C19.1322 3.93014 18.4963 3.66675 17.8333 3.66675ZM22.8333 16.1634V6.16675C22.8333 4.84067 22.3065 3.5689 21.3688 2.63121C20.4311 1.69353 19.1594 1.16675 17.8333 1.16675H6.16663C4.84054 1.16675 3.56877 1.69353 2.63109 2.63121C1.69341 3.5689 1.16663 4.84067 1.16663 6.16675V17.8334C1.16663 19.1595 1.69341 20.4313 2.63109 21.3689C3.56877 22.3066 4.84054 22.8334 6.16663 22.8334H17.8333C19.1594 22.8334 20.4311 22.3066 21.3688 21.3689C22.3065 20.4313 22.8333 19.1595 22.8333 17.8334V16.1634ZM20.3333 16.7134L16.4083 13.0901C16.3333 13.021 16.2355 12.9818 16.1335 12.9799C16.0315 12.9781 15.9324 13.0137 15.855 13.0801L11.1466 17.1167L10.385 17.7701L9.58329 17.1684L7.23329 15.4067C7.16213 15.3537 7.07591 15.3248 6.98717 15.3242C6.89844 15.3236 6.81183 15.3514 6.73996 15.4034L3.66663 17.6351V17.8334C3.66663 18.4965 3.93002 19.1323 4.39886 19.6012C4.8677 20.07 5.50358 20.3334 6.16663 20.3334H17.8333C18.4963 20.3334 19.1322 20.07 19.6011 19.6012C20.0699 19.1323 20.3333 18.4965 20.3333 17.8334V16.7134ZM11.1666 8.66675C11.1666 9.32979 10.9032 9.96567 10.4344 10.4345C9.96555 10.9034 9.32967 11.1667 8.66663 11.1667C8.00358 11.1667 7.3677 10.9034 6.89886 10.4345C6.43002 9.96567 6.16663 9.32979 6.16663 8.66675C6.16663 8.00371 6.43002 7.36782 6.89886 6.89898C7.3677 6.43014 8.00358 6.16675 8.66663 6.16675C9.32967 6.16675 9.96555 6.43014 10.4344 6.89898C10.9032 7.36782 11.1666 8.00371 11.1666 8.66675Z" fill="#BBBBBB"/>
</svg>
