<svg width="11" height="11" viewBox="0 0 11 11" fill="none" xmlns="http://www.w3.org/2000/svg">
<g clip-path="url(#clip0_111_1736)">
<path fill-rule="evenodd" clip-rule="evenodd" d="M8.51064 1.68333H2.88815C2.56862 1.68333 2.26217 1.81027 2.03622 2.03622C1.81027 2.26217 1.68333 2.56862 1.68333 2.88815V6.92591L2.45603 6.36366C2.69917 6.18699 2.99254 6.09291 3.29308 6.09522C3.59362 6.09754 3.88551 6.19612 4.12591 6.37651L4.87129 6.93554L6.77329 5.30502C7.03479 5.08108 7.36937 4.96089 7.7136 4.96726C8.05782 4.97363 8.38773 5.1061 8.64076 5.33956L9.71546 6.33153V2.88815C9.71546 2.56862 9.58853 2.26217 9.36258 2.03622C9.13663 1.81027 8.83018 1.68333 8.51064 1.68333ZM10.9203 7.70582V2.88815C10.9203 2.24908 10.6664 1.63618 10.2145 1.18428C9.76262 0.732388 9.14972 0.478516 8.51064 0.478516H2.88815C2.24908 0.478516 1.63618 0.732388 1.18428 1.18428C0.732388 1.63618 0.478516 2.24908 0.478516 2.88815V8.51064C0.478516 9.14972 0.732388 9.76262 1.18428 10.2145C1.63618 10.6664 2.24908 10.9203 2.88815 10.9203H8.51064C9.14972 10.9203 9.76262 10.6664 10.2145 10.2145C10.6664 9.76262 10.9203 9.14972 10.9203 8.51064V7.70582ZM9.71546 7.97088L7.8239 6.2247C7.78774 6.1914 7.74063 6.17251 7.69148 6.17162C7.64233 6.17073 7.59456 6.18791 7.55723 6.21988L5.28815 8.16526L4.92109 8.48012L4.53474 8.19016L3.40221 7.34117C3.36792 7.31562 3.32636 7.30168 3.2836 7.30139C3.24083 7.3011 3.19909 7.31448 3.16446 7.33956L1.68333 8.41506V8.51064C1.68333 8.83018 1.81027 9.13663 2.03622 9.36258C2.26217 9.58853 2.56862 9.71546 2.88815 9.71546H8.51064C8.83018 9.71546 9.13663 9.58853 9.36258 9.36258C9.58853 9.13663 9.71546 8.83018 9.71546 8.51064V7.97088ZM5.29779 4.09297C5.29779 4.41251 5.17086 4.71896 4.94491 4.94491C4.71896 5.17086 4.41251 5.29779 4.09297 5.29779C3.77344 5.29779 3.46698 5.17086 3.24104 4.94491C3.01509 4.71896 2.88815 4.41251 2.88815 4.09297C2.88815 3.77344 3.01509 3.46698 3.24104 3.24104C3.46698 3.01509 3.77344 2.88815 4.09297 2.88815C4.41251 2.88815 4.71896 3.01509 4.94491 3.24104C5.17086 3.46698 5.29779 3.77344 5.29779 4.09297Z" fill="#BBBBBB"/>
</g>
<defs>
<clipPath id="clip0_111_1736">
<rect width="10.6024" height="10.6024" fill="white" transform="translate(0.398438 0.398438)"/>
</clipPath>
</defs>
</svg>
