<svg width="20" height="20" viewBox="0 0 20 20" fill="none" xmlns="http://www.w3.org/2000/svg">
<g id="f7:exclamationmark-circle">
<path id="Vector" d="M9.99997 18.5376C5.33747 18.5376 1.46212 14.6705 1.46212 9.99977C1.46212 5.33727 5.34605 1.46191 10.0085 1.46191C14.6789 1.46191 18.5375 5.33727 18.5375 9.99977C18.5375 14.6705 14.6707 18.5376 9.99997 18.5376ZM9.99962 17.1148C13.951 17.1148 17.1071 13.9505 17.1071 9.99977C17.1071 6.05691 13.9596 2.88477 10.0085 2.88477C6.06605 2.88477 2.8939 6.05727 2.88533 9.99977C2.87712 13.9508 6.05783 17.1148 10.0003 17.1148M10.0085 11.5148C9.60712 11.5148 9.38105 11.2887 9.37283 10.8537L9.24712 6.43406C9.23855 6.00691 9.57355 5.68906 10.0171 5.68906C10.4693 5.68906 10.7871 5.9987 10.7789 6.42549L10.67 10.8537C10.6618 11.2805 10.4271 11.5148 10.0085 11.5148ZM10.0085 14.2351C9.53176 14.2351 9.10497 13.8501 9.10497 13.3648C9.10497 12.8708 9.52319 12.4941 10.0085 12.4941C10.5025 12.4941 10.9128 12.8791 10.9128 13.3648C10.9128 13.8419 10.4943 14.2351 10.0085 14.2351Z" fill="#72767A"/>
</g>
</svg>
