<svg width="20" height="20" viewBox="0 0 20 20" fill="none" xmlns="http://www.w3.org/2000/svg">
<g id="Component 3">
<path id="Vector" d="M4.16667 6.66667H2.5V15H17.5V6.66667H16.25M12.9167 5.83333C13.2428 6.02192 13.5221 6.28178 13.7337 6.59348C13.9453 6.90519 14.0837 7.26069 14.1386 7.63341C14.1934 8.00613 14.1634 8.38643 14.0506 8.74589C13.9378 9.10535 13.7453 9.43468 13.4873 9.70926C13.2294 9.98384 12.9127 10.1966 12.561 10.3316C12.2093 10.4666 11.8316 10.5203 11.4562 10.4888C11.0808 10.4573 10.7173 10.3414 10.393 10.1496C10.0687 9.95793 9.79191 9.6954 9.58333 9.38167M10.8333 5C10.8333 5.66304 10.5699 6.29893 10.1011 6.76777C9.63226 7.23661 8.99637 7.5 8.33333 7.5C7.67029 7.5 7.03441 7.23661 6.56557 6.76777C6.09673 6.29893 5.83333 5.66304 5.83333 5C5.83333 4.33696 6.09673 3.70107 6.56557 3.23223C7.03441 2.76339 7.67029 2.5 8.33333 2.5C8.99637 2.5 9.63226 2.76339 10.1011 3.23223C10.5699 3.70107 10.8333 4.33696 10.8333 5Z" stroke="#BBBBBB" stroke-width="2" stroke-linecap="round" stroke-linejoin="round"/>
</g>
</svg>
