<svg width="15" height="14" viewBox="0 0 15 14" fill="none" xmlns="http://www.w3.org/2000/svg">
<g id="typcn:warning-outline" clip-path="url(#clip0_39_4393)">
<path id="Vector" d="M9.11237 2.20292L9.11231 2.20282C8.73588 1.54495 8.17124 1.10101 7.50016 1.10101C6.82908 1.10101 6.26444 1.54495 5.888 2.20282L5.88794 2.20292L1.377 10.0905C1.37697 10.0906 1.37693 10.0906 1.37689 10.0907C1.00168 10.7448 0.89788 11.4518 1.21054 12.0311C1.52778 12.6189 2.17718 12.899 2.92173 12.899H12.0786C12.823 12.899 13.4724 12.6192 13.7897 12.0314C14.1025 11.4522 13.9986 10.7452 13.6235 10.0909C13.6235 10.0908 13.6234 10.0907 13.6234 10.0906L9.11237 2.20292ZM0.935975 9.76396L0.936086 9.76377L5.447 1.87464C5.44707 1.87453 5.44713 1.87442 5.44719 1.87431C5.9727 0.958549 6.73021 0.5 7.50016 0.5C8.27 0.5 9.02752 0.958442 9.55306 1.87661L14.0642 9.76461L14.0643 9.76476C14.5962 10.694 14.625 11.6259 14.2374 12.3451C13.8532 13.0581 13.0911 13.5 12.0786 13.5H2.92173C1.9097 13.5 1.14788 13.0576 0.76271 12.344C0.374714 11.6252 0.403917 10.6935 0.935975 9.76396Z" fill="white" stroke="white"/>
<path id="Vector_2" d="M7.50014 11.8462C8.09187 11.8462 8.57157 11.3641 8.57157 10.7693C8.57157 10.1745 8.09187 9.69238 7.50014 9.69238C6.90841 9.69238 6.42871 10.1745 6.42871 10.7693C6.42871 11.3641 6.90841 11.8462 7.50014 11.8462Z" fill="white"/>
<path id="Vector_3" d="M8.57157 5.48244C8.57157 4.83237 8.092 4.30762 7.49952 4.30762C7.32411 4.30784 7.15143 4.35523 6.99663 4.44562C6.84182 4.53602 6.70962 4.66666 6.61162 4.82608C6.51363 4.98551 6.45282 5.16886 6.43455 5.36003C6.41627 5.55121 6.44108 5.74439 6.5068 5.92261C6.90274 7.00032 7.49952 8.61531 7.49952 8.61531L8.49367 5.92261C8.54227 5.78711 8.57157 5.6383 8.57157 5.48244Z" fill="white"/>
</g>
<defs>
<clipPath id="clip0_39_4393">
<rect width="15" height="14" fill="white"/>
</clipPath>
</defs>
</svg>
