<svg width="15" height="15" viewBox="0 0 15 15" fill="none" xmlns="http://www.w3.org/2000/svg">
<g id="typcn:warning-outline" clip-path="url(#clip0_57_3083)">
<path id="Vector" d="M7.50016 2.10101C7.92824 2.10101 8.35403 2.38438 8.67834 2.95114L13.1896 10.8393C13.839 11.972 13.3377 12.899 12.0786 12.899H2.92173C1.66266 12.899 1.16133 11.9712 1.8107 10.8393L6.32198 2.95114C6.64628 2.38438 7.07207 2.10101 7.50016 2.10101ZM7.50016 0.5C6.51122 0.5 5.60621 1.09237 5.01331 2.12582L0.502032 10.0156C-0.0977423 11.0634 -0.163366 12.1809 0.32271 13.0815C0.808786 13.9821 1.75652 14.5 2.92173 14.5H12.0786C13.2438 14.5 14.1923 13.9829 14.6776 13.0823C15.1629 12.1817 15.0981 11.0642 14.4983 10.0164L9.98701 2.12822C9.3941 1.09237 8.4891 0.5 7.50016 0.5Z" fill="#72767A"/>
<path id="Vector_2" d="M7.50014 12.3462C8.09187 12.3462 8.57157 11.8641 8.57157 11.2693C8.57157 10.6745 8.09187 10.1924 7.50014 10.1924C6.90841 10.1924 6.42871 10.6745 6.42871 11.2693C6.42871 11.8641 6.90841 12.3462 7.50014 12.3462Z" fill="#72767A"/>
<path id="Vector_3" d="M8.57157 5.98244C8.57157 5.33237 8.092 4.80762 7.49952 4.80762C7.32411 4.80784 7.15143 4.85523 6.99663 4.94562C6.84182 5.03602 6.70962 5.16666 6.61162 5.32608C6.51363 5.48551 6.45282 5.66886 6.43455 5.86003C6.41627 6.05121 6.44108 6.24439 6.5068 6.42261C6.90274 7.50032 7.49952 9.11531 7.49952 9.11531L8.49367 6.42261C8.54227 6.28711 8.57157 6.1383 8.57157 5.98244Z" fill="#72767A"/>
</g>
<defs>
<clipPath id="clip0_57_3083">
<rect width="15" height="14" fill="white" transform="translate(0 0.5)"/>
</clipPath>
</defs>
</svg>
