<svg width="51" height="50" viewBox="0 0 51 50" fill="none" xmlns="http://www.w3.org/2000/svg">
<g opacity="0.8">
<rect x="1.33337" y="0.5" width="49" height="49" rx="7.5" fill="#F5F5F5"/>
<rect x="1.33337" y="0.5" width="49" height="49" rx="7.5" stroke="#EBEBEB"/>
<g clip-path="url(#clip0_6_2817)">
<path fill-rule="evenodd" clip-rule="evenodd" d="M31.6667 16.6667H20C19.337 16.6667 18.7011 16.9301 18.2322 17.399C17.7634 17.8678 17.5 18.5037 17.5 19.1667V27.5451L19.1033 26.3784C19.6079 26.0118 20.2166 25.8166 20.8402 25.8214C21.4638 25.8262 22.0695 26.0308 22.5683 26.4051L24.115 27.5651L28.0617 24.1817C28.6043 23.7171 29.2985 23.4677 30.0128 23.4809C30.727 23.4941 31.4116 23.769 31.9367 24.2534L34.1667 26.3117V19.1667C34.1667 18.5037 33.9033 17.8678 33.4344 17.399C32.9656 16.9301 32.3297 16.6667 31.6667 16.6667ZM36.6667 29.1634V19.1667C36.6667 17.8407 36.1399 16.5689 35.2022 15.6312C34.2645 14.6935 32.9927 14.1667 31.6667 14.1667H20C18.6739 14.1667 17.4021 14.6935 16.4645 15.6312C15.5268 16.5689 15 17.8407 15 19.1667V30.8334C15 32.1595 15.5268 33.4313 16.4645 34.3689C17.4021 35.3066 18.6739 35.8334 20 35.8334H31.6667C32.9927 35.8334 34.2645 35.3066 35.2022 34.3689C36.1399 33.4313 36.6667 32.1595 36.6667 30.8334V29.1634ZM34.1667 29.7134L30.2417 26.0901C30.1666 26.021 30.0689 25.9818 29.9669 25.9799C29.8649 25.9781 29.7658 26.0137 29.6883 26.0801L24.98 30.1167L24.2183 30.7701L23.4167 30.1684L21.0667 28.4067C20.9955 28.3537 20.9093 28.3248 20.8205 28.3242C20.7318 28.3236 20.6452 28.3514 20.5733 28.4034L17.5 30.6351V30.8334C17.5 31.4965 17.7634 32.1323 18.2322 32.6012C18.7011 33.07 19.337 33.3334 20 33.3334H31.6667C32.3297 33.3334 32.9656 33.07 33.4344 32.6012C33.9033 32.1323 34.1667 31.4965 34.1667 30.8334V29.7134ZM25 21.6667C25 22.3298 24.7366 22.9657 24.2678 23.4345C23.7989 23.9034 23.163 24.1667 22.5 24.1667C21.837 24.1667 21.2011 23.9034 20.7322 23.4345C20.2634 22.9657 20 22.3298 20 21.6667C20 21.0037 20.2634 20.3678 20.7322 19.899C21.2011 19.4301 21.837 19.1667 22.5 19.1667C23.163 19.1667 23.7989 19.4301 24.2678 19.899C24.7366 20.3678 25 21.0037 25 21.6667Z" fill="#BBBBBB"/>
</g>
</g>
<defs>
<clipPath id="clip0_6_2817">
<rect width="22" height="22" fill="white" transform="translate(14.8334 14)"/>
</clipPath>
</defs>
</svg>
