<svg width="71" height="70" viewBox="0 0 71 70" fill="none" xmlns="http://www.w3.org/2000/svg">
<g opacity="0.8">
<rect x="1" y="0.5" width="69" height="69" rx="7.5" fill="#F5F5F5"/>
<rect x="1" y="0.5" width="69" height="69" rx="7.5" stroke="#EBEBEB"/>
<g clip-path="url(#clip0_6_3385)">
<path fill-rule="evenodd" clip-rule="evenodd" d="M41.3333 26.6667H29.6667C29.0036 26.6667 28.3677 26.9301 27.8989 27.399C27.4301 27.8678 27.1667 28.5037 27.1667 29.1667V37.5451L28.77 36.3784C29.2745 36.0118 29.8833 35.8166 30.5069 35.8214C31.1305 35.8262 31.7362 36.0308 32.235 36.4051L33.7817 37.5651L37.7283 34.1817C38.2709 33.7171 38.9652 33.4677 39.6795 33.4809C40.3937 33.4941 41.0783 33.769 41.6033 34.2534L43.8333 36.3117V29.1667C43.8333 28.5037 43.5699 27.8678 43.1011 27.399C42.6323 26.9301 41.9964 26.6667 41.3333 26.6667ZM46.3333 39.1634V29.1667C46.3333 27.8407 45.8065 26.5689 44.8689 25.6312C43.9312 24.6935 42.6594 24.1667 41.3333 24.1667H29.6667C28.3406 24.1667 27.0688 24.6935 26.1311 25.6312C25.1934 26.5689 24.6667 27.8407 24.6667 29.1667V40.8334C24.6667 42.1595 25.1934 43.4313 26.1311 44.3689C27.0688 45.3066 28.3406 45.8334 29.6667 45.8334H41.3333C42.6594 45.8334 43.9312 45.3066 44.8689 44.3689C45.8065 43.4313 46.3333 42.1595 46.3333 40.8334V39.1634ZM43.8333 39.7134L39.9083 36.0901C39.8333 36.021 39.7355 35.9818 39.6336 35.9799C39.5316 35.9781 39.4325 36.0137 39.355 36.0801L34.6467 40.1167L33.885 40.7701L33.0833 40.1684L30.7333 38.4067C30.6622 38.3537 30.5759 38.3248 30.4872 38.3242C30.3985 38.3236 30.3119 38.3514 30.24 38.4034L27.1667 40.6351V40.8334C27.1667 41.4965 27.4301 42.1323 27.8989 42.6012C28.3677 43.07 29.0036 43.3334 29.6667 43.3334H41.3333C41.9964 43.3334 42.6323 43.07 43.1011 42.6012C43.5699 42.1323 43.8333 41.4965 43.8333 40.8334V39.7134ZM34.6667 31.6667C34.6667 32.3298 34.4033 32.9657 33.9344 33.4345C33.4656 33.9034 32.8297 34.1667 32.1667 34.1667C31.5036 34.1667 30.8677 33.9034 30.3989 33.4345C29.9301 32.9657 29.6667 32.3298 29.6667 31.6667C29.6667 31.0037 29.9301 30.3678 30.3989 29.899C30.8677 29.4301 31.5036 29.1667 32.1667 29.1667C32.8297 29.1667 33.4656 29.4301 33.9344 29.899C34.4033 30.3678 34.6667 31.0037 34.6667 31.6667Z" fill="#BBBBBB"/>
</g>
</g>
<defs>
<clipPath id="clip0_6_3385">
<rect width="22" height="22" fill="white" transform="translate(24.5 24)"/>
</clipPath>
</defs>
</svg>
