<svg width="28" height="28" viewBox="0 0 28 28" fill="none" xmlns="http://www.w3.org/2000/svg">
<path d="M5 18.2857H24M7.19231 18.2857V11.1429C7.19231 9.24845 7.96222 7.43164 9.33268 6.09209C10.7031 4.75255 12.5619 4 14.5 4C15.0079 4 15.5104 4.05168 16 4.15207M21.8077 18.2857V11.1429C21.8077 10.7576 21.7758 10.3755 21.7136 10M11.5769 20.4286V21.1429C11.5769 21.9006 11.8849 22.6273 12.4331 23.1632C12.9813 23.699 13.7248 24 14.5 24C15.2752 24 16.0187 23.699 16.5669 23.1632C17.1151 22.6273 17.4231 21.9006 17.4231 21.1429V20.4286" stroke="#333333" stroke-width="1.5"/>
<circle cx="20" cy="6" r="3" fill="#DB1E29"/>
</svg>
