<svg width="20" height="20" viewBox="0 0 20 20" fill="none" xmlns="http://www.w3.org/2000/svg">
<path d="M13.3334 12.5V11.6667C13.3334 10.7826 12.9822 9.93476 12.3571 9.30964C11.7319 8.68452 10.8841 8.33333 10 8.33333H6.66671M6.66671 8.33333L9.16671 10.8333M6.66671 8.33333L9.16671 5.83333M16.6667 17.5V4.16667C16.6667 3.72464 16.4911 3.30072 16.1786 2.98816C15.866 2.67559 15.4421 2.5 15 2.5H5.00004C4.55801 2.5 4.13409 2.67559 3.82153 2.98816C3.50897 3.30072 3.33337 3.72464 3.33337 4.16667V17.5L6.66671 15.8333L10 17.5L13.3334 15.8333L16.6667 17.5Z" stroke="#4289F0" stroke-width="1.66667" stroke-linecap="round" stroke-linejoin="round"/>
</svg>
