<svg width="20" height="20" viewBox="0 0 20 20" fill="none" xmlns="http://www.w3.org/2000/svg">
<path d="M15.8333 6.66666H4.16667C3.24619 6.66666 2.5 7.41285 2.5 8.33332V16.6667C2.5 17.5871 3.24619 18.3333 4.16667 18.3333H15.8333C16.7538 18.3333 17.5 17.5871 17.5 16.6667V8.33332C17.5 7.41285 16.7538 6.66666 15.8333 6.66666Z" stroke="#BBBBBB" stroke-width="1.66667" stroke-linecap="round" stroke-linejoin="round"/>
<path d="M10 4.16666C10 3.6722 9.85338 3.18886 9.57867 2.77773C9.30397 2.36661 8.91352 2.04618 8.45671 1.85696C7.99989 1.66774 7.49723 1.61823 7.01227 1.71469C6.52732 1.81116 6.08186 2.04926 5.73223 2.39889C5.3826 2.74852 5.1445 3.19398 5.04804 3.67893C4.95157 4.16388 5.00108 4.66655 5.1903 5.12337C5.37952 5.58018 5.69995 5.97063 6.11107 6.24533C6.5222 6.52003 7.00555 6.66666 7.5 6.66666M10 4.16666C10 3.6722 10.1466 3.18886 10.4213 2.77773C10.696 2.36661 11.0865 2.04618 11.5433 1.85696C12.0001 1.66774 12.5028 1.61823 12.9877 1.71469C13.4727 1.81116 13.9181 2.04926 14.2678 2.39889C14.6174 2.74852 14.8555 3.19398 14.952 3.67893C15.0484 4.16388 14.9989 4.66655 14.8097 5.12337C14.6205 5.58018 14.3 5.97063 13.8889 6.24533C13.4778 6.52003 12.9945 6.66666 12.5 6.66666M10 4.16666V18.3333M17.5 12.5H2.5" stroke="#BBBBBB" stroke-width="1.66667" stroke-linecap="round" stroke-linejoin="round"/>
</svg>
