<svg width="20" height="20" viewBox="0 0 20 20" fill="none" xmlns="http://www.w3.org/2000/svg">
<g id="menu list icon">
<path id="Vector" d="M10 15.3333C10.3111 15.3333 10.5742 15.2258 10.7893 15.0107C11.0044 14.7956 11.1117 14.5327 11.1111 14.2222C11.1105 13.9117 11.003 13.6486 10.7884 13.4329C10.5739 13.2172 10.3111 13.1099 10 13.1111C9.68889 13.1123 9.42578 13.2199 9.21067 13.4338C8.99555 13.6477 8.8883 13.9105 8.88889 14.2222C8.88948 14.5339 8.99704 14.797 9.21155 15.0116C9.42607 15.2261 9.68889 15.3333 10 15.3333ZM9.2 11.9111H10.8444C10.8444 11.3778 10.9037 10.9852 11.0222 10.7333C11.1407 10.4815 11.3926 10.163 11.7778 9.77778C12.2963 9.25926 12.6628 8.82578 12.8773 8.47733C13.0919 8.12889 13.1994 7.73274 13.2 7.28889C13.2 6.5037 12.9333 5.87052 12.4 5.38933C11.8667 4.90815 11.1481 4.66726 10.2444 4.66667C9.42963 4.66667 8.73718 4.86667 8.16711 5.26667C7.59704 5.66667 7.20059 6.22222 6.97778 6.93333L8.44444 7.51111C8.54815 7.11111 8.75555 6.78904 9.06667 6.54489C9.37778 6.30074 9.74074 6.17837 10.1556 6.17778C10.5556 6.17778 10.8889 6.28533 11.1556 6.50044C11.4222 6.71555 11.5556 7.00059 11.5556 7.35555C11.5556 7.60741 11.4741 7.87407 11.3111 8.15555C11.1481 8.43704 10.8741 8.74815 10.4889 9.08889C10 9.51852 9.66281 9.92978 9.47733 10.3227C9.29185 10.7156 9.19941 11.245 9.2 11.9111ZM3.77778 18C3.28889 18 2.87052 17.8261 2.52267 17.4782C2.17481 17.1304 2.00059 16.7117 2 16.2222V3.77778C2 3.28889 2.17422 2.87052 2.52267 2.52267C2.87111 2.17481 3.28948 2.00059 3.77778 2H16.2222C16.7111 2 17.1298 2.17422 17.4782 2.52267C17.8267 2.87111 18.0006 3.28948 18 3.77778V16.2222C18 16.7111 17.8261 17.1298 17.4782 17.4782C17.1304 17.8267 16.7117 18.0006 16.2222 18H3.77778ZM3.77778 16.2222H16.2222V3.77778H3.77778V16.2222Z" fill="#26C48C"/>
</g>
</svg>
