<svg width="20" height="20" viewBox="0 0 20 20" fill="none" xmlns="http://www.w3.org/2000/svg">
<g clip-path="url(#clip0_1_18061)">
<path d="M18.05 11.0737C18.2806 11.2646 18.4635 11.5072 18.5837 11.7821C18.7139 12.0801 18.7661 12.4063 18.7354 12.7301C18.7047 13.0538 18.5921 13.3644 18.4082 13.6326C18.2243 13.9008 17.9751 14.1178 17.6842 14.2631L17.6793 14.2655L17.6793 14.2654L17.6535 14.2771L17.6502 14.2786L17.6501 14.2786L14.6173 15.5692L14.6159 15.5698L14.6159 15.5698C14.5871 15.5817 14.5575 15.5917 14.5273 15.5997L14.5254 15.6002L14.5254 15.6002L9.52553 16.8501C9.4763 16.8625 9.42575 16.8687 9.375 16.8687C9.37499 16.8687 9.37498 16.8687 9.37497 16.8687H1.25C0.920137 16.8687 0.603784 16.7377 0.370536 16.5044C0.137288 16.2712 0.00624999 15.9548 0.00624999 15.6249V12.4999C0.00624999 12.1701 0.137288 11.8537 0.370536 11.6205C0.603784 11.3872 0.920137 11.2562 1.25 11.2562H3.49412L5.26311 9.4872C5.26319 9.48713 5.26326 9.48705 5.26333 9.48698C5.58297 9.16531 5.98382 8.93877 6.42117 8.83012C5.88929 7.95205 5.63125 7.11329 5.63125 6.24995C5.63125 4.1877 7.28944 2.50646 9.33234 2.5062C9.3325 2.5062 9.33266 2.5062 9.33281 2.5062V2.6562C9.88518 2.65274 10.4308 2.77802 10.9263 3.02212C11.3755 3.24341 11.7724 3.55682 12.0914 3.94132L18.05 11.0737ZM18.05 11.0737V11.0707L17.9915 11.0256C17.7592 10.8467 17.4887 10.7239 17.201 10.6668C16.9775 10.6225 16.7483 10.6187 16.5244 10.6552C17.9853 9.18546 18.7437 7.70963 18.7437 6.24995C18.7437 4.18771 17.0856 2.50646 15.0427 2.5062M18.05 11.0737L12.1875 3.82246C12.5166 3.43227 12.9233 3.11374 13.3824 2.88756C13.8987 2.63323 14.4672 2.50266 15.0427 2.5062M15.0427 2.5062C15.0428 2.5062 15.043 2.5062 15.0431 2.5062L15.0422 2.6562V2.5062C15.0423 2.5062 15.0425 2.5062 15.0427 2.5062ZM12.6219 5.17807L12.7601 5.23632C12.9487 4.78873 13.2666 4.40759 13.6731 4.14169C14.0795 3.87578 14.5561 3.7372 15.0417 3.74368L15.0417 3.7437H15.0437C16.3742 3.7437 17.5063 4.89061 17.5063 6.24995C17.5063 7.7496 16.3046 9.4816 13.9357 11.2475L13.0579 11.4494C13.1192 11.1955 13.1346 10.9319 13.1025 10.6712C13.0594 10.3211 12.9321 9.98661 12.7314 9.6965C12.5307 9.40638 12.2627 9.16928 11.9502 9.00551C11.6378 8.84174 11.2903 8.75619 10.9375 8.7562H7.86181C7.17723 7.83345 6.86875 7.03372 6.86875 6.24995C6.86875 4.89067 8.00073 3.7437 9.33281 3.74371L9.33481 3.74368C9.82048 3.7372 10.297 3.87578 10.7035 4.14169C11.1098 4.40749 11.4276 4.78842 11.6162 5.23578C11.6629 5.34896 11.7421 5.44576 11.8438 5.51393C11.9457 5.58224 12.0656 5.61871 12.1883 5.61871C12.311 5.61871 12.4309 5.58224 12.5328 5.51393C12.6347 5.44562 12.714 5.34855 12.7606 5.23507L12.6219 5.17807ZM12.6219 5.17807C12.8221 4.70297 13.1595 4.29841 13.5909 4.01616C14.0224 3.73392 14.5282 3.58682 15.0437 3.5937L12.6219 5.17807ZM11.2498 13.1187C11.2963 13.1188 11.3427 13.1136 11.388 13.1032L11.3883 13.1032L16.6227 11.8993L16.6227 11.8993L16.6254 11.8986L16.6442 11.8939L16.6442 11.8939L16.6473 11.8931C16.8086 11.8491 16.9805 11.8663 17.1299 11.9413C17.2793 12.0164 17.3958 12.144 17.4569 12.2996C17.518 12.4553 17.5194 12.628 17.4609 12.7846C17.403 12.9395 17.2906 13.0679 17.1449 13.1456L14.1771 14.4097L9.2987 15.6312H4.36875V12.1316L6.13812 10.3615L6.13837 10.3612C6.25469 10.2443 6.39304 10.1516 6.54542 10.0885C6.6978 10.0254 6.86119 9.9932 7.02611 9.9937H7.02656H10.9375C11.1878 9.9937 11.4278 10.0931 11.6048 10.2701C11.7818 10.4471 11.8813 10.6872 11.8813 10.9374C11.8813 11.1877 11.7818 11.4278 11.6048 11.6048C11.4278 11.7818 11.1878 11.8812 10.9375 11.8812H8.75C8.5859 11.8812 8.42852 11.9464 8.31248 12.0624C8.19644 12.1785 8.13125 12.3358 8.13125 12.4999C8.13125 12.6641 8.19644 12.8214 8.31248 12.9375C8.42852 13.0535 8.5859 13.1187 8.75 13.1187H11.2498ZM11.2498 13.1187L11.25 12.9687V13.1187H11.2498ZM1.24375 15.6249V12.4999C1.24375 12.4983 1.24441 12.4967 1.24558 12.4955C1.24675 12.4944 1.24834 12.4937 1.25 12.4937H3.13125V15.6312H1.25C1.24834 15.6312 1.24675 15.6305 1.24558 15.6294C1.24441 15.6282 1.24375 15.6266 1.24375 15.6249Z" fill="#BBBBBB" stroke="#BBBBBB" stroke-width="0.3"/>
</g>
<defs>
<clipPath id="clip0_1_18061">
<rect width="20" height="20" fill="white"/>
</clipPath>
</defs>
</svg>
