<svg width="20" height="20" viewBox="0 0 20 20" fill="none" xmlns="http://www.w3.org/2000/svg">
<path d="M15.8333 3.33334C16.2754 3.33334 16.6993 3.50894 17.0118 3.8215C17.3244 4.13406 17.5 4.55798 17.5 5.00001V6.89001C17.7534 7.03629 17.9638 7.24668 18.11 7.50003C18.2563 7.75339 18.3333 8.04079 18.3333 8.33334V11.6667C18.3333 11.9592 18.2563 12.2466 18.11 12.5C17.9638 12.7533 17.7534 12.9637 17.5 13.11V15C17.5 15.442 17.3244 15.866 17.0118 16.1785C16.6993 16.4911 16.2754 16.6667 15.8333 16.6667H4.16667C3.72464 16.6667 3.30072 16.4911 2.98816 16.1785C2.67559 15.866 2.5 15.442 2.5 15V5.00001C2.5 4.55798 2.67559 4.13406 2.98816 3.8215C3.30072 3.50894 3.72464 3.33334 4.16667 3.33334H15.8333ZM15.8333 5.00001H4.16667V15H15.8333V13.3333H12.5C11.6304 13.3334 10.7952 12.9935 10.1726 12.3863C9.55004 11.7792 9.1894 10.9527 9.16766 10.0834C9.14591 9.21401 9.46477 8.37058 10.0562 7.73303C10.6476 7.09548 11.4648 6.71431 12.3333 6.67084L12.5 6.66668H15.8333V5.00001ZM16.6667 8.33334H12.5C12.058 8.33334 11.634 8.50894 11.3215 8.8215C11.0089 9.13406 10.8333 9.55798 10.8333 10C10.8333 10.442 11.0089 10.866 11.3215 11.1785C11.634 11.4911 12.058 11.6667 12.5 11.6667H16.6667V8.33334ZM13.3333 9.16668C13.5543 9.16668 13.7663 9.25447 13.9226 9.41075C14.0789 9.56703 14.1667 9.779 14.1667 10C14.1667 10.221 14.0789 10.433 13.9226 10.5893C13.7663 10.7455 13.5543 10.8333 13.3333 10.8333C13.1123 10.8333 12.9004 10.7455 12.7441 10.5893C12.5878 10.433 12.5 10.221 12.5 10C12.5 9.779 12.5878 9.56703 12.7441 9.41075C12.9004 9.25447 13.1123 9.16668 13.3333 9.16668Z" fill="#BBBBBB"/>
</svg>
