<svg width="20" height="20" viewBox="0 0 20 20" fill="none" xmlns="http://www.w3.org/2000/svg">
<g id="solar:cart-check-outline">
<path id="Vector" d="M12.9525 7.9306C13.0116 7.87167 13.0582 7.80152 13.0897 7.72428C13.1212 7.64705 13.1369 7.56429 13.1359 7.48088C13.1349 7.39748 13.1173 7.31511 13.0839 7.23865C13.0506 7.16218 13.0023 7.09315 12.9419 7.03564C12.8815 6.97812 12.8102 6.93328 12.7322 6.90375C12.6542 6.87422 12.5711 6.86061 12.4877 6.86371C12.4044 6.86682 12.3225 6.88657 12.2469 6.92182C12.1713 6.95706 12.1035 7.00708 12.0475 7.06893L10.1192 9.09393L9.6192 8.56893C9.56323 8.50708 9.49545 8.45706 9.41985 8.42182C9.34425 8.38657 9.26237 8.36682 9.17901 8.36371C9.09566 8.36061 9.01253 8.37422 8.93452 8.40375C8.85651 8.43328 8.7852 8.47812 8.72479 8.53564C8.66438 8.59315 8.6161 8.66218 8.58278 8.73865C8.54947 8.81511 8.53179 8.89748 8.53081 8.98088C8.52982 9.06429 8.54554 9.14705 8.57703 9.22428C8.60853 9.30152 8.65516 9.37167 8.71419 9.4306L9.6667 10.4306C9.72507 10.4919 9.79527 10.5406 9.87305 10.574C9.95083 10.6073 10.0346 10.6245 10.1192 10.6245C10.2038 10.6245 10.2876 10.6073 10.3653 10.574C10.4431 10.5406 10.5133 10.4919 10.5717 10.4306L12.9525 7.9306Z" fill="#4289F0"/>
<path id="Vector_2" d="M1.90709 1.81593L1.90718 1.81596L2.15798 1.90428L2.15802 1.90429L2.16141 1.90548C2.67222 2.08514 3.11312 2.2402 3.4629 2.41128L3.4632 2.41143C3.83881 2.59667 4.17012 2.82804 4.41989 3.1939L4.3373 3.25028M1.90709 1.81593L17.774 5.20028C17.5781 4.94528 17.3023 4.80111 17.0523 4.71361C16.7973 4.62361 16.5081 4.57195 16.2165 4.53945L16.2276 4.44007C16.2276 4.44007 16.2276 4.44007 16.2275 4.44006C15.6495 4.37528 14.95 4.37528 14.2705 4.37528H14.2665H4.81347L4.81345 4.37515L4.8134 4.37468C4.76827 3.95147 4.66763 3.55585 4.41982 3.1938L4.3373 3.25028M1.90709 1.81593C1.7257 1.75225 1.52645 1.76322 1.35315 1.84643C1.17987 1.92963 1.04671 2.07824 0.982971 2.25958L1.90709 1.81593ZM4.3373 3.25028C4.5723 3.59361 4.6698 3.97111 4.71397 4.38528L2.1248 1.99861C2.63897 2.17945 3.0748 2.33278 3.41897 2.50111C3.78563 2.68195 4.10063 2.90361 4.3373 3.25028ZM3.22189 4.0112L3.22189 4.0112C3.16251 3.92315 3.06818 3.83223 2.82436 3.71353L2.82419 3.71344C2.56151 3.58495 2.20222 3.45708 1.64335 3.26047C1.64333 3.26046 1.6433 3.26046 1.64328 3.26045L1.4268 3.18468L1.42676 3.18467L1.4598 3.09028L3.22189 4.0112ZM3.22189 4.0112L3.22247 4.01204M3.22189 4.0112L3.22247 4.01204M3.22247 4.01204C3.28519 4.10303 3.33965 4.23629 3.37206 4.53031C3.4055 4.84039 3.4073 5.24666 3.4073 5.86528V8.13361C3.4073 9.34116 3.41784 10.2237 3.53373 10.9005L3.22247 4.01204ZM16.7856 5.96528C16.7408 5.93314 16.691 5.90865 16.6381 5.89278C16.456 5.83562 16.2683 5.79819 16.0781 5.78111C15.5823 5.72611 14.954 5.72528 14.2406 5.72528H4.85647V5.82528M16.7856 5.96528L16.7058 6.02544C16.7084 6.02902 16.7113 6.03303 16.7144 6.03762M16.7856 5.96528L16.7274 6.04656C16.7231 6.04349 16.7188 6.04051 16.7144 6.03762M16.7856 5.96528C16.8365 6.03278 16.8915 6.15528 16.8698 6.50695L15.7584 11.5048M16.7144 6.03762C16.682 6.01627 16.6466 5.99973 16.6094 5.98856L16.6082 5.9882C16.4329 5.93318 16.2522 5.89714 16.0692 5.88071L16.0671 5.88053L16.0671 5.8805C15.578 5.82625 14.9558 5.82528 14.2406 5.82528H4.85647M16.7144 6.03762C16.7451 6.0842 16.7891 6.19 16.77 6.5008L16.77 6.50088C16.748 6.86237 16.6524 7.34762 16.5034 8.09234L16.5015 8.10205V8.10344L16.0885 10.11C15.953 10.7651 15.8643 11.1911 15.7584 11.5048M4.85647 5.82528V8.13361C4.85647 9.37698 4.87177 10.1251 4.96334 10.6558L4.96339 10.656C5.04458 11.1343 5.1807 11.3906 5.43238 11.6565M4.85647 5.82528H4.75647M4.75647 5.82528V8.13361C4.75647 9.37445 4.77147 10.1319 4.8648 10.6728C4.94897 11.1686 5.09313 11.4436 5.3598 11.7253L4.75647 5.82528ZM4.75647 5.82528L5.43238 11.6565M5.43238 11.6565C5.6385 11.8739 5.92769 12.0213 6.51129 12.1038L6.51135 12.1038C7.11935 12.19 7.93094 12.1919 9.11397 12.1919H13.534C14.2024 12.1919 14.6376 12.1909 14.9668 12.151M5.43238 11.6565L14.9668 12.151C14.9668 12.151 14.9668 12.151 14.9668 12.151M14.9668 12.151C15.2748 12.1131 15.4024 12.049 15.4866 11.9803C15.5706 11.9117 15.6583 11.7996 15.7584 11.5048M14.9668 12.151L15.7584 11.5048M4.2748 16.2503C4.2748 16.7741 4.48288 17.2764 4.85326 17.6468C5.22365 18.0172 5.726 18.2253 6.2498 18.2253C6.7736 18.2253 7.27595 18.0172 7.64634 17.6468C8.01672 17.2764 8.2248 16.7741 8.2248 16.2503C8.2248 15.7265 8.01672 15.2241 7.64634 14.8537C7.27595 14.4834 6.7736 14.2753 6.2498 14.2753C5.726 14.2753 5.22365 14.4834 4.85326 14.8537C4.48288 15.2241 4.2748 15.7265 4.2748 16.2503ZM6.2498 16.7753C6.11056 16.7753 5.97703 16.72 5.87857 16.6215C5.78011 16.5231 5.7248 16.3895 5.7248 16.2503C5.7248 16.111 5.78011 15.9775 5.87857 15.8791C5.97703 15.7806 6.11056 15.7253 6.2498 15.7253C6.38904 15.7253 6.52257 15.7806 6.62103 15.8791C6.71949 15.9775 6.7748 16.111 6.7748 16.2503C6.7748 16.3895 6.71949 16.5231 6.62103 16.6215C6.52257 16.72 6.38904 16.7753 6.2498 16.7753ZM11.7748 16.2503C11.7748 16.5096 11.8259 16.7665 11.9251 17.0061C12.0244 17.2457 12.1699 17.4634 12.3533 17.6468C12.5367 17.8302 12.7544 17.9757 12.994 18.0749C13.2336 18.1742 13.4904 18.2253 13.7498 18.2253C14.0092 18.2253 14.266 18.1742 14.5056 18.0749C14.7452 17.9757 14.9629 17.8302 15.1463 17.6468C15.3297 17.4634 15.4752 17.2457 15.5745 17.0061C15.6737 16.7665 15.7248 16.5096 15.7248 16.2503C15.7248 15.7265 15.5167 15.2241 15.1463 14.8537C14.776 14.4834 14.2736 14.2753 13.7498 14.2753C13.226 14.2753 12.7236 14.4834 12.3533 14.8537C11.9829 15.2241 11.7748 15.7265 11.7748 16.2503ZM13.7498 16.7753C13.6106 16.7753 13.477 16.72 13.3786 16.6215C13.2801 16.5231 13.2248 16.3895 13.2248 16.2503C13.2248 16.111 13.2801 15.9775 13.3786 15.8791C13.477 15.7806 13.6106 15.7253 13.7498 15.7253C13.889 15.7253 14.0226 15.7806 14.121 15.879C14.2195 15.9775 14.2748 16.111 14.2748 16.2503C14.2748 16.3895 14.2195 16.5231 14.121 16.6215C14.0226 16.72 13.889 16.7753 13.7498 16.7753Z" fill="#4289F0" stroke="#4289F0" stroke-width="0.2"/>
</g>
</svg>
