<svg width="20" height="20" viewBox="0 0 20 20" fill="none" xmlns="http://www.w3.org/2000/svg">
<path d="M15.8333 3.33331C16.2754 3.33331 16.6993 3.50891 17.0118 3.82147C17.3244 4.13403 17.5 4.55795 17.5 4.99998V6.88998C17.7534 7.03626 17.9638 7.24665 18.11 7.5C18.2563 7.75336 18.3333 8.04076 18.3333 8.33331V11.6666C18.3333 11.9592 18.2563 12.2466 18.11 12.5C17.9638 12.7533 17.7534 12.9637 17.5 13.11V15C17.5 15.442 17.3244 15.8659 17.0118 16.1785C16.6993 16.4911 16.2754 16.6666 15.8333 16.6666H4.16667C3.72464 16.6666 3.30072 16.4911 2.98816 16.1785C2.67559 15.8659 2.5 15.442 2.5 15V4.99998C2.5 4.55795 2.67559 4.13403 2.98816 3.82147C3.30072 3.50891 3.72464 3.33331 4.16667 3.33331H15.8333ZM15.8333 4.99998H4.16667V15H15.8333V13.3333H12.5C11.6304 13.3333 10.7952 12.9935 10.1726 12.3863C9.55004 11.7791 9.1894 10.9527 9.16766 10.0833C9.14591 9.21398 9.46477 8.37055 10.0562 7.733C10.6476 7.09545 11.4648 6.71428 12.3333 6.67081L12.5 6.66665H15.8333V4.99998ZM16.6667 8.33331H12.5C12.058 8.33331 11.634 8.50891 11.3215 8.82147C11.0089 9.13403 10.8333 9.55795 10.8333 9.99998C10.8333 10.442 11.0089 10.8659 11.3215 11.1785C11.634 11.4911 12.058 11.6666 12.5 11.6666H16.6667V8.33331ZM13.3333 9.16665C13.5543 9.16665 13.7663 9.25444 13.9226 9.41072C14.0789 9.567 14.1667 9.77897 14.1667 9.99998C14.1667 10.221 14.0789 10.433 13.9226 10.5892C13.7663 10.7455 13.5543 10.8333 13.3333 10.8333C13.1123 10.8333 12.9004 10.7455 12.7441 10.5892C12.5878 10.433 12.5 10.221 12.5 9.99998C12.5 9.77897 12.5878 9.567 12.7441 9.41072C12.9004 9.25444 13.1123 9.16665 13.3333 9.16665Z" fill="#4289F0"/>
</svg>
