<svg width="20" height="20" viewBox="0 0 20 20" fill="none" xmlns="http://www.w3.org/2000/svg">
<path d="M15.8327 3.33301C16.4704 3.33297 17.0839 3.57661 17.5479 4.01408C18.0119 4.45154 18.2911 5.04976 18.3285 5.68634L18.3327 5.83301V7.34717C18.3308 7.57224 18.2701 7.79292 18.1567 7.98732C18.0433 8.18173 17.881 8.34312 17.686 8.45551L17.5968 8.50384C17.3272 8.63618 17.0984 8.8389 16.9345 9.09059C16.7706 9.34228 16.6778 9.63357 16.6659 9.93367C16.6539 10.2338 16.7233 10.5315 16.8666 10.7954C17.01 11.0594 17.222 11.2797 17.4802 11.433L17.5968 11.4955C17.9577 11.6738 18.2802 12.0422 18.3268 12.5288L18.3327 12.6522V14.1663C18.3327 14.804 18.0891 15.4176 17.6516 15.8816C17.2141 16.3455 16.6159 16.6248 15.9793 16.6622L15.8327 16.6663H4.16602C3.52834 16.6664 2.91475 16.4227 2.4508 15.9853C1.98684 15.5478 1.70759 14.9496 1.67018 14.313L1.66602 14.1663V12.6522C1.66602 12.1472 1.95935 11.7538 2.31268 11.5438L2.40185 11.4955C2.67146 11.3632 2.9003 11.1604 3.06418 10.9088C3.22805 10.6571 3.32088 10.3658 3.33283 10.0657C3.34478 9.76558 3.27542 9.46783 3.13208 9.20391C2.98874 8.93998 2.77675 8.7197 2.51852 8.56634L2.40185 8.50384C2.04102 8.32551 1.71852 7.95717 1.67185 7.47051L1.66602 7.34801V5.83301C1.66598 5.19533 1.90962 4.58175 2.34709 4.11779C2.78455 3.65384 3.38277 3.37458 4.01935 3.33717L4.16602 3.33301H15.8327ZM15.8327 4.99967H4.16602C3.9619 4.9997 3.7649 5.07464 3.61237 5.21027C3.45984 5.3459 3.3624 5.5328 3.33852 5.73551L3.33268 5.83301V7.11217C3.82639 7.397 4.23882 7.80367 4.53056 8.29332C4.8223 8.78298 4.98361 9.33927 4.99908 9.90904C5.01454 10.4788 4.88365 11.043 4.6189 11.5478C4.35414 12.0525 3.96438 12.481 3.48685 12.7922L3.33268 12.8872V14.1663C3.33271 14.3705 3.40765 14.5675 3.54328 14.72C3.67891 14.8725 3.86581 14.97 4.06852 14.9938L4.16602 14.9997H15.8327C16.0368 14.9996 16.2338 14.9247 16.3863 14.7891C16.5389 14.6534 16.6363 14.4666 16.6602 14.2638L16.666 14.1663V12.8872C16.1723 12.6023 15.7599 12.1957 15.4681 11.706C15.1764 11.2164 15.0151 10.6601 14.9996 10.0903C14.9842 9.52054 15.1151 8.95632 15.3798 8.45156C15.6446 7.9468 16.0343 7.51836 16.5118 7.20717L16.666 7.11217V5.83301C16.666 5.6289 16.5911 5.43189 16.4554 5.27936C16.3198 5.12684 16.1329 5.02939 15.9302 5.00551L15.8327 4.99967ZM8.33268 7.49967C8.53679 7.4997 8.7338 7.57464 8.88633 7.71027C9.03886 7.8459 9.1363 8.0328 9.16018 8.23551L9.16602 8.33301V11.6663C9.16578 11.8787 9.08445 12.083 8.93864 12.2375C8.79283 12.3919 8.59355 12.4849 8.38152 12.4973C8.16949 12.5098 7.9607 12.4408 7.79782 12.3045C7.63494 12.1681 7.53027 11.9748 7.50518 11.7638L7.49935 11.6663V8.33301C7.49935 8.11199 7.58715 7.90003 7.74343 7.74375C7.89971 7.58747 8.11167 7.49967 8.33268 7.49967Z" fill="#4289F0"/>
</svg>
