<svg width="20" height="21" viewBox="0 0 20 21" fill="none" xmlns="http://www.w3.org/2000/svg">
<path d="M15.8327 3.83301C16.4704 3.83297 17.0839 4.07661 17.5479 4.51408C18.0119 4.95154 18.2911 5.54976 18.3285 6.18634L18.3327 6.33301V7.84717C18.3308 8.07224 18.2701 8.29292 18.1567 8.48732C18.0433 8.68173 17.881 8.84312 17.686 8.95551L17.5968 9.00384C17.3272 9.13618 17.0984 9.3389 16.9345 9.59059C16.7706 9.84228 16.6778 10.1336 16.6659 10.4337C16.6539 10.7338 16.7233 11.0315 16.8666 11.2954C17.01 11.5594 17.222 11.7797 17.4802 11.933L17.5968 11.9955C17.9577 12.1738 18.2802 12.5422 18.3268 13.0288L18.3327 13.1522V14.6663C18.3327 15.304 18.0891 15.9176 17.6516 16.3816C17.2141 16.8455 16.6159 17.1248 15.9793 17.1622L15.8327 17.1663H4.16602C3.52834 17.1664 2.91475 16.9227 2.4508 16.4853C1.98684 16.0478 1.70759 15.4496 1.67018 14.813L1.66602 14.6663V13.1522C1.66602 12.6472 1.95935 12.2538 2.31268 12.0438L2.40185 11.9955C2.67146 11.8632 2.9003 11.6604 3.06418 11.4088C3.22805 11.1571 3.32088 10.8658 3.33283 10.5657C3.34478 10.2656 3.27542 9.96783 3.13208 9.70391C2.98874 9.43998 2.77675 9.2197 2.51852 9.06634L2.40185 9.00384C2.04102 8.82551 1.71852 8.45717 1.67185 7.97051L1.66602 7.84801V6.33301C1.66598 5.69533 1.90962 5.08175 2.34709 4.61779C2.78455 4.15384 3.38277 3.87458 4.01935 3.83717L4.16602 3.83301H15.8327ZM15.8327 5.49967H4.16602C3.9619 5.4997 3.7649 5.57464 3.61237 5.71027C3.45984 5.8459 3.3624 6.0328 3.33852 6.23551L3.33268 6.33301V7.61217C3.82639 7.897 4.23882 8.30367 4.53056 8.79332C4.8223 9.28298 4.98361 9.83927 4.99908 10.409C5.01454 10.9788 4.88365 11.543 4.6189 12.0478C4.35414 12.5525 3.96438 12.981 3.48685 13.2922L3.33268 13.3872V14.6663C3.33271 14.8705 3.40765 15.0675 3.54328 15.22C3.67891 15.3725 3.86581 15.47 4.06852 15.4938L4.16602 15.4997H15.8327C16.0368 15.4996 16.2338 15.4247 16.3863 15.2891C16.5389 15.1534 16.6363 14.9666 16.6602 14.7638L16.666 14.6663V13.3872C16.1723 13.1023 15.7599 12.6957 15.4681 12.206C15.1764 11.7164 15.0151 11.1601 14.9996 10.5903C14.9842 10.0205 15.1151 9.45632 15.3798 8.95156C15.6446 8.4468 16.0343 8.01836 16.5118 7.70717L16.666 7.61217V6.33301C16.666 6.1289 16.5911 5.93189 16.4554 5.77936C16.3198 5.62684 16.1329 5.52939 15.9302 5.50551L15.8327 5.49967ZM8.33268 7.99967C8.53679 7.9997 8.7338 8.07464 8.88633 8.21027C9.03886 8.3459 9.1363 8.5328 9.16018 8.73551L9.16602 8.83301V12.1663C9.16578 12.3787 9.08445 12.583 8.93864 12.7375C8.79283 12.8919 8.59355 12.9849 8.38152 12.9973C8.16949 13.0098 7.9607 12.9408 7.79782 12.8045C7.63494 12.6681 7.53027 12.4748 7.50518 12.2638L7.49935 12.1663V8.83301C7.49935 8.61199 7.58715 8.40003 7.74343 8.24375C7.89971 8.08747 8.11167 7.99967 8.33268 7.99967Z" fill="#BBBBBB"/>
</svg>
