<svg width="20" height="20" viewBox="0 0 20 20" fill="none" xmlns="http://www.w3.org/2000/svg">
<g id="menu list icon">
<path id="Vector" d="M4.99984 10.833H12.4998V9.16634H4.99984V10.833ZM4.99984 8.33301H12.4998V6.66634H4.99984V8.33301ZM3.33317 16.6663C2.87484 16.6663 2.48262 16.5033 2.1565 16.1772C1.83039 15.8511 1.66706 15.4586 1.6665 14.9997V4.99967C1.6665 4.54134 1.82984 4.14912 2.1565 3.82301C2.48317 3.4969 2.87539 3.33356 3.33317 3.33301H16.6665C17.1248 3.33301 17.5173 3.49634 17.844 3.82301C18.1707 4.14967 18.3337 4.5419 18.3332 4.99967V14.9997C18.3332 15.458 18.1701 15.8505 17.844 16.1772C17.5179 16.5038 17.1254 16.6669 16.6665 16.6663H3.33317ZM3.33317 14.9997H16.6665V4.99967H3.33317V14.9997Z" fill="#26C48C"/>
</g>
</svg>
