<svg width="20" height="20" viewBox="0 0 20 20" fill="none" xmlns="http://www.w3.org/2000/svg">
<g id="bitcoin-icons:lightning-circle-outline">
<g id="Group">
<path id="Vector" d="M10 18C14.4183 18 18 14.4183 18 10C18 5.58172 14.4183 2 10 2C5.58172 2 2 5.58172 2 10C2 14.4183 5.58172 18 10 18Z" stroke="#4289F0" stroke-width="1.4"/>
<path id="Vector_2" d="M14.4967 9.02657L8.58048 14.7517C8.38472 14.94 8.07789 14.7037 8.21154 14.4675L10.3715 10.6463C10.3816 10.6284 10.3867 10.6081 10.3865 10.5875C10.3862 10.5669 10.3806 10.5468 10.3701 10.529C10.3596 10.5113 10.3447 10.4967 10.3268 10.4865C10.3089 10.4764 10.2886 10.4711 10.268 10.4713H5.58566C5.56219 10.4713 5.53924 10.4643 5.51976 10.4512C5.50028 10.4381 5.48517 10.4195 5.47636 10.3978C5.46756 10.376 5.46546 10.3521 5.47035 10.3291C5.47523 10.3062 5.48688 10.2852 5.50378 10.2689L10.8948 5.06986C11.0859 4.88634 11.3871 5.10751 11.2685 5.34469L9.61389 8.65386C9.6049 8.67182 9.60065 8.69178 9.60155 8.71184C9.60245 8.7319 9.60846 8.7514 9.61903 8.76848C9.6296 8.78555 9.64436 8.79964 9.66191 8.8094C9.67947 8.81916 9.69922 8.82426 9.71931 8.82422H14.4158C14.5202 8.82422 14.573 8.95316 14.4967 9.02657Z" stroke="#4289F0" stroke-width="1.4"/>
</g>
</g>
</svg>
