<svg width="20" height="20" viewBox="0 0 20 20" fill="none" xmlns="http://www.w3.org/2000/svg">
<path fill-rule="evenodd" clip-rule="evenodd" d="M1.66675 9.58333C1.66675 5.53583 5.54675 2.5 10.0001 2.5C14.4534 2.5 18.3334 5.53583 18.3334 9.58333C18.3334 13.6308 14.4534 16.6667 10.0001 16.6667C9.56175 16.6667 9.1323 16.6389 8.71175 16.5833L6.29508 18.1933C6.15795 18.2847 5.99683 18.3333 5.83208 18.3331C5.66732 18.3329 5.50632 18.2838 5.36943 18.1922C5.23253 18.1005 5.12589 17.9703 5.06296 17.818C5.00004 17.6657 4.98367 17.4982 5.01591 17.3367L5.38675 15.4858C3.19008 14.2417 1.66675 12.0975 1.66675 9.58333Z" fill="#010003"/>
</svg>
