<svg width="44" height="44" viewBox="0 0 44 44" fill="none" xmlns="http://www.w3.org/2000/svg">
<g clip-path="url(#clip0_2_296)">
<mask id="mask0_2_296" style="mask-type:luminance" maskUnits="userSpaceOnUse" x="0" y="0" width="44" height="44">
<path d="M44 0H0V44H44V0Z" fill="white"/>
</mask>
<g mask="url(#mask0_2_296)">
<path d="M29.9969 28.9065C29.9969 27.3005 30.6479 25.9986 31.4509 25.9986C32.2539 25.9986 32.9049 27.3005 32.9049 28.9065H29.9969Z" fill="#00D27E"/>
<path d="M32.9192 29.4517C32.9192 29.4517 32.91 29.4517 32.9051 29.4517H29.9971C29.696 29.4517 29.4519 29.2076 29.4519 28.9065C29.4519 26.9377 30.3117 25.4533 31.4511 25.4533C32.5906 25.4533 33.4121 26.8724 33.4489 28.7759C33.4596 28.8178 33.4645 28.8617 33.4645 28.9067C33.4645 29.2079 33.2211 29.452 32.9192 29.452V29.4517ZM30.5699 28.3613H32.3321C32.2164 27.2501 31.7642 26.5438 31.4511 26.5438C31.1381 26.5438 30.6859 27.2501 30.5702 28.3613H30.5699Z" fill="#1C1C1C"/>
<path d="M31.5347 38.904C31.419 38.904 31.3025 38.8672 31.2031 38.7912C30.9646 38.6078 30.9198 38.2655 31.103 38.0265C31.4545 37.5692 31.6326 37.0454 31.6326 36.4695C31.6326 35.5003 31.1308 34.6547 31.0284 34.4927C30.2405 33.6249 30.1786 31.9253 30.1786 31.4186C30.1786 30.8061 30.2581 29.2983 30.9958 28.5301C31.2038 28.3123 31.5488 28.3052 31.7669 28.5143C31.9842 28.7228 31.9913 29.068 31.7825 29.2851C31.4757 29.605 31.2691 30.4623 31.2691 31.4186C31.2691 32.4515 31.5084 33.4209 31.8519 33.7761C31.8726 33.7976 31.8909 33.8207 31.9079 33.8451C31.9413 33.8933 32.7229 35.0418 32.7229 36.4692C32.7229 37.291 32.4688 38.0382 31.9674 38.6906C31.8602 38.8302 31.6984 38.9035 31.5342 38.9035L31.5347 38.904Z" fill="#1C1C1C"/>
<path d="M38.721 12.9125C38.721 7.69306 35.4659 4.9157 31.4511 4.9157C27.4363 4.9157 24.1812 7.69306 24.1812 12.9125C24.1812 18.132 27.4363 25.9986 31.4511 25.9986C35.4659 25.9986 38.721 18.1323 38.721 12.9125Z" fill="#00D27E"/>
<path d="M31.4511 26.5438C26.992 26.5438 23.636 18.2746 23.636 12.9125C23.636 7.55053 26.7768 4.37045 31.4511 4.37045C36.1254 4.37045 39.2663 7.80318 39.2663 12.9125C39.2663 18.2746 35.9103 26.5438 31.4511 26.5438ZM31.4511 5.46069C27.3659 5.46069 24.7265 8.38569 24.7265 12.9123C24.7265 18.2721 28.051 25.4531 31.4511 25.4531C34.8512 25.4531 38.1758 18.2724 38.1758 12.9123C38.1758 8.38569 35.5361 5.46069 31.4511 5.46069Z" fill="#1C1C1C"/>
<path d="M28.4805 18.0085C28.3029 18.0085 28.129 17.922 28.024 17.7629C27.3723 16.7714 26.8938 15.5311 26.6757 14.2705C26.6246 13.9738 26.8234 13.6917 27.1201 13.6405C27.4254 13.5881 27.6995 13.7886 27.7506 14.0849C27.9431 15.2014 28.3641 16.2948 28.9354 17.1639C29.1008 17.4155 29.0307 17.7537 28.7792 17.9191C28.6869 17.9798 28.5826 18.0088 28.4803 18.0088L28.4805 18.0085ZM27.1308 12.5508C27.1109 12.5508 27.0904 12.5498 27.0697 12.5473C26.7708 12.5142 26.5549 12.2448 26.5883 11.9453C26.618 11.6766 26.6628 11.4137 26.7225 11.1643C26.7919 10.8705 27.0904 10.6892 27.3786 10.7594C27.6717 10.829 27.853 11.1229 27.7833 11.4157C27.7343 11.6223 27.6973 11.8389 27.6717 12.0657C27.6412 12.3446 27.4049 12.5508 27.1306 12.5508H27.1308ZM28.215 9.90325C28.0878 9.90325 27.9602 9.85891 27.8564 9.76901C27.6298 9.57143 27.6057 9.22694 27.804 8.99987C28.6893 7.98346 29.985 7.42409 31.4511 7.42409C31.7522 7.42409 31.9964 7.6682 31.9964 7.96933C31.9964 8.27045 31.7522 8.51457 31.4511 8.51457C30.3046 8.51457 29.3013 8.9414 28.6262 9.71639C28.5183 9.84015 28.367 9.90349 28.2152 9.90349L28.215 9.90325Z" fill="#1C1C1C"/>
<path d="M38.721 34.5406H37.994C37.6929 34.5406 37.4488 34.2965 37.4488 33.9954C37.4488 33.6943 37.6929 33.4502 37.994 33.4502H38.721C39.0222 33.4502 39.2663 33.6943 39.2663 33.9954C39.2663 34.2965 39.0222 34.5406 38.721 34.5406Z" fill="#1C1C1C"/>
<path d="M36.5401 33.0867C36.2389 33.0867 35.9948 32.8426 35.9948 32.5414V31.8145C35.9948 31.5133 36.2389 31.2692 36.5401 31.2692C36.8412 31.2692 37.0853 31.5133 37.0853 31.8145V32.5414C37.0853 32.8426 36.8412 33.0867 36.5401 33.0867Z" fill="#1C1C1C"/>
<path d="M35.0861 34.5406H34.3591C34.058 34.5406 33.8138 34.2965 33.8138 33.9954C33.8138 33.6943 34.058 33.4502 34.3591 33.4502H35.0861C35.3872 33.4502 35.6313 33.6943 35.6313 33.9954C35.6313 34.2965 35.3872 34.5406 35.0861 34.5406Z" fill="#1C1C1C"/>
<path d="M36.5401 36.7216C36.2389 36.7216 35.9948 36.4775 35.9948 36.1764V35.4494C35.9948 35.1483 36.2389 34.9041 36.5401 34.9041C36.8412 34.9041 37.0853 35.1483 37.0853 35.4494V36.1764C37.0853 36.4775 36.8412 36.7216 36.5401 36.7216Z" fill="#1C1C1C"/>
<path d="M9.64092 36.7216H8.91393C8.6128 36.7216 8.36868 36.4775 8.36868 36.1764C8.36868 35.8752 8.6128 35.6311 8.91393 35.6311H9.64092C9.94204 35.6311 10.1862 35.8752 10.1862 36.1764C10.1862 36.4775 9.94204 36.7216 9.64092 36.7216Z" fill="#1C1C1C"/>
<path d="M7.45994 35.2676C7.15881 35.2676 6.9147 35.0235 6.9147 34.7224V33.9954C6.9147 33.6943 7.15881 33.4502 7.45994 33.4502C7.76107 33.4502 8.00518 33.6943 8.00518 33.9954V34.7224C8.00518 35.0235 7.76107 35.2676 7.45994 35.2676Z" fill="#1C1C1C"/>
<path d="M6.00596 36.7216H5.27897C4.97784 36.7216 4.73373 36.4775 4.73373 36.1764C4.73373 35.8752 4.97784 35.6311 5.27897 35.6311H6.00596C6.30709 35.6311 6.5512 35.8752 6.5512 36.1764C6.5512 36.4775 6.30709 36.7216 6.00596 36.7216Z" fill="#1C1C1C"/>
<path d="M7.45994 38.9026C7.15881 38.9026 6.9147 38.6585 6.9147 38.3573V37.6303C6.9147 37.3292 7.15881 37.0851 7.45994 37.0851C7.76107 37.0851 8.00518 37.3292 8.00518 37.6303V38.3573C8.00518 38.6585 7.76107 38.9026 7.45994 38.9026Z" fill="#1C1C1C"/>
<path d="M22 7.64189H21.273C20.9719 7.64189 20.7278 7.39777 20.7278 7.09665C20.7278 6.79552 20.9719 6.55141 21.273 6.55141H22C22.3011 6.55141 22.5452 6.79552 22.5452 7.09665C22.5452 7.39777 22.3011 7.64189 22 7.64189Z" fill="#1C1C1C"/>
<path d="M19.819 6.18768C19.5179 6.18768 19.2738 5.94356 19.2738 5.64244V4.91545C19.2738 4.61432 19.5179 4.37021 19.819 4.37021C20.1202 4.37021 20.3643 4.61432 20.3643 4.91545V5.64244C20.3643 5.94356 20.1202 6.18768 19.819 6.18768Z" fill="#1C1C1C"/>
<path d="M18.3651 7.64189H17.6381C17.3369 7.64189 17.0928 7.39777 17.0928 7.09665C17.0928 6.79552 17.3369 6.55141 17.6381 6.55141H18.3651C18.6662 6.55141 18.9103 6.79552 18.9103 7.09665C18.9103 7.39777 18.6662 7.64189 18.3651 7.64189Z" fill="#1C1C1C"/>
<path d="M19.819 9.82285C19.5179 9.82285 19.2738 9.57874 19.2738 9.27761V8.55063C19.2738 8.2495 19.5179 8.00539 19.819 8.00539C20.1202 8.00539 20.3643 8.2495 20.3643 8.55063V9.27761C20.3643 9.57874 20.1202 9.82285 19.819 9.82285Z" fill="#1C1C1C"/>
<path d="M27.4205 39.0843L23.8545 31.0612L19.3973 35.5183L27.4205 39.0843Z" fill="#6996FC"/>
<path d="M27.4205 39.6296C27.3452 39.6296 27.27 39.6145 27.1991 39.5825L19.1758 36.0163C19.0119 35.9435 18.894 35.7944 18.8613 35.6177C18.8287 35.4411 18.8847 35.2596 19.0119 35.1327L23.4691 30.6755C23.5963 30.5486 23.7807 30.4925 23.9542 30.5249C24.131 30.5576 24.2799 30.6752 24.3532 30.8395L27.9195 38.8626C28.0111 39.069 27.9665 39.3102 27.8067 39.4697C27.7024 39.5743 27.5626 39.6293 27.4213 39.6293L27.4205 39.6296ZM20.3443 35.3424L26.3464 38.0102L23.6784 32.0081L20.3443 35.3424Z" fill="#1C1C1C"/>
<path d="M19.1956 20.5781L8.91393 30.8597L11.5678 32.0388L20.3743 23.2317L19.1956 20.5781Z" fill="#FF5A6B"/>
<path d="M11.5678 32.5841C11.4932 32.5841 11.4172 32.569 11.3463 32.537L8.69246 31.3576C8.5285 31.2848 8.41059 31.1357 8.37794 30.9591C8.34529 30.7824 8.40133 30.6009 8.5285 30.474L18.8102 20.1924C18.9373 20.0652 19.1225 20.0092 19.295 20.0418C19.4719 20.0747 19.621 20.1924 19.694 20.3566L20.8725 23.0105C20.9641 23.2168 20.9195 23.458 20.7597 23.6173L11.9534 32.4245C11.8492 32.529 11.7093 32.5841 11.568 32.5841H11.5678ZM9.86116 30.6838L11.4472 31.3886L19.7238 23.1111L19.0194 21.5253L9.86091 30.684L9.86116 30.6838Z" fill="#1C1C1C"/>
<path d="M15.1262 33.6207L19.3973 35.5183L23.8545 31.0611L21.9559 26.7908L15.1262 33.6207Z" fill="#A9F2F3"/>
<path d="M19.3973 36.0636C19.3228 36.0636 19.2467 36.0482 19.1758 36.0165L14.9048 34.1189C14.7408 34.0458 14.6229 33.897 14.5902 33.7204C14.5576 33.5437 14.6136 33.3625 14.7408 33.2353L21.5707 26.4054C21.6979 26.2782 21.8796 26.222 22.0558 26.2549C22.2324 26.2875 22.3815 26.4052 22.4549 26.5694L24.3532 30.8397C24.4448 31.046 24.4002 31.2872 24.2404 31.4466L19.7832 35.9037C19.6787 36.0083 19.5391 36.0636 19.3978 36.0636H19.3973ZM16.0732 33.4446L19.2765 34.8678L23.204 30.9403L21.7798 27.7373L16.073 33.4443L16.0732 33.4446Z" fill="#1C1C1C"/>
<path d="M20.3743 23.2317L11.5678 32.0388L15.1262 33.6207L21.9559 26.7908L20.3743 23.2317Z" fill="#FFD38E"/>
<path d="M15.1262 34.1659C15.051 34.1659 14.9757 34.1504 14.9048 34.1189L11.3466 32.5371C11.1826 32.464 11.0647 32.3149 11.032 32.1385C10.9994 31.9618 11.0554 31.7803 11.1826 31.6534L19.9891 22.8465C20.116 22.7191 20.2985 22.663 20.4739 22.6959C20.6508 22.7286 20.7999 22.8462 20.873 23.0105L22.4549 26.5696C22.5465 26.7757 22.5016 27.0169 22.3421 27.1765L15.5121 34.0061C15.4076 34.1106 15.268 34.1659 15.1267 34.1659H15.1262ZM12.5148 31.8632L15.0054 32.9702L21.3057 26.6702L20.1981 24.1789L12.5148 31.8634V31.8632Z" fill="#1C1C1C"/>
<path d="M12.5489 21.6364C10.5411 21.6364 8.91392 20.0092 8.91392 18.0014C8.91392 20.0092 7.28672 21.6364 5.27897 21.6364C7.28672 21.6364 8.91392 23.2636 8.91392 25.2713C8.91392 23.2636 10.5411 21.6364 12.5489 21.6364Z" fill="#EDEDED"/>
<path d="M8.91392 25.8168C8.6128 25.8168 8.36868 25.5727 8.36868 25.2716C8.36868 23.5679 6.98292 22.1819 5.27897 22.1819C4.97784 22.1819 4.73373 21.9377 4.73373 21.6366C4.73373 21.3355 4.97784 21.0914 5.27897 21.0914C6.98292 21.0914 8.36868 19.7054 8.36868 18.0017C8.36868 17.7006 8.6128 17.4565 8.91392 17.4565C9.21505 17.4565 9.45917 17.7006 9.45917 18.0017C9.45917 19.7054 10.8449 21.0914 12.5489 21.0914C12.85 21.0914 13.0941 21.3355 13.0941 21.6366C13.0941 21.9377 12.85 22.1819 12.5489 22.1819C10.8449 22.1819 9.45917 23.5679 9.45917 25.2716C9.45917 25.5727 9.21505 25.8168 8.91392 25.8168ZM7.34129 21.6364C7.99666 22.0094 8.54117 22.5541 8.91392 23.2088C9.28668 22.5541 9.83119 22.0094 10.4866 21.6364C9.83119 21.2636 9.28668 20.7189 8.91392 20.0642C8.54117 20.7189 7.99666 21.2636 7.34129 21.6364Z" fill="#1C1C1C"/>
<path d="M20.546 14.3665C18.5383 14.3665 16.9111 12.7393 16.9111 10.7316C16.9111 12.7393 15.2839 14.3665 13.2761 14.3665C15.2839 14.3665 16.9111 15.9937 16.9111 18.0015C16.9111 15.9937 18.5383 14.3665 20.546 14.3665Z" fill="#FF8C3F"/>
<path d="M16.9111 18.5467C16.6099 18.5467 16.3658 18.3026 16.3658 18.0014C16.3658 16.2978 14.9801 14.9118 13.2761 14.9118C12.975 14.9118 12.7309 14.6676 12.7309 14.3665C12.7309 14.0654 12.975 13.8213 13.2761 13.8213C14.9801 13.8213 16.3658 12.4353 16.3658 10.7316C16.3658 10.4305 16.6099 10.1863 16.9111 10.1863C17.2122 10.1863 17.4563 10.4305 17.4563 10.7316C17.4563 12.4353 18.8421 13.8213 20.546 13.8213C20.8471 13.8213 21.0913 14.0654 21.0913 14.3665C21.0913 14.6676 20.8471 14.9118 20.546 14.9118C18.8421 14.9118 17.4563 16.2978 17.4563 18.0014C17.4563 18.3026 17.2122 18.5467 16.9111 18.5467ZM15.3384 14.3665C15.9938 14.7395 16.5383 15.2843 16.9111 15.9389C17.2838 15.2843 17.8283 14.7395 18.4837 14.3665C17.8283 13.9938 17.2838 13.449 16.9111 12.7944C16.5383 13.449 15.9938 13.9938 15.3384 14.3665Z" fill="#1C1C1C"/>
<path d="M10.757 11.8476C9.33759 10.4283 9.33759 8.12671 10.757 6.70734C9.33759 8.12671 7.03602 8.12671 5.61688 6.70734C7.03627 8.12671 7.03627 10.4283 5.61688 11.8476C7.03627 10.4283 9.33784 10.4283 10.757 11.8476Z" fill="#FFD38E"/>
<path d="M10.7714 12.3929C10.767 12.3929 10.7614 12.3926 10.7614 12.3926C10.6171 12.3929 10.478 12.3395 10.3716 12.2331C9.78782 11.6496 9.01211 11.3285 8.18693 11.3285C7.36176 11.3285 6.58604 11.6498 6.00231 12.2331C5.78937 12.446 5.44415 12.446 5.23146 12.2331C5.12499 12.1266 5.07164 11.987 5.07164 11.8476C5.07164 11.7083 5.12499 11.5687 5.23146 11.462C5.81495 10.8785 6.13581 10.1028 6.13581 9.27737C6.13581 8.45196 5.81495 7.67624 5.23146 7.093C5.12499 6.98653 5.07164 6.84693 5.07164 6.70733C5.07164 6.56774 5.12499 6.42838 5.23146 6.32191C5.44439 6.10898 5.78937 6.10898 6.00231 6.32191C6.58604 6.9054 7.36176 7.22675 8.18693 7.22675C9.01211 7.22675 9.78782 6.9054 10.3716 6.32191C10.5845 6.10898 10.9297 6.10898 11.1424 6.32191C11.2489 6.42838 11.3022 6.56798 11.3022 6.70733C11.3022 6.84669 11.2489 6.98629 11.1424 7.093C10.5589 7.67649 10.238 8.4522 10.238 9.27737C10.238 10.1025 10.5363 10.8227 11.0808 11.3982C11.2235 11.4966 11.3166 11.661 11.3166 11.8474C11.3166 12.1485 11.073 12.3926 10.7714 12.3926V12.3929ZM8.18693 10.238C8.56748 10.238 8.94023 10.2887 9.29813 10.3864C9.10006 9.66157 9.10006 8.89365 9.29813 8.16886C8.58234 8.36449 7.79152 8.36449 7.07598 8.16886C7.27405 8.89365 7.27405 9.66157 7.07598 10.3864C7.43387 10.2887 7.80663 10.238 8.18718 10.238H8.18693Z" fill="#1C1C1C"/>
</g>
</g>
<defs>
<clipPath id="clip0_2_296">
<rect width="44" height="44" fill="white"/>
</clipPath>
</defs>
</svg>
