<svg width="33" height="26" viewBox="0 0 33 26" fill="none" xmlns="http://www.w3.org/2000/svg">
<path d="M31.63 7.76H28C26.57 7.76 24.37 8.92 24.37 10.35V15.54C24.37 16.97 26.57 18.13 28 18.13H31.63C31.63 15.88 30.78 14.02 29.8 12.94C30.79 11.86 31.63 10.01 31.63 7.75V7.76Z" fill="#FF5B52" stroke="#1D1D1D" stroke-linecap="round" stroke-linejoin="round"/>
<path d="M22.29 0.5H16.06C12.32 0.5 9.83 3.68 9.83 5.69C9.83 6.81 9.83 6.73 9.83 6.73H17.3C19.79 6.73 22.28 3.66 22.28 0.5H22.29Z" fill="#FF5B52" stroke="#1D1D1D" stroke-linecap="round" stroke-linejoin="round"/>
<path d="M12.95 3.61C10.45 3.61 8.14 4.17 6.19 5.11C7.76 6.77 8.8 9.66 8.8 12.95C8.8 16.24 7.76 19.12 6.19 20.79C8.14 21.74 10.46 22.29 12.95 22.29C19.83 22.29 25.4 18.11 25.4 12.95C25.4 7.79 19.83 3.61 12.95 3.61Z" fill="#FFAB3B" stroke="#1D1D1D" stroke-linecap="round" stroke-linejoin="round"/>
<path d="M8.8 12.95C8.8 9.66 7.76 6.78 6.19 5.11C2.77 6.78 0.5 9.67 0.5 12.95C0.5 16.23 2.77 19.12 6.19 20.79C7.76 19.13 8.8 16.24 8.8 12.95Z" fill="#FFD5B2" stroke="#1D1D1D" stroke-linecap="round" stroke-linejoin="round"/>
<path d="M21.25 13.73H20.21C19.78 13.73 19.43 13.38 19.43 12.95C19.43 12.52 19.78 12.17 20.21 12.17H21.25C21.68 12.17 22.03 12.52 22.03 12.95C22.03 13.38 21.68 13.73 21.25 13.73ZM17.1 13.73H12.95C12.52 13.73 12.17 13.38 12.17 12.95C12.17 12.52 12.52 12.17 12.95 12.17H17.1C17.53 12.17 17.88 12.52 17.88 12.95C17.88 13.38 17.53 13.73 17.1 13.73Z" fill="#1C1C1C"/>
<path d="M4.65 13.73C4.22 13.73 3.87 13.38 3.87 12.95V11.91C3.87 11.48 4.22 11.13 4.65 11.13C5.08 11.13 5.43 11.48 5.43 11.91V12.95C5.43 13.38 5.08 13.73 4.65 13.73Z" fill="#1C1C1C"/>
<path d="M11.5 20.501H15.37C16.3533 20.501 17.3864 21.0296 18.1871 21.8898C18.8666 22.6198 19.3405 23.5489 19.4666 24.5H16.7813C15.174 24.5 13.8398 23.9073 12.9102 23.1354C11.9578 22.3446 11.5 21.4312 11.5 20.836V20.8307V20.8255V20.8202V20.8151V20.8099V20.8047V20.7996V20.7945V20.7894V20.7844V20.7793V20.7743V20.7693V20.7643V20.7594V20.7544V20.7495V20.7446V20.7398V20.7349V20.7301V20.7253V20.7205V20.7158V20.711V20.7063V20.7016V20.6969V20.6923V20.6876V20.683V20.6784V20.6738V20.6693V20.6647V20.6602V20.6557V20.6512V20.6468V20.6424V20.6379V20.6336V20.6292V20.6248V20.6205V20.6162V20.6119V20.6076V20.6034V20.5991V20.5949V20.5907V20.5865V20.5824V20.5783V20.5741V20.57V20.566V20.5619V20.5579V20.5539V20.5499V20.5459V20.5419V20.538V20.5341V20.5301V20.5263V20.5224V20.5185V20.5147V20.5109V20.5071V20.5033V20.501Z" fill="#FF5B52" stroke="#1D1D1D" stroke-linecap="round" stroke-linejoin="round"/>
</svg>
