<svg width="37" height="36" viewBox="0 0 37 36" fill="none" xmlns="http://www.w3.org/2000/svg">
<g clip-path="url(#clip0_2_283)">
<path d="M22.3946 10.223H8.5453C4.52873 10.223 1.27102 13.9243 1.27102 17.9754V18.8337C1.27102 22.8849 4.52873 26.5861 8.5453 26.5861H12.8329V24.2516C12.8329 22.7865 14.02 21.5892 15.4727 21.5892C16.9254 21.5892 18.1124 22.7865 18.1124 24.2516V26.5861H22.4C26.4166 26.5861 29.6743 22.8849 29.6743 18.8337V17.9754C29.6743 13.9243 26.4166 10.223 22.4 10.223H22.3946Z" fill="#FFDA01" stroke="black" stroke-linecap="round" stroke-linejoin="round"/>
<path d="M20.2752 24.4047V24.2571C20.2752 21.5837 18.1179 19.4078 15.4672 19.4078C12.8166 19.4078 10.6593 21.5837 10.6593 24.2571V24.4047H8.53988C5.8188 24.4047 3.43379 21.8024 3.43379 18.8392V17.9809C3.43379 15.0177 5.8188 12.4153 8.53988 12.4153H22.3892C25.1103 12.4153 27.4953 15.0177 27.4953 17.9809V18.8392C27.4953 21.8079 25.1103 24.4047 22.3892 24.4047H20.2698H20.2752Z" fill="#93B4FF" stroke="black" stroke-linecap="round" stroke-linejoin="round"/>
<path d="M15.8792 12.7215L5.77544 22.9122" stroke="black" stroke-linecap="round" stroke-linejoin="round"/>
<path d="M22.4178 13L16 19.6863" stroke="black" stroke-linecap="round" stroke-linejoin="round"/>
<path d="M21.9827 30.9598H26.4437C29.7936 30.9598 32.7315 28.1934 32.7315 25.0444V10.9064C32.7315 10.07 33.4036 9.39203 34.2329 9.39203C35.0623 9.39203 35.7344 10.07 35.7344 10.9064V25.0444C35.7344 29.8937 31.4847 33.9886 26.4491 33.9886H21.9881" fill="#12A9CC"/>
<path d="M21.9827 30.9598H26.4437C29.7936 30.9598 32.7315 28.1934 32.7315 25.0444V10.9064C32.7315 10.07 33.4036 9.39203 34.2329 9.39203C35.0623 9.39203 35.7344 10.07 35.7344 10.9064V25.0444C35.7344 29.8937 31.4847 33.9886 26.4491 33.9886H21.9881" stroke="black" stroke-linecap="round" stroke-linejoin="round"/>
<path d="M22.1073 32.5671C22.1073 33.759 21.1479 34.7321 19.9608 34.7321H12.5944C11.4127 34.7321 10.4479 33.7644 10.4479 32.5671C10.4479 31.3753 11.4073 30.4022 12.5944 30.4022H19.9608C21.1425 30.4022 22.1073 31.3698 22.1073 32.5671Z" fill="#FFDA01" stroke="black" stroke-linecap="round" stroke-linejoin="round"/>
<path d="M31.5444 7.15051C31.5444 7.94324 30.9102 8.58289 30.1242 8.58289C29.3382 8.58289 28.704 7.94324 28.704 7.15051C28.704 6.35778 29.3382 5.71812 30.1242 5.71812C30.9102 5.71812 31.5444 6.35778 31.5444 7.15051Z" fill="#E6E6E6" stroke="black" stroke-linecap="round" stroke-linejoin="round"/>
<path d="M27.8097 3.23059C27.8097 4.31308 26.937 5.18782 25.8691 5.18782C24.8013 5.18782 23.9286 4.31308 23.9286 3.23059C23.9286 2.1481 24.8013 1.27336 25.8691 1.27336C26.937 1.27336 27.8097 2.1481 27.8097 3.23059Z" fill="#E6E6E6" stroke="black" stroke-linecap="round" stroke-linejoin="round"/>
</g>
<defs>
<clipPath id="clip0_2_283">
<rect width="37" height="36" fill="white"/>
</clipPath>
</defs>
</svg>
