<svg width="26" height="42" viewBox="0 0 26 42" fill="none" xmlns="http://www.w3.org/2000/svg">
<g clip-path="url(#clip0_2_382)">
<path d="M21.5776 36.9893H17.5602C17.3332 37.3539 17.2044 37.794 17.2044 38.2654C17.2044 39.6044 18.2655 40.692 19.5719 40.692C20.8784 40.692 21.9394 39.6044 21.9394 38.2654C21.9394 37.8003 21.8106 37.3602 21.5837 36.9893H21.5776Z" fill="#FFDA01" stroke="black" stroke-linecap="round" stroke-linejoin="round"/>
<path d="M4.82724 36.983C4.60031 37.3539 4.4715 37.794 4.4715 38.2654C4.4715 39.6044 5.53258 40.692 6.839 40.692C8.14541 40.692 9.20649 39.6044 9.20649 38.2654C9.20649 37.8003 9.07769 37.3602 8.85075 36.9893H4.83338L4.82724 36.983Z" fill="#FFDA01" stroke="black" stroke-linecap="round" stroke-linejoin="round"/>
<path d="M3.25096 8.26074H22.749C23.8224 8.26074 24.6933 9.1534 24.6933 10.2535V35.0468C24.6933 36.147 23.8224 37.0396 22.749 37.0396H3.25096C2.17761 37.0396 1.30667 36.147 1.30667 35.0468V10.2535C1.30667 9.1534 2.17761 8.26074 3.25096 8.26074Z" fill="#93B4FF" stroke="black" stroke-linecap="round" stroke-linejoin="round"/>
<path d="M7.48301 16.1941V31.998" stroke="black" stroke-linecap="round" stroke-linejoin="round"/>
<path d="M13.0031 30.2818V31.998" stroke="black" stroke-linecap="round" stroke-linejoin="round"/>
<path d="M13.0031 18.2874V25.4664" stroke="black" stroke-linecap="round" stroke-linejoin="round"/>
<path d="M18.517 27.6101V31.998" stroke="black" stroke-linecap="round" stroke-linejoin="round"/>
<path d="M18.517 13.5538V23.3668" stroke="black" stroke-linecap="round" stroke-linejoin="round"/>
<path d="M20.3693 26.8306L11.3409 30.3635L10.2001 26.9186L19.2346 23.3857L20.3693 26.8306Z" fill="#14945C" stroke="black" stroke-linecap="round" stroke-linejoin="round"/>
<path d="M15.346 19.0481L6.31766 15.5089L7.45847 12.0703L16.4807 15.6095L15.346 19.0481Z" fill="#14945C" stroke="black" stroke-linecap="round" stroke-linejoin="round"/>
<path d="M7.115 8.02186V4.62723C7.115 2.79791 8.56248 1.31433 10.3473 1.31433H15.3276C17.1124 1.31433 18.5599 2.79791 18.5599 4.62723V8.02186" stroke="black" stroke-linecap="round" stroke-linejoin="round"/>
</g>
<defs>
<clipPath id="clip0_2_382">
<rect width="26" height="42" fill="white"/>
</clipPath>
</defs>
</svg>
