<svg width="25" height="39" viewBox="0 0 25 39" fill="none" xmlns="http://www.w3.org/2000/svg">
<g clip-path="url(#clip0_2_167)">
<path d="M20.0502 6.60278H0.801887L1.78 20.2265H19.0721L20.0502 6.60278Z" fill="#F2F9FF" stroke="black" stroke-linecap="round" stroke-linejoin="round"/>
<path d="M1.78 20.2265L3.06604 38.2094H17.78L19.0721 20.2265H1.78Z" fill="#6E2D00" stroke="black" stroke-linecap="round" stroke-linejoin="round"/>
<path d="M7.80566 34.571L17.78 4.42321L24.1981 0.790604" stroke="black" stroke-linecap="round" stroke-linejoin="round"/>
<path d="M5.89773 28.3055C6.5213 28.3055 7.02679 27.8188 7.02679 27.2186C7.02679 26.6183 6.5213 26.1317 5.89773 26.1317C5.27417 26.1317 4.76868 26.6183 4.76868 27.2186C4.76868 27.8188 5.27417 28.3055 5.89773 28.3055Z" fill="#F2F9FF" stroke="black" stroke-miterlimit="10"/>
<path d="M14.5981 29.8747C14.9116 29.8747 15.1657 29.6301 15.1657 29.3284C15.1657 29.0266 14.9116 28.782 14.5981 28.782C14.2847 28.782 14.0306 29.0266 14.0306 29.3284C14.0306 29.6301 14.2847 29.8747 14.5981 29.8747Z" fill="#F2F9FF" stroke="black" stroke-miterlimit="10"/>
<path d="M13.5355 35.251C14.4725 35.251 15.2321 34.5198 15.2321 33.6178C15.2321 32.7158 14.4725 31.9846 13.5355 31.9846C12.5985 31.9846 11.8389 32.7158 11.8389 33.6178C11.8389 34.5198 12.5985 35.251 13.5355 35.251Z" fill="#F2F9FF" stroke="black" stroke-miterlimit="10"/>
</g>
<defs>
<clipPath id="clip0_2_167">
<rect width="25" height="39" fill="white"/>
</clipPath>
</defs>
</svg>
