<svg width="34" height="32" viewBox="0 0 34 32" fill="none" xmlns="http://www.w3.org/2000/svg">
<g clip-path="url(#clip0_2_135)">
<path d="M1.85111 21.427V30.7555H32.1538V21.2754L1.85111 21.427Z" fill="#E9D2B9" stroke="black" stroke-linecap="round" stroke-linejoin="round"/>
<path d="M1.85111 13.6581V19.9602L32.1538 19.9016V13.6581H1.85111Z" fill="#E9D2B9" stroke="black" stroke-linecap="round" stroke-linejoin="round"/>
<path d="M2.01743 20.0531H32.1538" stroke="black" stroke-linecap="round" stroke-linejoin="round"/>
<path d="M5.38276 17.1049C5.38276 17.3836 5.15775 17.6085 4.87894 17.6085C4.60012 17.6085 4.37511 17.3836 4.37511 17.1049C4.37511 16.8263 4.60012 16.6013 4.87894 16.6013C5.15775 16.6013 5.38276 16.8263 5.38276 17.1049Z" stroke="black" stroke-linecap="round" stroke-linejoin="round"/>
<path d="M9.42311 17.1049C9.42311 17.3836 9.1981 17.6085 8.91929 17.6085C8.64047 17.6085 8.41547 17.3836 8.41547 17.1049C8.41547 16.8263 8.64047 16.6013 8.91929 16.6013C9.1981 16.6013 9.42311 16.8263 9.42311 17.1049Z" stroke="black" stroke-linecap="round" stroke-linejoin="round"/>
<path d="M13.4635 17.1049C13.4635 17.3836 13.2385 17.6085 12.9596 17.6085C12.6808 17.6085 12.4558 17.3836 12.4558 17.1049C12.4558 16.8263 12.6808 16.6013 12.9596 16.6013C13.2385 16.6013 13.4635 16.8263 13.4635 17.1049Z" stroke="black" stroke-linecap="round" stroke-linejoin="round"/>
<path d="M17.5087 17.1049C17.5087 17.3836 17.2837 17.6085 17.0049 17.6085C16.7261 17.6085 16.5011 17.3836 16.5011 17.1049C16.5011 16.8263 16.7261 16.6013 17.0049 16.6013C17.2837 16.6013 17.5087 16.8263 17.5087 17.1049Z" stroke="black" stroke-linecap="round" stroke-linejoin="round"/>
<path d="M21.5491 17.1049C21.5491 17.3836 21.3241 17.6085 21.0452 17.6085C20.7664 17.6085 20.5414 17.3836 20.5414 17.1049C20.5414 16.8263 20.7664 16.6013 21.0452 16.6013C21.3241 16.6013 21.5491 16.8263 21.5491 17.1049Z" stroke="black" stroke-linecap="round" stroke-linejoin="round"/>
<path d="M25.5894 17.1049C25.5894 17.3836 25.3644 17.6085 25.0856 17.6085C24.8068 17.6085 24.5818 17.3836 24.5818 17.1049C24.5818 16.8263 24.8068 16.6013 25.0856 16.6013C25.3644 16.6013 25.5894 16.8263 25.5894 17.1049Z" stroke="black" stroke-linecap="round" stroke-linejoin="round"/>
<path d="M29.6298 17.1049C29.6298 17.3836 29.4048 17.6085 29.126 17.6085C28.8471 17.6085 28.6221 17.3836 28.6221 17.1049C28.6221 16.8263 28.8471 16.6013 29.126 16.6013C29.4048 16.6013 29.6298 16.8263 29.6298 17.1049Z" stroke="black" stroke-linecap="round" stroke-linejoin="round"/>
<path d="M26.4308 6.40252L24.7432 5.42468L19.4311 7.35591L1.85111 13.6581H32.1538C31.0043 9.82005 28.2993 7.55636 26.4308 6.40252Z" fill="#6E2D00" stroke="black" stroke-linecap="round" stroke-linejoin="round"/>
<path d="M23.0263 10.2552C24.9119 10.2552 26.4405 8.7273 26.4405 6.84255C26.4405 4.9578 24.9119 3.4299 23.0263 3.4299C21.1407 3.4299 19.612 4.9578 19.612 6.84255C19.612 8.7273 21.1407 10.2552 23.0263 10.2552Z" fill="#D2184C" stroke="black" stroke-linecap="round" stroke-linejoin="round"/>
<path d="M23.4078 4.77932C23.4078 4.77932 24.5035 2.59386 26.1862 1.24445" stroke="black" stroke-linecap="round" stroke-linejoin="round"/>
<path d="M32.1782 19.7793L1.70437 19.8673C1.70437 19.8673 0.652703 20.9918 1.7435 22.1212H13.6151C13.6151 22.1212 14.7059 22.2581 14.7059 23.8178V25.7735C14.7059 27.3038 15.9141 28.5554 17.3962 28.5554C18.8783 28.5554 20.0865 27.3331 20.0865 25.8028C20.0865 25.8028 19.9496 24.4729 21.4708 24.4729H24.4791C27.1645 24.3898 24.9976 21.9012 27.502 22.1164H32.2418C33.4451 20.9918 32.1831 19.7793 32.1831 19.7793H32.1782Z" fill="#6E2D00" stroke="black" stroke-linecap="round" stroke-linejoin="round"/>
</g>
<defs>
<clipPath id="clip0_2_135">
<rect width="34" height="32" fill="white"/>
</clipPath>
</defs>
</svg>
