<svg width="32" height="30" viewBox="0 0 32 30" fill="none" xmlns="http://www.w3.org/2000/svg">
<g clip-path="url(#clip0_2_179)">
<path d="M16.9332 28.7794C24.5797 28.7794 30.7783 22.6101 30.7783 15C30.7783 7.38985 24.5797 1.22061 16.9332 1.22061C9.28675 1.22061 3.08807 7.38985 3.08807 15C3.08807 22.6101 9.28675 28.7794 16.9332 28.7794Z" fill="#FFDA01"/>
<path d="M16.9332 1.22061C24.5673 1.22061 30.7783 7.40214 30.7783 15C30.7783 22.5979 24.5673 28.7794 16.9332 28.7794C9.2991 28.7794 3.08364 22.6023 3.08364 15L1.22166 17.5194" stroke="black" stroke-linecap="round" stroke-linejoin="round"/>
<path d="M5.87661 17.3694L3.08364 15" stroke="black" stroke-linecap="round" stroke-linejoin="round"/>
<path d="M15.5722 18.9004H10.4119C9.5518 18.9004 10.239 17.9915 10.4119 17.8459L13.6171 15.0309C15.0624 13.7513 15.5722 13.191 15.5722 12.1497C15.5722 11.1084 14.3353 9.88623 12.797 10.3098C11.5246 10.6584 10.4074 11.6732 10.4074 11.6732" stroke="black" stroke-linecap="round" stroke-linejoin="round"/>
<path d="M24.1151 16.1119H17.8332L22.6477 10.3054V18.9004" stroke="black" stroke-linecap="round" stroke-linejoin="round"/>
</g>
<defs>
<clipPath id="clip0_2_179">
<rect width="32" height="30" fill="white"/>
</clipPath>
</defs>
</svg>
