<svg width="37" height="35" viewBox="0 0 37 35" fill="none" xmlns="http://www.w3.org/2000/svg">
<g clip-path="url(#clip0_2_237)">
<path d="M6.31269 23.2592L18.3119 27.6032V1.99529L6.31269 23.2592Z" fill="#12A9CC" stroke="black" stroke-miterlimit="10"/>
<path d="M3.53358 28.0179L7.44104 33.0877C8.17239 33.5024 9.00298 33.7408 9.88582 33.7408C11.6672 33.7408 13.2448 32.7766 14.1955 31.3096C15.1463 32.7766 16.7239 33.7408 18.5052 33.7408C20.2866 33.7408 21.8642 32.7766 22.8149 31.3096C23.7657 32.7766 25.3433 33.7408 27.1246 33.7408C28.906 33.7408 30.4836 32.7766 31.4343 31.3096C31.497 31.4081 31.5701 31.4962 31.6433 31.5947L33.1425 28.0179H3.53358Z" fill="#FFDA01" stroke="black" stroke-linecap="round" stroke-linejoin="round"/>
<path d="M3.35597 11.1913H12.5866" stroke="black" stroke-linecap="round" stroke-linejoin="round"/>
<path d="M8.31866 8.08105H11.453" stroke="black" stroke-linecap="round" stroke-linejoin="round"/>
<path d="M27.3858 13.4359H33.5448" stroke="black" stroke-linecap="round" stroke-linejoin="round"/>
<path d="M31.2201 16.7172H34.5269" stroke="black" stroke-linecap="round" stroke-linejoin="round"/>
<path d="M19.0276 24.1508L30.259 27.6499C30.3478 22.4246 26.6127 7.99293 18.3119 1.99529C22.3448 9.89538 20.6418 21.393 19.0276 24.1508Z" fill="#93B4FF" stroke="black" stroke-linecap="round" stroke-linejoin="round"/>
<path d="M18.3119 23.9746L8.05746 20.263" stroke="black" stroke-linecap="round" stroke-linejoin="round"/>
<path d="M1.26119 33.7408C3.04254 33.7408 4.62015 32.7766 5.5709 31.3096C6.52164 32.7766 8.09925 33.7408 9.8806 33.7408C11.6619 33.7408 13.2396 32.7766 14.1903 31.3096C15.141 32.7766 16.7187 33.7408 18.5 33.7408C20.2813 33.7408 21.859 32.7766 22.8097 31.3096C23.7604 32.7766 25.3381 33.7408 27.1194 33.7408C28.9007 33.7408 30.4784 32.7766 31.4291 31.3096C32.3798 32.7766 33.9575 33.7408 35.7388 33.7408" stroke="black" stroke-linecap="round" stroke-linejoin="round"/>
</g>
<defs>
<clipPath id="clip0_2_237">
<rect width="37" height="35" fill="white"/>
</clipPath>
</defs>
</svg>
