<svg width="32" height="34" viewBox="0 0 32 34" fill="none" xmlns="http://www.w3.org/2000/svg">
<g clip-path="url(#clip0_2_204)">
<path d="M31.7254 6.70437L31.6114 6.07218C31.5285 5.61531 31.0984 5.31781 30.658 5.40812L7.50777 9.98218V9.96093L3.25907 10.9012C2.81347 10.9969 2.51813 11.4378 2.59585 11.9C2.67357 12.3781 3.12435 12.6969 3.58549 12.6066L7.54922 11.8362L7.55959 11.8681L31.0674 7.67656C31.513 7.59687 31.8083 7.16125 31.7254 6.70968V6.70437Z" fill="#F6971C" stroke="black" stroke-linecap="round" stroke-linejoin="round"/>
<path d="M7.40933 18.4397C7.53368 16.7981 7.84456 16.7078 8.29016 15.1778C8.73575 13.6478 8.31606 11.7672 7.67358 10.0831C7.48187 9.58375 7.35751 9.01 7.27461 8.43094L16.6269 6.08813C16.6477 7.16125 16.7513 9.00469 17.1658 10.0831C17.8083 11.7672 18.228 13.6478 17.7824 15.1778C17.7824 15.1778 17.3212 17.6428 16.1036 18.4397H7.40933Z" fill="#FFDA01" stroke="black" stroke-linecap="round" stroke-linejoin="round"/>
<path d="M30.4715 1.46625C30.5907 1.93906 30.3109 2.41719 29.8497 2.53406L3.01554 9.28094C2.52332 9.40313 2.02591 9.08438 1.9171 8.57438C1.81347 8.09094 2.10363 7.6075 2.56995 7.48531L29.2902 0.292189C29.7461 0.170002 30.2176 0.451564 30.3368 0.924377L30.4715 1.46625Z" fill="#F6971C" stroke="black" stroke-linecap="round" stroke-linejoin="round"/>
<path d="M24.4508 13.3237C21.6891 13.3237 19.4508 15.6081 19.4508 18.4397H29.4508C29.4508 15.6081 27.2124 13.3237 24.4508 13.3237Z" fill="#FFDA01" stroke="black" stroke-linecap="round" stroke-linejoin="round"/>
<path d="M16.0984 18.4397C16.0984 16.5059 17.6269 15.0981 19.513 15.0981C19.7461 15.0981 19.9793 15.1247 20.2021 15.1672C20.2021 15.1672 23.2383 15.5178 23.2383 18.4397H16.1036" fill="#D2184C"/>
<path d="M16.0984 18.4397C16.0984 16.5059 17.6269 15.0981 19.513 15.0981C19.7461 15.0981 19.9793 15.1247 20.2021 15.1672C20.2021 15.1672 23.2383 15.5178 23.2383 18.4397H16.1036" stroke="black" stroke-linecap="round" stroke-linejoin="round"/>
<path d="M0.295337 18.4397C1.01554 23.8159 4.36788 28.6822 8.97927 30.9188V33.7291H22.1347V30.9188C26.7461 28.6822 30.1036 23.8159 30.8187 18.4397H0.295337Z" fill="#12A9CC" stroke="black" stroke-miterlimit="10"/>
<path d="M9.59586 7.65531C9.66839 8.48406 9.80829 9.36594 10.0829 10.0884C10.7254 11.7725 11.1451 13.6531 10.6995 15.1831C10.2539 16.7131 9.94301 16.8034 9.81865 18.445" stroke="black" stroke-linecap="round" stroke-linejoin="round"/>
<path d="M11.9845 7.38969C12.0466 8.2875 12.1917 9.28625 12.4922 10.0884C13.1347 11.7725 13.5544 13.6531 13.1088 15.1831C12.6632 16.7131 12.3523 16.8034 12.228 18.445" stroke="black" stroke-linecap="round" stroke-linejoin="round"/>
<path d="M14.3575 6.49187C14.3782 7.565 14.4974 9.00469 14.9067 10.0884C15.5492 11.7725 15.9689 13.6531 15.5233 15.1831C15.0777 16.7131 14.7668 16.8034 14.6425 18.445" stroke="black" stroke-linecap="round" stroke-linejoin="round"/>
<path d="M1.67358 22.6791H29.658" stroke="black" stroke-linecap="round" stroke-linejoin="round"/>
</g>
<defs>
<clipPath id="clip0_2_204">
<rect width="32" height="34" fill="white"/>
</clipPath>
</defs>
</svg>
