<svg width="33" height="30" viewBox="0 0 33 30" fill="none" xmlns="http://www.w3.org/2000/svg">
<g clip-path="url(#clip0_2_191)">
<path d="M23.3344 2.87887C23.0445 2.44759 22.6121 2.06705 22.1453 2.02646C22.1305 1.60533 21.7718 1.10302 21.3198 0.79859C20.7105 0.392682 19.8948 0.428199 19.2806 0.823959C18.1357 1.55967 18.008 3.12241 18.8875 4.05093L14.3571 7.74469C13.0107 9.03853 10.888 9.36833 9.06507 9.59665C8.00863 9.72857 6.97184 10.2258 6.14143 11.0833C4.24967 13.0367 4.55432 16.5174 6.33798 18.3541C8.12164 20.1959 11.4924 20.5105 13.3793 18.5571C14.2097 17.6996 14.6912 16.629 14.819 15.5381C15.0401 13.6507 15.3595 11.4588 16.6125 10.0736L20.1896 5.3955C21.0888 6.29865 22.6022 6.16673 23.3147 4.98959C23.698 4.35536 23.752 3.49788 23.3393 2.88394L23.3344 2.87887Z" fill="#F6971C" stroke="black" stroke-linecap="round" stroke-linejoin="round"/>
<path d="M16.1309 6.52733C16.1309 6.52733 17.2562 6.40048 17.8163 8.00889" stroke="black" stroke-linecap="round" stroke-linejoin="round"/>
<path d="M12.996 14.1584C12.996 14.1584 12.7995 17.3549 10.5588 17.8318" stroke="black" stroke-linecap="round" stroke-linejoin="round"/>
<path d="M31.9659 23.8721C31.3714 22.8269 29.3912 22.1166 29.3912 20.5995C29.3912 17.474 27.293 14.5413 24.7772 12.5777L21.6767 10.8983C20.522 10.5025 19.2493 10.2844 17.844 10.2844C9.84458 10.2793 2.19399 15.9519 1.02945 22.142C1.02945 22.1572 1.02453 22.1724 1.01962 22.1826C0.361188 26.4395 3.78602 28.8445 6.68509 28.8445C13.176 28.8445 22.3351 28.672 28.659 28.672C31.8234 28.672 32.9782 25.648 31.961 23.8721H31.9659Z" fill="#F6971C" stroke="black" stroke-linecap="round" stroke-linejoin="round"/>
<path d="M30.7719 6.09336C30.482 5.66208 30.0496 5.28155 29.5828 5.24095C29.5681 4.81983 29.2094 4.31751 28.7573 4.01308C28.148 3.60717 27.3323 3.64269 26.7181 4.03845C25.5732 4.77416 25.4455 6.33691 26.325 7.26542L21.7946 10.9592C20.4483 12.253 18.3256 12.5828 16.5026 12.8111C15.4462 12.9431 14.4094 13.4403 13.579 14.2978C11.6872 16.2512 11.9918 19.7319 13.7755 21.5686C15.5592 23.4104 18.93 23.725 20.8168 21.7716C21.6472 20.9141 22.1288 19.8435 22.2565 18.7526C22.4776 16.8652 22.797 14.6732 24.05 13.2881L27.6272 8.60999C28.5264 9.51314 30.0398 9.38122 30.7522 8.20409C31.1355 7.56985 31.1896 6.71237 30.7768 6.09844L30.7719 6.09336Z" fill="#F6971C" stroke="black" stroke-linecap="round" stroke-linejoin="round"/>
<path d="M23.5685 9.74147C23.5685 9.74147 24.6937 9.61462 25.2539 11.223" stroke="black" stroke-linecap="round" stroke-linejoin="round"/>
<path d="M20.4335 17.3725C20.4335 17.3725 20.237 20.5691 17.9964 21.046" stroke="black" stroke-linecap="round" stroke-linejoin="round"/>
<path d="M29.6221 24.826C29.6221 24.826 29.9955 26.2467 27.8728 26.5004H19.8193" stroke="black" stroke-linecap="round" stroke-linejoin="round"/>
</g>
<defs>
<clipPath id="clip0_2_191">
<rect width="33" height="30" fill="white"/>
</clipPath>
</defs>
</svg>
