<svg width="20" height="20" viewBox="0 0 20 20" fill="none" xmlns="http://www.w3.org/2000/svg">
<path fill-rule="evenodd" clip-rule="evenodd" d="M15.5153 7.59229C15.6211 7.49014 15.7055 7.36795 15.7635 7.23286C15.8215 7.09776 15.8521 6.95245 15.8534 6.80542C15.8546 6.65839 15.8266 6.51258 15.7709 6.3765C15.7153 6.24041 15.633 6.11677 15.5291 6.0128C15.4251 5.90883 15.3015 5.82661 15.1654 5.77093C15.0293 5.71526 14.8835 5.68724 14.7365 5.68852C14.5894 5.6898 14.4441 5.72034 14.309 5.77838C14.1739 5.83641 14.0517 5.92077 13.9496 6.02653L8.46832 11.5078L6.11968 9.15916C6.01687 9.05627 5.89481 8.97465 5.76045 8.91894C5.6261 8.86323 5.48209 8.83454 5.33664 8.83449C5.0429 8.83438 4.76115 8.95097 4.55337 9.1586C4.34559 9.36624 4.2288 9.6479 4.2287 9.94164C4.22859 10.2354 4.34518 10.5171 4.55282 10.7249L7.60682 13.7789C7.71994 13.8921 7.85424 13.9819 8.00206 14.0431C8.14988 14.1044 8.30832 14.1359 8.46832 14.1359C8.62833 14.1359 8.78677 14.1044 8.93459 14.0431C9.0824 13.9819 9.21671 13.8921 9.32982 13.7789L15.5153 7.59229Z" fill="#72767A"/>
</svg>
