<svg width="20" height="20" viewBox="0 0 20 20" fill="none" xmlns="http://www.w3.org/2000/svg">
<path fill-rule="evenodd" clip-rule="evenodd" d="M15.5153 7.59229C15.6211 7.49014 15.7054 7.36795 15.7635 7.23286C15.8215 7.09776 15.852 6.95245 15.8533 6.80542C15.8546 6.65839 15.8266 6.51258 15.7709 6.3765C15.7152 6.24041 15.633 6.11677 15.529 6.0128C15.4251 5.90883 15.3014 5.82661 15.1653 5.77093C15.0293 5.71526 14.8835 5.68724 14.7364 5.68852C14.5894 5.6898 14.4441 5.72034 14.309 5.77838C14.1739 5.83641 14.0517 5.92077 13.9496 6.02653L8.46829 11.5078L6.11965 9.15916C6.01684 9.05627 5.89478 8.97465 5.76042 8.91894C5.62607 8.86323 5.48206 8.83454 5.33661 8.83449C5.04287 8.83438 4.76112 8.95097 4.55334 9.1586C4.34556 9.36624 4.22877 9.6479 4.22867 9.94164C4.22856 10.2354 4.34515 10.5171 4.55279 10.7249L7.60679 13.7789C7.71991 13.8921 7.85421 13.9819 8.00203 14.0431C8.14985 14.1044 8.30829 14.1359 8.46829 14.1359C8.6283 14.1359 8.78674 14.1044 8.93455 14.0431C9.08237 13.9819 9.21668 13.8921 9.32979 13.7789L15.5153 7.59229Z" fill="white"/>
</svg>
