<svg width="34" height="31" viewBox="0 0 34 31" fill="none" xmlns="http://www.w3.org/2000/svg">
<g id="_x3C_Layer_x3E_" clip-path="url(#clip0_6_10888)">
<path id="Vector" d="M23.8344 3.87891C23.5445 3.44763 23.1121 3.06709 22.6453 3.0265C22.6305 2.60537 22.2718 2.10306 21.8198 1.79863C21.2105 1.39272 20.3948 1.42824 19.7806 1.824C18.6357 2.55971 18.508 4.12245 19.3875 5.05097L14.8571 8.74473C13.5107 10.0386 11.388 10.3684 9.56507 10.5967C8.50863 10.7286 7.47184 11.2258 6.64143 12.0833C4.74967 14.0368 5.05432 17.5174 6.83798 19.3542C8.62164 21.196 11.9924 21.5105 13.8793 19.5571C14.7097 18.6996 15.1912 17.629 15.319 16.5382C15.5401 14.6507 15.8595 12.4588 17.1125 11.0736L20.6896 6.39554C21.5888 7.29868 23.1022 7.16676 23.8147 5.98963C24.198 5.3554 24.252 4.49792 23.8393 3.88398L23.8344 3.87891Z" fill="#F6971C" stroke="black" stroke-linecap="round" stroke-linejoin="round"/>
<path id="Vector_2" d="M16.631 7.52726C16.631 7.52726 17.7562 7.40041 18.3163 9.00882" stroke="black" stroke-linecap="round" stroke-linejoin="round"/>
<path id="Vector_3" d="M13.496 15.1582C13.496 15.1582 13.2995 18.3547 11.0588 18.8317" stroke="black" stroke-linecap="round" stroke-linejoin="round"/>
<path id="Vector_4" d="M32.4659 24.872C31.8714 23.8267 29.8912 23.1164 29.8912 21.5993C29.8912 18.4738 27.793 15.5411 25.2772 13.5776L22.1767 11.8981C21.022 11.5024 19.7493 11.2842 18.344 11.2842C10.3446 11.2791 2.69397 16.9517 1.52943 23.1418C1.52943 23.157 1.52452 23.1722 1.51961 23.1824C0.861173 27.4393 4.286 29.8443 7.18507 29.8443C13.676 29.8443 22.8351 29.6718 29.159 29.6718C32.3234 29.6718 33.4781 26.6478 32.461 24.872H32.4659Z" fill="#F6971C" stroke="black" stroke-linecap="round" stroke-linejoin="round"/>
<path id="Vector_5" d="M31.2719 7.09326C30.982 6.66199 30.5496 6.28145 30.0828 6.24086C30.0681 5.81973 29.7094 5.31741 29.2573 5.01298C28.648 4.60708 27.8323 4.64259 27.2181 5.03835C26.0732 5.77406 25.9455 7.33681 26.825 8.26532L22.2946 11.9591C20.9483 13.2529 18.8256 13.5827 17.0026 13.811C15.9462 13.943 14.9094 14.4402 14.079 15.2977C12.1872 17.2511 12.4918 20.7318 14.2755 22.5685C16.0592 24.4103 19.43 24.7249 21.3168 22.7715C22.1472 21.914 22.6288 20.8434 22.7565 19.7525C22.9776 17.8651 23.297 15.6731 24.55 14.288L28.1272 9.60989C29.0264 10.513 30.5398 10.3811 31.2522 9.20399C31.6355 8.56975 31.6896 7.71227 31.2768 7.09834L31.2719 7.09326Z" fill="#F6971C" stroke="black" stroke-linecap="round" stroke-linejoin="round"/>
<path id="Vector_6" d="M24.0685 10.7416C24.0685 10.7416 25.1937 10.6148 25.7538 12.2232" stroke="black" stroke-linecap="round" stroke-linejoin="round"/>
<path id="Vector_7" d="M20.9335 18.3726C20.9335 18.3726 20.737 21.5691 18.4964 22.046" stroke="black" stroke-linecap="round" stroke-linejoin="round"/>
<path id="Vector_8" d="M30.1221 25.8262C30.1221 25.8262 30.4956 27.2469 28.3728 27.5005H20.3193" stroke="black" stroke-linecap="round" stroke-linejoin="round"/>
</g>
<defs>
<clipPath id="clip0_6_10888">
<rect width="34" height="30" fill="white" transform="translate(0 0.5)"/>
</clipPath>
</defs>
</svg>
