<svg width="24" height="39" viewBox="0 0 24 39" fill="none" xmlns="http://www.w3.org/2000/svg">
<g id="_x3C_Layer_x3E_" clip-path="url(#clip0_6_10876)">
<g id="Group">
<path id="Vector" d="M19.5502 6.60303H0.30188L1.27999 20.2268H18.5721L19.5502 6.60303Z" fill="#F2F9FF" stroke="black" stroke-linecap="round" stroke-linejoin="round"/>
<path id="Vector_2" d="M1.28 20.2266L2.56604 38.2094H17.28L18.5721 20.2266H1.28Z" fill="#6E2D00" stroke="black" stroke-linecap="round" stroke-linejoin="round"/>
</g>
<path id="Vector_3" d="M7.30566 34.5709L17.28 4.42314L23.6981 0.790527" stroke="black" stroke-linecap="round" stroke-linejoin="round"/>
<path id="Vector_4" d="M5.39773 28.3056C6.02129 28.3056 6.52679 27.819 6.52679 27.2187C6.52679 26.6184 6.02129 26.1318 5.39773 26.1318C4.77417 26.1318 4.26868 26.6184 4.26868 27.2187C4.26868 27.819 4.77417 28.3056 5.39773 28.3056Z" fill="#F2F9FF" stroke="black" stroke-miterlimit="10"/>
<path id="Vector_5" d="M14.0981 29.8749C14.4116 29.8749 14.6657 29.6303 14.6657 29.3286C14.6657 29.0268 14.4116 28.7822 14.0981 28.7822C13.7847 28.7822 13.5306 29.0268 13.5306 29.3286C13.5306 29.6303 13.7847 29.8749 14.0981 29.8749Z" fill="#F2F9FF" stroke="black" stroke-miterlimit="10"/>
<path id="Vector_6" d="M13.0355 35.2508C13.9725 35.2508 14.7321 34.5196 14.7321 33.6176C14.7321 32.7156 13.9725 31.9844 13.0355 31.9844C12.0985 31.9844 11.3389 32.7156 11.3389 33.6176C11.3389 34.5196 12.0985 35.2508 13.0355 35.2508Z" fill="#F2F9FF" stroke="black" stroke-miterlimit="10"/>
</g>
<defs>
<clipPath id="clip0_6_10876">
<rect width="24" height="38" fill="white" transform="translate(0 0.5)"/>
</clipPath>
</defs>
</svg>
