<svg width="34" height="29" viewBox="0 0 34 29" fill="none" xmlns="http://www.w3.org/2000/svg">
<g id="_x3C_Layer_x3E_">
<path id="Vector" d="M30.8624 17.9731H3.54598C2.10028 17.9731 0.870209 19.1013 0.870209 20.3365V20.5018C0.870209 21.9072 2.213 22.9333 3.58029 22.9333H30.9751C32.3669 22.9333 33.2834 21.8877 33.2834 20.4532V20.249C33.2834 18.6442 31.9896 17.9683 30.8624 17.9683V17.9731Z" fill="#D2184C" stroke="black" stroke-linecap="round" stroke-linejoin="round"/>
<g id="Group">
<path id="Vector_2" d="M21.5854 1.87207H12.5731C7.34893 1.87207 3.05593 6.11736 2.76678 11.413H31.3868C31.1026 6.11736 26.8047 1.87207 21.5854 1.87207Z" fill="#E9C27F" stroke="black" stroke-linecap="round" stroke-linejoin="round"/>
<path id="Vector_3" d="M3.81552 23.0303C4.10466 25.4277 5.24162 27.3534 10.4658 27.3534H23.6829C28.907 27.3534 30.044 25.4325 30.3331 23.0303H3.81552Z" fill="#E9C27F" stroke="black" stroke-linecap="round" stroke-linejoin="round"/>
<path id="Vector_4" d="M1.86995 11.5737H32.2836C32.8374 11.5737 33.2834 12.0163 33.2834 12.5658V14.6228C33.2834 15.1723 32.8374 15.6148 32.2836 15.6148H1.86995C1.31617 15.6148 0.870209 15.1723 0.870209 14.6228V12.5658C0.870209 12.0163 1.31617 11.5737 1.86995 11.5737Z" fill="#D2184C" stroke="black" stroke-linecap="round" stroke-linejoin="round"/>
<path id="Vector_5" d="M22.541 3.94385L23.6829 4.16754" stroke="black" stroke-linecap="round" stroke-linejoin="round"/>
<path id="Vector_6" d="M24.7758 5.83545L25.9617 5.87922" stroke="black" stroke-linecap="round" stroke-linejoin="round"/>
<path id="Vector_7" d="M20.3946 3.67139L19.6938 4.30356" stroke="black" stroke-linecap="round" stroke-linejoin="round"/>
<path id="Vector_8" d="M16.1898 3.89502H17.2875" stroke="black" stroke-linecap="round" stroke-linejoin="round"/>
<path id="Vector_9" d="M21.1836 6.14648L21.7324 6.71058" stroke="black" stroke-linecap="round" stroke-linejoin="round"/>
<path id="Vector_10" d="M18.3804 6.14648V6.91482" stroke="black" stroke-linecap="round" stroke-linejoin="round"/>
<path id="Vector_11" d="M15.141 5.60691L14.4402 4.88721" stroke="black" stroke-linecap="round" stroke-linejoin="round"/>
<path id="Vector_12" d="M12.5534 3.85107L11.6811 4.75071" stroke="black" stroke-linecap="round" stroke-linejoin="round"/>
<path id="Vector_13" d="M32.6267 15.7461L1.95326 15.8093C1.95326 15.8093 1.04663 17.0056 2.33061 17.9441H13.9844C13.9844 17.9441 15.0773 18.0803 15.0773 19.6315V22.4666C15.0773 23.9886 16.2878 25.2335 17.7727 25.2335C19.2576 25.2335 20.4681 23.1279 20.4681 21.6058C20.4681 21.6058 20.3308 20.2831 21.855 20.2831H24.8689C27.5594 20.2005 25.3884 17.7253 27.8975 17.9392H32.2983C33.5039 17.1466 32.6218 15.7412 32.6218 15.7412L32.6267 15.7461Z" fill="#FFDA01" stroke="black" stroke-linecap="round" stroke-linejoin="round"/>
<path id="Vector_14" d="M9.49051 4.88721V5.78684" stroke="black" stroke-linecap="round" stroke-linejoin="round"/>
<path id="Vector_15" d="M11.8968 6.9151L12.578 6.21484" stroke="black" stroke-linecap="round" stroke-linejoin="round"/>
<path id="Vector_16" d="M7.1676 6.59863L7.54005 6.9828" stroke="black" stroke-linecap="round" stroke-linejoin="round"/>
<path id="Vector_17" d="M26.3097 7.54199H27.2751" stroke="black" stroke-linecap="round" stroke-linejoin="round"/>
<path id="Vector_18" d="M16.6259 19.354L16.7631 21.1387C16.7631 21.1387 16.7925 22.6802 17.7972 22.6024" stroke="black" stroke-linecap="round" stroke-linejoin="round"/>
</g>
</g>
</svg>
