<svg width="59" height="69" viewBox="0 0 59 69" fill="none" xmlns="http://www.w3.org/2000/svg">
<path d="M29.5 1V8" stroke="#4289F0" stroke-width="2" stroke-linecap="round" stroke-linejoin="round"/>
<path d="M29.5 8C17.915 8 8.5 17.415 8.5 29V50C5 50 1.5 53.5 1.5 57H29.5M29.5 8C41.085 8 50.5 17.415 50.5 29V50C54 50 57.5 53.5 57.5 57H29.5" fill="#D0E8FF"/>
<path d="M29.5 8C17.915 8 8.5 17.415 8.5 29V50C5 50 1.5 53.5 1.5 57H29.5H57.5C57.5 53.5 54 50 50.5 50V29C50.5 17.415 41.085 8 29.5 8Z" stroke="#4289F0" stroke-width="2" stroke-linecap="round" stroke-linejoin="round"/>
<path d="M22.5 60.5C22.5 64.35 25.65 67.5 29.5 67.5C33.35 67.5 36.5 64.35 36.5 60.5" stroke="#4289F0" stroke-width="2" stroke-linecap="round" stroke-linejoin="round"/>
</svg>
