<svg width="22" height="22" viewBox="0 0 22 22" fill="none" xmlns="http://www.w3.org/2000/svg">
<path d="M10.0834 16.0417C9.90104 16.0417 9.72617 16.1141 9.59724 16.2431C9.46831 16.372 9.39587 16.5469 9.39587 16.7292C9.39587 16.9115 9.46831 17.0864 9.59724 17.2153C9.72617 17.3443 9.90104 17.4167 10.0834 17.4167H11.9167C12.099 17.4167 12.2739 17.3443 12.4028 17.2153C12.5318 17.0864 12.6042 16.9115 12.6042 16.7292C12.6042 16.5469 12.5318 16.372 12.4028 16.2431C12.2739 16.1141 12.099 16.0417 11.9167 16.0417H10.0834Z" fill="#4289F0"/>
<path fill-rule="evenodd" clip-rule="evenodd" d="M7.33337 1.83331C6.78637 1.83331 6.26176 2.05061 5.87497 2.43741C5.48817 2.8242 5.27087 3.3488 5.27087 3.89581V18.1041C5.27087 18.6512 5.48817 19.1758 5.87497 19.5626C6.26176 19.9493 6.78637 20.1666 7.33337 20.1666H14.6667C15.2137 20.1666 15.7383 19.9493 16.1251 19.5626C16.5119 19.1758 16.7292 18.6512 16.7292 18.1041V3.89581C16.7292 3.3488 16.5119 2.8242 16.1251 2.43741C15.7383 2.05061 15.2137 1.83331 14.6667 1.83331H7.33337ZM6.64587 3.89581C6.64587 3.71348 6.71831 3.53861 6.84724 3.40968C6.97617 3.28075 7.15104 3.20831 7.33337 3.20831H14.6667C14.849 3.20831 15.0239 3.28075 15.1528 3.40968C15.2818 3.53861 15.3542 3.71348 15.3542 3.89581V18.1041C15.3542 18.2865 15.2818 18.4614 15.1528 18.5903C15.0239 18.7192 14.849 18.7916 14.6667 18.7916H7.33337C7.15104 18.7916 6.97617 18.7192 6.84724 18.5903C6.71831 18.4614 6.64587 18.2865 6.64587 18.1041V3.89581Z" fill="#4289F0"/>
</svg>
