<svg width="30" height="31" viewBox="0 0 30 31" fill="none" xmlns="http://www.w3.org/2000/svg">
<rect y="0.5" width="30" height="30" rx="15" fill="#F5F5F5"/>
<path d="M21.99 14.2014C21.7207 13.92 21.4421 13.63 21.3371 13.375C21.24 13.1414 21.2343 12.7543 21.2286 12.3793C21.2179 11.6821 21.2064 10.8921 20.6571 10.3429C20.1079 9.79357 19.3179 9.78214 18.6207 9.77143C18.2457 9.76571 17.8586 9.76 17.625 9.66286C17.3707 9.55786 17.08 9.27929 16.7986 9.01C16.3057 8.53643 15.7457 8 15 8C14.2543 8 13.695 8.53643 13.2014 9.01C12.92 9.27929 12.63 9.55786 12.375 9.66286C12.1429 9.76 11.7543 9.76571 11.3793 9.77143C10.6821 9.78214 9.89214 9.79357 9.34286 10.3429C8.79357 10.8921 8.78571 11.6821 8.77143 12.3793C8.76571 12.7543 8.76 13.1414 8.66286 13.375C8.55786 13.6293 8.27929 13.92 8.01 14.2014C7.53643 14.695 7 15.2543 7 16C7 16.7457 7.53643 17.305 8.01 17.7986C8.27929 18.08 8.55786 18.37 8.66286 18.625C8.76 18.8586 8.76571 19.2457 8.77143 19.6207C8.78214 20.3179 8.79357 21.1079 9.34286 21.6571C9.89214 22.2064 10.6821 22.2179 11.3793 22.2286C11.7543 22.2343 12.1414 22.24 12.375 22.3371C12.6293 22.4421 12.92 22.7207 13.2014 22.99C13.6943 23.4636 14.2543 24 15 24C15.7457 24 16.305 23.4636 16.7986 22.99C17.08 22.7207 17.37 22.4421 17.625 22.3371C17.8586 22.24 18.2457 22.2343 18.6207 22.2286C19.3179 22.2179 20.1079 22.2064 20.6571 21.6571C21.2064 21.1079 21.2179 20.3179 21.2286 19.6207C21.2343 19.2457 21.24 18.8586 21.3371 18.625C21.4421 18.3707 21.7207 18.08 21.99 17.7986C22.4636 17.305 23 16.7457 23 16C23 15.2543 22.4636 14.695 21.99 14.2014ZM21.165 17.0079C20.8229 17.365 20.4686 17.7343 20.2807 18.1879C20.1007 18.6236 20.0929 19.1214 20.0857 19.6036C20.0786 20.1036 20.0707 20.6271 19.8486 20.8486C19.6264 21.07 19.1064 21.0786 18.6036 21.0857C18.1214 21.0929 17.6236 21.1007 17.1879 21.2807C16.7343 21.4686 16.365 21.8229 16.0079 22.165C15.6507 22.5071 15.2857 22.8571 15 22.8571C14.7143 22.8571 14.3464 22.5057 13.9921 22.165C13.6379 21.8243 13.2657 21.4686 12.8121 21.2807C12.3764 21.1007 11.8786 21.0929 11.3964 21.0857C10.8964 21.0786 10.3729 21.0707 10.1514 20.8486C9.93 20.6264 9.92143 20.1064 9.91429 19.6036C9.90714 19.1214 9.89929 18.6236 9.71929 18.1879C9.53143 17.7343 9.17714 17.365 8.835 17.0079C8.49286 16.6507 8.14286 16.2857 8.14286 16C8.14286 15.7143 8.49429 15.3471 8.835 14.9921C9.17571 14.6371 9.53143 14.2657 9.71929 13.8121C9.89929 13.3764 9.90714 12.8786 9.91429 12.3964C9.92143 11.8964 9.92929 11.3729 10.1514 11.1514C10.3736 10.93 10.8936 10.9214 11.3964 10.9143C11.8786 10.9071 12.3764 10.8993 12.8121 10.7193C13.2657 10.5314 13.635 10.1771 13.9921 9.835C14.3493 9.49286 14.7143 9.14286 15 9.14286C15.2857 9.14286 15.6536 9.49429 16.0079 9.835C16.3621 10.1757 16.7343 10.5314 17.1879 10.7193C17.6236 10.8993 18.1214 10.9071 18.6036 10.9143C19.1036 10.9214 19.6271 10.9293 19.8486 11.1514C20.07 11.3736 20.0786 11.8936 20.0857 12.3964C20.0929 12.8786 20.1007 13.3764 20.2807 13.8121C20.4686 14.2657 20.8229 14.635 21.165 14.9921C21.5071 15.3493 21.8571 15.7143 21.8571 16C21.8571 16.2857 21.5057 16.6529 21.165 17.0079ZM14.4286 13.7143C14.4286 13.3752 14.328 13.0438 14.1397 12.7619C13.9513 12.48 13.6836 12.2602 13.3703 12.1305C13.0571 12.0007 12.7124 11.9668 12.3798 12.0329C12.0473 12.0991 11.7418 12.2624 11.5021 12.5021C11.2624 12.7418 11.0991 13.0473 11.0329 13.3798C10.9668 13.7124 11.0007 14.0571 11.1305 14.3703C11.2602 14.6836 11.48 14.9513 11.7619 15.1397C12.0438 15.328 12.3752 15.4286 12.7143 15.4286C13.1689 15.4286 13.605 15.248 13.9265 14.9265C14.248 14.605 14.4286 14.1689 14.4286 13.7143ZM12.1429 13.7143C12.1429 13.6013 12.1764 13.4908 12.2392 13.3968C12.3019 13.3028 12.3912 13.2296 12.4956 13.1864C12.6 13.1431 12.7149 13.1318 12.8258 13.1538C12.9366 13.1759 13.0384 13.2303 13.1183 13.3102C13.1983 13.3901 13.2527 13.492 13.2747 13.6028C13.2968 13.7137 13.2855 13.8285 13.2422 13.933C13.199 14.0374 13.1257 14.1266 13.0318 14.1894C12.9378 14.2522 12.8273 14.2857 12.7143 14.2857C12.5627 14.2857 12.4174 14.2255 12.3102 14.1183C12.2031 14.0112 12.1429 13.8658 12.1429 13.7143ZM17.2857 16.5714C16.9467 16.5714 16.6152 16.672 16.3333 16.8603C16.0514 17.0487 15.8317 17.3164 15.7019 17.6297C15.5722 17.9429 15.5382 18.2876 15.6044 18.6202C15.6705 18.9527 15.8338 19.2582 16.0735 19.4979C16.3133 19.7376 16.6187 19.9009 16.9513 19.9671C17.2838 20.0332 17.6285 19.9993 17.9417 19.8695C18.255 19.7398 18.5227 19.52 18.7111 19.2381C18.8995 18.9562 19 18.6248 19 18.2857C19 17.8311 18.8194 17.395 18.4979 17.0735C18.1764 16.752 17.7404 16.5714 17.2857 16.5714ZM17.2857 18.8571C17.1727 18.8571 17.0622 18.8236 16.9682 18.7608C16.8743 18.6981 16.801 18.6088 16.7578 18.5044C16.7145 18.4 16.7032 18.2851 16.7253 18.1742C16.7473 18.0634 16.8017 17.9616 16.8817 17.8817C16.9616 17.8017 17.0634 17.7473 17.1742 17.7253C17.2851 17.7032 17.4 17.7145 17.5044 17.7578C17.6088 17.801 17.6981 17.8743 17.7608 17.9682C17.8236 18.0622 17.8571 18.1727 17.8571 18.2857C17.8571 18.4373 17.7969 18.5826 17.6898 18.6898C17.5826 18.7969 17.4373 18.8571 17.2857 18.8571ZM18.2614 13.5471L12.5471 19.2614C12.4941 19.3145 12.431 19.3566 12.3617 19.3854C12.2923 19.4141 12.2179 19.4289 12.1429 19.4289C12.0678 19.4289 11.9934 19.4141 11.9241 19.3854C11.8547 19.3566 11.7917 19.3145 11.7386 19.2614C11.6855 19.2083 11.6434 19.1453 11.6146 19.0759C11.5859 19.0066 11.5711 18.9322 11.5711 18.8571C11.5711 18.7821 11.5859 18.7077 11.6146 18.6383C11.6434 18.569 11.6855 18.5059 11.7386 18.4529L17.4529 12.7386C17.5059 12.6855 17.569 12.6434 17.6383 12.6146C17.7077 12.5859 17.7821 12.5711 17.8571 12.5711C17.9322 12.5711 18.0066 12.5859 18.0759 12.6146C18.1453 12.6434 18.2083 12.6855 18.2614 12.7386C18.3145 12.7917 18.3566 12.8547 18.3854 12.9241C18.4141 12.9934 18.4289 13.0678 18.4289 13.1429C18.4289 13.2179 18.4141 13.2923 18.3854 13.3617C18.3566 13.431 18.3145 13.4941 18.2614 13.5471Z" fill="#72767A"/>
</svg>
