<svg width="30" height="31" viewBox="0 0 30 31" fill="none" xmlns="http://www.w3.org/2000/svg">
<rect y="0.5" width="30" height="30" rx="15" fill="#F5F5F5"/>
<path d="M18.5 16.25H16.25C15.8375 16.25 15.5 16.5875 15.5 17V19.25C15.5 19.6625 15.8375 20 16.25 20H18.5C18.9125 20 19.25 19.6625 19.25 19.25V17C19.25 16.5875 18.9125 16.25 18.5 16.25ZM18.5 8.75V9.5H12.5V8.75C12.5 8.3375 12.1625 8 11.75 8C11.3375 8 11 8.3375 11 8.75V9.5H10.25C9.4175 9.5 8.7575 10.175 8.7575 11L8.75 21.5C8.75 21.8978 8.90804 22.2794 9.18934 22.5607C9.47064 22.842 9.85218 23 10.25 23H20.75C21.575 23 22.25 22.325 22.25 21.5V11C22.25 10.175 21.575 9.5 20.75 9.5H20V8.75C20 8.3375 19.6625 8 19.25 8C18.8375 8 18.5 8.3375 18.5 8.75ZM20 21.5H11C10.5875 21.5 10.25 21.1625 10.25 20.75V13.25H20.75V20.75C20.75 21.1625 20.4125 21.5 20 21.5Z" fill="#72767A"/>
</svg>
